<svg width="48" height="48" viewBox="0 0 48 48" fill="none" xmlns="http://www.w3.org/2000/svg">
<circle cx="24" cy="24" r="23.5" fill="white" stroke="#A4A4A4" stroke-dasharray="8 8"/>
<path d="M32.625 22.875H25.125V15.375C25.125 15.2812 25.0781 15.2031 24.9844 15.1406C24.9219 15.0469 24.8438 15 24.75 15H23.25C23.1562 15 23.0625 15.0469 22.9688 15.1406C22.9062 15.2031 22.875 15.2812 22.875 15.375V22.875H15.375C15.2812 22.875 15.1875 22.9219 15.0938 23.0156C15.0312 23.0781 15 23.1562 15 23.25V24.75C15 24.8438 15.0312 24.9375 15.0938 25.0312C15.1875 25.0938 15.2812 25.125 15.375 25.125H22.875V32.625C22.875 32.7188 22.9062 32.8125 22.9688 32.9062C23.0625 32.9688 23.1562 33 23.25 33H24.75C24.8438 33 24.9219 32.9688 24.9844 32.9062C25.0781 32.8125 25.125 32.7188 25.125 32.625V25.125H32.625C32.7188 25.125 32.7969 25.0938 32.8594 25.0312C32.9531 24.9375 33 24.8438 33 24.75V23.25C33 23.1562 32.9531 23.0781 32.8594 23.0156C32.7969 22.9219 32.7188 22.875 32.625 22.875Z" fill="#A4A4A4"/>
</svg>
