<svg width="64" height="64" viewBox="0 0 64 64" fill="none" xmlns="http://www.w3.org/2000/svg">
<circle opacity="0.2" cx="32" cy="32" r="32" fill="#392CD1"/>
<path d="M42.9844 22.1094L40.1406 19.2656C39.6302 18.7552 39.0104 18.5 38.2812 18.5H28.875C28.1458 18.5 27.526 18.7552 27.0156 19.2656C26.5052 19.776 26.25 20.3958 26.25 21.125V23.75H21.875C21.1458 23.75 20.526 24.0052 20.0156 24.5156C19.5052 25.026 19.25 25.6458 19.25 26.375V43.875C19.25 44.6042 19.5052 45.224 20.0156 45.7344C20.526 46.2448 21.1458 46.5 21.875 46.5H34.125C34.8542 46.5 35.474 46.2448 35.9844 45.7344C36.4948 45.224 36.75 44.6042 36.75 43.875V41.25H41.125C41.8542 41.25 42.474 40.9948 42.9844 40.4844C43.4948 39.974 43.75 39.3542 43.75 38.625V23.9688C43.75 23.2396 43.4948 22.6198 42.9844 22.1094ZM33.7969 43.875H22.2031C22.1302 43.875 22.0573 43.8385 21.9844 43.7656C21.9115 43.6927 21.875 43.6198 21.875 43.5469V26.7031C21.875 26.6302 21.9115 26.5573 21.9844 26.4844C22.0573 26.4115 22.1302 26.375 22.2031 26.375H26.25V38.625C26.25 39.3542 26.5052 39.974 27.0156 40.4844C27.526 40.9948 28.1458 41.25 28.875 41.25H34.125V43.5469C34.125 43.6198 34.0885 43.6927 34.0156 43.7656C33.9427 43.8385 33.8698 43.875 33.7969 43.875ZM40.7969 38.625H29.2031C29.1302 38.625 29.0573 38.5885 28.9844 38.5156C28.9115 38.4427 28.875 38.3698 28.875 38.2969V21.4531C28.875 21.3802 28.9115 21.3073 28.9844 21.2344C29.0573 21.1615 29.1302 21.125 29.2031 21.125H35V25.9375C35 26.3021 35.1276 26.612 35.3828 26.8672C35.638 27.1224 35.9479 27.25 36.3125 27.25H41.125V38.2969C41.125 38.3698 41.0885 38.4427 41.0156 38.5156C40.9427 38.5885 40.8698 38.625 40.7969 38.625ZM41.125 24.625H37.625V21.125H38.1719C38.2448 21.125 38.3177 21.1615 38.3906 21.2344L41.0156 23.8594C41.0885 23.9323 41.125 24.0052 41.125 24.0781V24.625Z" fill="#392CD1"/>
</svg>
