<svg width="32" height="32" viewBox="0 0 32 32" fill="none" xmlns="http://www.w3.org/2000/svg">
<circle opacity="0.2" cx="16" cy="16" r="16" fill="#373737" fill-opacity="0.7"/>
<path d="M19.1172 18.1836L19.9922 17.3086C20.0651 17.2357 20.1471 17.2174 20.2383 17.2539C20.3294 17.2904 20.375 17.3633 20.375 17.4727V21.4375C20.375 21.8021 20.2474 22.112 19.9922 22.3672C19.737 22.6224 19.4271 22.75 19.0625 22.75H9.4375C9.07292 22.75 8.76302 22.6224 8.50781 22.3672C8.2526 22.112 8.125 21.8021 8.125 21.4375V11.8125C8.125 11.4479 8.2526 11.138 8.50781 10.8828C8.76302 10.6276 9.07292 10.5 9.4375 10.5H16.9297C17.0208 10.5 17.0846 10.5456 17.1211 10.6367C17.1576 10.7279 17.1393 10.8099 17.0664 10.8828L16.1914 11.7578C16.1549 11.7943 16.1094 11.8125 16.0547 11.8125H9.4375V21.4375H19.0625V18.3203C19.0625 18.2656 19.0807 18.2201 19.1172 18.1836ZM23.4102 12.6602L16.2188 19.8516L13.7578 20.125C13.3932 20.1615 13.0833 20.0521 12.8281 19.7969C12.5729 19.5417 12.4635 19.2318 12.5 18.8672L12.7734 16.4062L19.9648 9.21484C20.2747 8.90495 20.6484 8.75 21.0859 8.75C21.5417 8.75 21.9245 8.90495 22.2344 9.21484L23.4102 10.3906C23.7201 10.7005 23.875 11.0833 23.875 11.5391C23.875 11.9766 23.7201 12.3503 23.4102 12.6602ZM20.7031 13.5078L19.1172 11.9219L14.0312 17.0078L13.8398 18.7852L15.6172 18.5938L20.7031 13.5078ZM22.4805 11.3203L21.3047 10.1445C21.25 10.0898 21.1771 10.0625 21.0859 10.0625C21.013 10.0625 20.9492 10.0898 20.8945 10.1445L20.0469 10.9922L21.6328 12.5781L22.4805 11.7305C22.5352 11.6758 22.5625 11.612 22.5625 11.5391C22.5625 11.4479 22.5352 11.375 22.4805 11.3203Z" fill="#373737"/>
</svg>
