<svg width="64" height="64" viewBox="0 0 64 64" fill="none" xmlns="http://www.w3.org/2000/svg">
<g filter="url(#filter0_d)">
<circle cx="32" cy="32" r="24" fill="white"/>
</g>
<path d="M39.1562 34.2539V39.2812C39.1562 39.5156 39.0742 39.7148 38.9102 39.8789C38.7461 40.043 38.5469 40.125 38.3125 40.125H34.2344C34.1172 40.125 34.0117 40.0781 33.918 39.9844C33.8477 39.9141 33.8125 39.8203 33.8125 39.7031V35.7656C33.8125 35.6484 33.7656 35.5547 33.6719 35.4844C33.6016 35.3906 33.5078 35.3438 33.3906 35.3438H30.8594C30.7422 35.3438 30.6367 35.3906 30.543 35.4844C30.4727 35.5547 30.4375 35.6484 30.4375 35.7656V39.7031C30.4375 39.8203 30.3906 39.9141 30.2969 39.9844C30.2266 40.0781 30.1328 40.125 30.0156 40.125H25.9375C25.7031 40.125 25.5039 40.043 25.3398 39.8789C25.1758 39.7148 25.0938 39.5156 25.0938 39.2812V34.2539C25.0938 34.1133 25.1406 33.9961 25.2344 33.9023L31.8438 28.4883C31.9375 28.418 32.0312 28.3828 32.125 28.3828C32.2188 28.3828 32.3125 28.418 32.4062 28.4883L39.0156 33.9023C39.1094 33.9961 39.1562 34.1133 39.1562 34.2539ZM42.1094 32.1094L39.1562 29.6836V24.7969C39.1562 24.6797 39.1094 24.5859 39.0156 24.5156C38.9453 24.4219 38.8516 24.375 38.7344 24.375H36.7656C36.6484 24.375 36.543 24.4219 36.4492 24.5156C36.3789 24.5859 36.3438 24.6797 36.3438 24.7969V27.3633L33.2148 24.7617C32.8867 24.5039 32.5234 24.375 32.125 24.375C31.7266 24.375 31.375 24.5039 31.0703 24.7617L22.1406 32.1094C22.0703 32.1797 22.0234 32.2734 22 32.3906C22 32.5078 22.0352 32.6133 22.1055 32.707L22.9844 33.7969C23.0547 33.8906 23.1484 33.9375 23.2656 33.9375C23.3828 33.9375 23.4883 33.9023 23.582 33.832L31.8438 27.0469C31.9375 26.9766 32.0312 26.9414 32.125 26.9414C32.2188 26.9414 32.3125 26.9766 32.4062 27.0469L40.668 33.832C40.7617 33.9023 40.8672 33.9375 40.9844 33.9375C41.1016 33.9375 41.1953 33.8906 41.2656 33.7969L42.1445 32.707C42.2148 32.6133 42.2383 32.5078 42.2148 32.3906C42.2148 32.2734 42.1797 32.1797 42.1094 32.1094Z" fill="#392CD1"/>
<defs>
<filter id="filter0_d" x="0" y="0" width="64" height="64" filterUnits="userSpaceOnUse" color-interpolation-filters="sRGB">
<feFlood flood-opacity="0" result="BackgroundImageFix"/>
<feColorMatrix in="SourceAlpha" type="matrix" values="0 0 0 0 0 0 0 0 0 0 0 0 0 0 0 0 0 0 127 0"/>
<feOffset/>
<feGaussianBlur stdDeviation="4"/>
<feColorMatrix type="matrix" values="0 0 0 0 0 0 0 0 0 0 0 0 0 0 0 0 0 0 0.1 0"/>
<feBlend mode="normal" in2="BackgroundImageFix" result="effect1_dropShadow"/>
<feBlend mode="normal" in="SourceGraphic" in2="effect1_dropShadow" result="shape"/>
</filter>
</defs>
</svg>
