<?xml version="1.0" encoding="UTF-8"?>
<svg width="563px" height="563px" viewBox="0 0 563 563" version="1.1" xmlns="http://www.w3.org/2000/svg" xmlns:xlink="http://www.w3.org/1999/xlink">
    <!-- Generator: Sketch 52.1 (67048) - http://www.bohemiancoding.com/sketch -->
    <title>Illustration One</title>
    <desc>Created with Sketch.</desc>
    <g id="Page-1" stroke="none" stroke-width="1" fill="none" fill-rule="evenodd">
        <g id="Illustration-One">
            <path d="M281.642,562.535 C436.998,562.535 562.939,436.641 562.939,281.342 C562.939,126.043 436.998,0.1484 281.642,0.1484 C126.285,0.1484 0.344,126.043 0.344,281.342 C0.344,436.641 126.285,562.535 281.642,562.535 Z" id="Path" fill="#EFEFEF"></path>
            <path d="M242.494,442.102 L240.991,458.724 C240.991,458.724 248.911,464.56 262.616,462.149 L263.135,449.561 L242.494,442.102 Z" id="Path" fill="#FFDFD2"></path>
            <path d="M240.736,436.615 L240.728,436.614 C239.517,436.512 238.452,437.412 238.351,438.623 L233.735,493.682 C233.634,494.893 234.534,495.957 235.745,496.059 L235.753,496.059 C236.964,496.161 238.029,495.261 238.131,494.05 L242.746,438.991 C242.848,437.78 241.948,436.716 240.736,436.615 Z" id="Path" fill="#957FEF"></path>
            <path d="M239.894,204.518 C239.894,204.518 223.364,212.781 217.353,198.509 C211.342,184.238 221.11,185.741 221.11,185.741 C221.11,185.741 216.601,179.732 217.353,176.727 C218.104,173.723 214.347,162.456 229.375,163.958 C229.375,163.958 231.629,163.958 232.381,153.443 C233.132,142.927 251.917,145.18 251.917,145.18 C251.917,145.18 255.674,141.425 266.193,142.176 C276.712,142.927 275.961,148.936 275.961,148.936 C275.961,148.936 282.724,145.932 288.735,153.443 C294.746,160.954 289.486,164.709 289.486,164.709 C289.486,164.709 300.757,168.465 299.254,174.474 C297.751,180.483 297,180.483 295.497,181.985 C293.994,183.487 302.26,185.741 297.751,194.003 C293.243,202.265 283.655,199.741 283.655,199.741" id="Path" fill="#7161EF"></path>
            <path d="M251.165,235.314 C251.165,235.314 250.414,233.812 252.668,231.558 C253.761,230.37 255.059,229.388 256.5,228.659 C256.5,228.659 253.419,235.314 251.165,235.314 Z" id="Path" fill="#CE8AFF"></path>
            <path d="M176.868,338.734 C176.868,338.734 143.717,333.709 138.87,369.327 C134.024,404.945 251.165,446.158 292.897,459.768 C292.897,459.768 299.825,427.711 307.174,427.936 C307.174,427.936 305.017,424.669 312.937,436.732 L334.63,429.784 C334.63,429.784 430.807,381.856 431.656,358.511 C432.505,335.167 421.047,322.525 409.626,320.895 C398.205,319.266 396.198,317.891 373.01,320.895 C349.823,323.9 176.868,338.734 176.868,338.734 Z" id="Path" fill="#B79CED"></path>
            <path d="M274.609,229.305 C274.609,229.305 281.612,228.456 283.723,231.558 C285.834,234.66 284.955,234.563 284.955,234.563 C284.955,234.563 274.458,231.138 274.609,229.305 Z" id="Path" fill="#CE8AFF"></path>
            <path d="M240.42,198.156 C239.659,197.546 238.771,197.115 237.821,196.894 C237.524,196.823 237.215,196.823 236.919,196.894 C236.646,197.003 236.413,197.192 236.251,197.436 C236.088,197.68 236.004,197.968 236.01,198.261 C236.029,198.845 236.191,199.415 236.483,199.921 C237.32,201.58 238.453,203.072 239.827,204.323 C241.142,205.525 242.832,206.133 244.155,207.282" id="Path" fill="#FFDFD2"></path>
            <path d="M239.526,238.897 C239.241,239.715 227.887,239.948 226.858,240.046 C219.509,240.752 212.206,241.616 204.88,242.524 C203.317,242.653 201.777,242.979 200.296,243.493 C198.341,244.372 196.611,245.685 195.239,247.332 C191.813,251.14 189.454,255.774 187.335,260.438 C181.234,273.921 178.235,288.425 176.575,303.064 C175.673,311.026 175.132,319.025 174.524,327.017 C174.223,331.088 174.373,335.279 176.868,338.734 C179.168,342.087 182.326,344.761 186.012,346.478 C189.935,348.273 193.939,349.851 197.944,351.451 C202.691,353.323 207.574,354.83 212.551,355.957 C215.056,356.543 217.593,357.066 220.163,357.527 C221.404,357.802 222.658,358.012 223.92,358.158 C224.461,358.196 226.009,357.873 226.332,358.526 C226.332,358.526 203.738,312.926 203.039,310.335 C202.34,307.743 203.79,294.231 205.053,293.059 L206.405,298.7 C206.405,298.7 208.93,294.622 225.19,294.509 C241.45,294.396 272.144,292.466 272.144,292.466 C272.144,292.466 272.437,252.251 269.995,250.298 L259.25,259.92 C259.25,259.92 237.407,244.898 239.526,238.897 Z" id="Path" fill="#7161EF"></path>
            <path d="M256.643,228.253 C256.643,228.253 242.366,230.702 240.03,237.056 C239.338,238.789 239.183,240.689 239.585,242.51 C239.987,244.332 240.927,245.991 242.284,247.272 L259.213,259.92 L269.95,250.336 L251.165,235.314 C251.165,235.314 250.309,234.105 252.668,231.558 C252.668,231.558 254.922,229.305 256.5,228.659 L256.643,228.253 Z" id="Path" fill="#DEC0F1"></path>
            <path d="M204.279,294.914 C204.279,294.914 204.887,286.878 205.443,286.878 C205.999,286.878 205.857,295.328 205.857,295.328 L204.279,294.914 Z" id="Path" fill="#EFD9CE"></path>
            <path d="M371.951,278.127 C365.94,266.643 360.35,254.843 352.843,244.222 C347.929,237.289 339.731,225.835 329.926,226.556 C310.758,227.975 290.809,232.783 290.809,232.783 C298.51,252.229 277.87,259.267 277.87,259.267 L269.95,250.336 L272.099,292.503 C272.099,292.503 349.68,286.615 352.7,291.144 C355.721,295.673 340.047,347.868 340.047,347.868 L365.324,328.452 C365.324,328.452 377.406,319.866 379.863,306.669 C381.734,296.612 376.489,286.75 371.951,278.127 Z" id="Path" fill="#B79CED"></path>
            <g id="Group" opacity="0.65" transform="translate(270.000000, 227.000000)" fill="#FFFFFF">
                <polygon id="Path" points="1.821 60.486 1.904 62.048 13.174 64.685 18.352 64.354"></polygon>
                <path d="M0.837,41.198 C3.091,38.193 5.54,35.189 8.05,32.184 L7.87,32.252 L6.93,31.185 C4.789,33.716 2.685,36.293 0.724,38.862 L0.837,41.198 Z" id="Path"></path>
                <path d="M110.246,75.621 C107.801,75.063 105.392,74.355 103.033,73.503 C104.468,68.847 105.474,64.07 106.039,59.232 C105.64,58.353 105.22,57.474 104.791,56.61 C104.331,62.161 103.273,67.646 101.635,72.969 C98.178,71.657 94.806,70.131 91.537,68.403 C92.168,60.636 93.04,53.073 93.791,46.943 L94.061,46.943 C95.935,46.823 97.793,46.738 99.637,46.688 L98.885,45.186 C97.277,45.231 95.647,45.299 94.001,45.404 C94.385,42.399 94.753,39.763 95.023,37.727 L93.829,35.474 C93.498,37.727 93.002,41.213 92.453,45.524 C87.945,45.854 83.272,46.418 78.538,47.236 C83.512,36.909 86.803,27.805 85.931,21.811 C84.93,20.279 83.913,18.777 82.881,17.305 L81.611,15.525 C74.969,12.002 66.44,18.852 56.687,29.105 C55.185,24.26 54.005,19.964 53.073,16.163 C59.174,10.8 64.021,5.527 66.38,0.848 C65.937,0.653 65.486,0.472 65.028,0.322 C62.856,4.618 58.378,9.508 52.682,14.541 C51.536,9.935 50.737,5.25 50.293,0.525 L48.858,0.705 C49.329,5.714 50.178,10.681 51.398,15.562 C47.979,18.499 44.177,21.481 40.209,24.403 C34.612,17.59 30.734,11.874 28.465,7.698 C29.293,6.462 29.962,5.127 30.456,3.725 L28.781,4.063 C28.461,4.792 28.089,5.497 27.669,6.173 C27.361,5.55 27.113,4.979 26.917,4.446 L25.415,4.761 C25.799,5.74 26.235,6.698 26.722,7.63 C25.595,9.29 24.145,11.161 22.499,13.159 C22.556,13.956 22.556,14.757 22.499,15.555 C24.468,13.204 26.196,11.048 27.548,9.095 C30.928,14.792 34.765,20.206 39.022,25.281 C25.189,35.346 9.62,44.645 1.295,49.445 L1.385,51.142 C9.598,46.448 25.685,36.916 39.999,26.461 C41.457,28.218 43.005,29.968 44.507,31.681 C45.89,33.236 47.513,35.023 49.399,36.976 L46.784,39.861 C39.075,48.491 30.862,57.669 22.74,64.099 L25.302,63.941 C32.996,57.542 40.668,48.964 47.904,40.867 L50.398,38.073 C53.644,41.423 57.499,45.186 61.849,49.047 C62.082,49.685 62.315,50.316 62.548,50.924 C52.401,53.91 42.658,58.128 33.537,63.483 L36.851,63.318 C45.154,58.697 53.947,55.017 63.067,52.344 C64.735,56.768 66.14,60.291 67.004,62.401 L68.634,62.401 C67.838,60.456 66.343,56.723 64.532,51.886 L65.005,51.751 C67.132,53.561 69.356,55.371 71.67,57.151 C70.738,58.886 69.792,60.629 68.845,62.371 L70.543,62.371 C71.329,60.919 72.108,59.48 72.88,58.052 C75.134,59.742 77.448,61.41 79.838,63.01 C81.34,63.265 82.362,63.603 82.655,64.039 C82.825,64.347 82.93,64.687 82.963,65.038 C84.466,66.007 86.044,66.961 87.622,67.862 C88.388,68.303 89.155,68.731 89.921,69.146 C89.621,73.037 89.373,76.973 89.23,80.796 L81.123,78.911 C81.017,79.391 80.912,79.88 80.799,80.375 L89.17,82.328 C88.981,87.205 89.039,92.089 89.343,96.96 C84.78,102.886 79.113,107.872 72.654,111.644 C72.454,112.365 72.259,113.049 72.068,113.695 C78.782,110.042 84.721,105.118 89.553,99.198 C89.739,101.221 90.06,103.228 90.515,105.207 L91.785,104.231 C91.329,102.033 91.022,99.807 90.868,97.568 C93.928,93.552 96.56,89.227 98.72,84.664 L107.571,86.722 C107.789,86.272 107.992,85.798 108.188,85.325 L99.366,83.267 C100.585,80.572 101.658,77.814 102.582,75.005 C105.065,75.894 107.599,76.631 110.171,77.213 C110.209,76.665 110.239,76.132 110.246,75.621 Z M50.361,35.857 C48.542,33.949 46.942,32.199 45.582,30.682 C44.014,28.924 42.541,27.222 41.164,25.574 C44.921,22.81 48.497,19.986 51.773,17.177 C52.833,21.488 54.103,25.935 55.455,30.291 C53.795,32.064 52.096,33.934 50.361,35.857 Z M51.405,36.939 C52.908,35.234 54.471,33.559 55.974,31.944 C57.536,36.894 59.189,41.708 60.752,46.02 C57.251,42.865 54.11,39.733 51.405,36.939 Z M63.157,48.205 C61.248,43 59.122,36.939 57.146,30.697 C67.259,20.009 76.329,12.595 82.325,17.815 C87.254,22.104 83.302,33.882 76.637,47.537 C72.9,48.238 69.143,49.102 65.366,50.128 C64.615,49.467 63.886,48.821 63.157,48.183 L63.157,48.205 Z M72.406,55.867 C70.468,54.364 68.597,52.862 66.794,51.36 C69.874,50.549 72.887,49.858 75.81,49.294 C74.723,51.438 73.589,53.621 72.406,55.844 L72.406,55.867 Z M88.388,66.645 C83.247,63.677 78.303,60.38 73.586,56.776 C75.006,54.102 76.366,51.473 77.629,48.904 C82.448,48.031 87.308,47.402 92.19,47.019 C91.439,52.93 90.688,60.133 90.042,67.569 L88.388,66.645 Z M90.725,95.247 C90.53,91.492 90.537,87.218 90.725,82.764 L97.27,84.266 C95.42,88.107 93.229,91.774 90.725,95.225 L90.725,95.247 Z M97.886,82.899 L90.74,81.239 C90.883,77.566 91.116,73.781 91.409,70.018 C94.576,71.684 97.837,73.164 101.177,74.449 C100.241,77.319 99.143,80.132 97.886,82.877 L97.886,82.899 Z" id="Shape" fill-rule="nonzero"></path>
            </g>
            <path d="M269.95,250.336 L277.892,259.304 C277.892,259.304 291.072,254.843 293.063,244.124 C295.054,233.406 287.923,230.604 287.923,230.604 C286.4,229.935 284.821,229.402 283.204,229.012 C280.387,228.328 277.464,228.584 274.601,228.817 C274.464,228.818 274.328,228.836 274.195,228.869 C274.327,229.037 274.472,229.193 274.631,229.335 C274.631,229.335 278.659,228.959 280.815,229.726 C282.972,230.492 284.572,231.769 284.978,234.593 C285.391,237.597 281.694,242.742 280.161,243.929 C277.118,246.591 273.671,248.753 269.95,250.336 Z" id="Path" fill="#DEC0F1"></path>
            <path d="M343.316,286.472 L339.559,270.946 C339.559,270.946 338.882,268.866 338.574,270.458 C338.266,272.051 341.88,287.178 341.88,287.178 L343.316,286.472 Z" id="Path" fill="#EFD9CE"></path>
            <path d="M254.749,215.162 C254.749,215.162 259.431,221.043 257.176,227.052 C254.922,233.061 251.165,235.314 251.165,235.314 L269.95,250.336 C269.95,250.336 284.978,244.327 284.978,234.563 C284.978,233.962 280.597,232.219 280.004,231.926 C278.223,231.025 276.412,229.981 275.315,228.253 C274.544,226.862 274.063,225.329 273.902,223.747 C273.546,221.686 273.387,219.596 273.429,217.505 C273.481,216.04 273.429,212.615 274.977,211.812 C278.779,209.776 254.749,215.162 254.749,215.162 Z" id="Path" fill="#FCC7B4"></path>
            <path d="M271.535,168.585 C271.348,168.733 271.184,168.908 271.047,169.103 C266.456,175.03 260.467,178.823 252.645,177.441 C250.718,177.062 248.724,177.229 246.887,177.925 C245.051,178.621 243.446,179.816 242.254,181.377 C239.947,184.336 239.105,188.242 239.301,191.982 C239.626,195.723 240.557,199.386 242.058,202.828 C243.388,206.178 245.064,209.588 248.07,211.661 C250.188,213.119 251.706,214.26 254.178,214.996 C256.859,215.671 259.611,216.021 262.376,216.04 C264.677,215.998 266.945,215.487 269.041,214.538 C270.913,213.825 272.742,213.002 274.518,212.074 C277.875,210.095 280.543,207.132 282.16,203.587 C284.264,199.2 285.03,194.288 285.496,189.443 C285.857,185.688 286.045,181.865 285.136,178.214 C284.226,174.564 282.055,171.071 278.711,169.336 C276.815,168.35 274.659,167.98 272.542,168.277 C272.186,168.296 271.841,168.401 271.535,168.585 Z" id="Path" fill="#FFDFD2"></path>
            <path d="M205.113,294.817 L347.343,286.232 C348.498,286.173 349.651,286.384 350.709,286.85 C351.767,287.315 352.702,288.022 353.439,288.913 C354.176,289.804 354.694,290.855 354.951,291.982 C355.209,293.109 355.2,294.28 354.925,295.403 L340.04,357.745 C339.755,358.959 339.081,360.046 338.121,360.841 C337.16,361.635 335.966,362.094 334.72,362.146 L231.028,366.12 C229.857,366.161 228.699,365.856 227.701,365.243 C226.702,364.63 225.907,363.735 225.415,362.672 L198.778,305.67 C198.245,304.552 197.993,303.321 198.045,302.083 C198.097,300.845 198.45,299.639 199.074,298.569 C199.699,297.499 200.575,296.598 201.628,295.944 C202.68,295.29 203.876,294.903 205.113,294.817 Z" id="Path" stroke="#DEC0F1" fill="#DEC0F1"></path>
            <path d="M307.204,427.936 C307.204,427.936 236.07,369.658 211.169,369.981 C211.049,369.982 210.934,370.026 210.843,370.104 C210.752,370.182 210.692,370.289 210.672,370.407 C210.652,370.525 210.675,370.647 210.735,370.75 C210.796,370.853 210.891,370.932 211.003,370.972 C226.414,376.327 241.226,383.27 255.2,391.688 C278.944,406.252 302.44,427.688 304.889,428.875 L307.204,427.936 Z" id="Path" fill="#957FEF"></path>
            <path d="M288.81,413.568 C288.81,413.568 360.455,355.266 376.722,356.258 C379.848,356.453 367.706,359.841 344.3,374.014 C320.293,388.54 289.944,414.431 290.072,414.521 C290.32,414.717 288.81,413.568 288.81,413.568 Z" id="Path" fill="#957FEF"></path>
            <path d="M297.233,442.891 C293.318,453.309 290.155,462.675 296.204,464.943 C302.252,467.212 307.347,460.264 311.231,449.854 C315.116,439.443 316.401,429.514 310.352,427.238 C304.304,424.962 301.148,432.48 297.233,442.891 Z" id="Path" fill="#DEC0F1"></path>
            <path d="M314.5,436.732 C314.5,436.732 339.453,445.392 340.137,447.878 C340.821,450.364 330.858,478.539 330.858,478.539 L308.09,472.357 C308.09,472.357 312.471,463.426 311.269,462.224 C310.067,461.023 307.204,458.469 307.204,458.469" id="Path" fill="#FFDFD2"></path>
            <path d="M346.106,446.902 C346.454,445.925 345.946,444.851 344.97,444.504 C343.995,444.157 342.922,444.667 342.574,445.644 L319.824,509.511 C319.476,510.488 319.984,511.562 320.96,511.909 C321.935,512.256 323.008,511.745 323.356,510.769 L346.106,446.902 Z" id="Path" fill="#957FEF"></path>
            <path d="M308.09,472.364 L308.842,471.088 L309.33,469.698 C307.286,469.307 307.219,469.698 307.219,469.698 C307.219,469.698 306.903,471.846 308.09,472.364 Z" id="Path" fill="#392CD1"></path>
            <path d="M330.858,478.546 L308.09,472.364 C307.835,472.297 307.572,471.839 307.414,471.501 C307.203,470.951 307.131,470.358 307.204,469.773 C307.204,468.053 301.644,499.352 308.399,504.557 C315.154,509.762 319.782,509.529 319.782,509.529" id="Path" fill="#7161EF"></path>
            <path d="M312.629,497.797 C315.341,498.443 318.723,499.419 322.885,500.847 L323.396,499.427 C319.241,498 315.822,497.008 313.027,496.34 C313.147,495.934 313.268,495.529 313.395,495.116 C316.236,494.657 318.956,494.267 321.398,493.966 C322.652,494.304 323.87,494.612 325.027,494.868 L326.049,492.006 C324.629,492.096 323.088,492.239 321.473,492.419 C319.414,491.856 317.212,491.187 314.981,490.466 C315.191,489.91 315.401,489.347 315.627,488.769 C316.461,486.621 317.34,484.555 318.152,482.715 C320.882,484.302 323.942,486.202 327.334,488.416 L327.844,486.981 C325.147,485.223 321.991,483.226 318.768,481.348 C319.895,478.869 320.842,476.931 321.33,475.962 L318.865,475.294 C316.952,476.344 314.983,477.289 312.967,478.126 C310.794,476.983 308.55,475.979 306.25,475.121 C306.182,475.617 306.114,476.135 306.039,476.683 C307.437,477.209 309.09,477.93 311.043,478.937 C309.3,479.569 307.486,479.985 305.641,480.176 C305.588,480.672 305.543,481.175 305.498,481.678 C308.035,481.423 310.52,480.79 312.869,479.8 C314.097,480.441 315.419,481.165 316.837,481.971 C315.777,484.36 314.583,487.139 313.553,490.008 C310.638,489.047 307.737,488.025 305.13,487.049 C305.13,487.574 305.092,488.108 305.077,488.634 C307.136,489.385 309.961,490.406 313.035,491.435 C312.764,492.186 312.501,492.99 312.283,493.771 C309.721,494.199 307.302,494.642 305.235,495.04 C305.273,495.589 305.325,496.13 305.386,496.655 C307.344,496.771 309.289,497.049 311.201,497.489 C310.42,500.184 310.055,502.983 310.119,505.789 C310.683,506.164 311.224,506.54 311.75,506.818 C311.276,504.752 311.607,501.718 312.629,497.797 Z M314.68,479.019 C316.446,478.268 318.046,477.427 319.234,476.766 C318.753,477.765 318.137,479.019 317.453,480.522 C316.536,480.048 315.597,479.53 314.68,479.034 L314.68,479.019 Z M314.47,491.871 C315.537,492.224 316.619,492.562 317.708,492.892 C316.446,493.073 315.176,493.268 313.951,493.463 C314.094,492.945 314.282,492.434 314.47,491.886 L314.47,491.871 Z M309.961,495.671 L311.72,495.371 L311.539,495.987 C311.003,495.877 310.487,495.777 309.992,495.686 L309.961,495.671 Z" id="Shape" fill="#D1CFFF" fill-rule="nonzero"></path>
            <path d="M240.991,458.724 C240.991,458.724 250.316,465.124 263.496,461.181 C263.496,461.181 267.951,492.532 238.001,494.672 L240.991,458.724 Z" id="Path" fill="#7161EF"></path>
            <g id="Group" opacity="0.62" transform="translate(238.000000, 462.000000)" fill="#DEC0F1">
                <path d="M18.357,24.621 C18.447,24.553 18.786,24.268 19.304,23.809 C20.705,22.105 21.875,20.224 22.783,18.214 C22.197,18.86 21.626,19.476 21.077,20.031 C17.035,16.644 12.061,11.356 7.936,7.045 L7.658,6.752 C10.145,4.564 12.834,2.617 15.69,0.938 C18.919,4.747 21.898,8.762 24.609,12.956 C24.782,12.25 24.932,11.544 25.06,10.853 C22.653,7.257 20.047,3.799 17.253,0.495 C16.111,0.511 14.969,0.455 13.834,0.33 C11.29,1.925 8.873,3.716 6.606,5.685 C5.193,4.183 3.84,2.778 2.593,1.516 L2.428,3.492 C3.405,4.498 4.427,5.565 5.433,6.669 C4.359,7.623 3.33,8.584 2.353,9.523 L1.902,9.343 L1.654,12.347 L2.661,11.348 C7.597,14.045 14.428,21.263 17.208,24.493 C12.978,23.644 8.703,23.04 4.404,22.683 C3.209,22.563 2.022,22.457 0.857,22.36 L0.737,23.862 C6.284,24.254 11.803,24.964 17.268,25.988 C17.689,25.597 18.094,25.191 18.485,24.778 L18.275,24.718 L18.357,24.621 Z M17.959,22.991 C16.922,21.819 14.382,19.01 11.445,16.231 C9.134,13.951 6.576,11.935 3.818,10.222 C4.682,9.403 5.591,8.562 6.523,7.736 L6.846,8.081 C11.993,13.512 16.419,18.086 20.003,21.098 C19.176,21.932 18.425,22.585 17.959,22.991 Z" id="Shape" fill-rule="nonzero"></path>
                <path d="M0.279,29.33 L0.151,30.832 C1.331,30.832 2.653,30.885 4.051,30.885 C5.719,30.885 7.492,30.885 9.258,30.772 C10.591,30.287 11.881,29.689 13.113,28.985 C8.845,29.342 4.56,29.458 0.279,29.33 Z" id="Path"></path>
            </g>
            <path d="M263.496,461.181 C263.246,461.027 262.951,460.966 262.661,461.008 L262.661,461.421 L263.496,461.181 Z" id="Path" fill="#392CD1"></path>
            <path d="M81.96,312.07 C81.844,312.666 81.828,313.278 81.915,313.88 C81.915,313.97 82.028,314.038 82.065,314.128 C82.103,314.257 82.167,314.377 82.253,314.481 C82.347,314.578 82.456,314.659 82.576,314.721 C82.873,314.795 83.182,314.813 83.485,314.774 C83.868,314.774 84.237,314.774 84.627,314.774 C85.379,314.774 86.19,314.669 86.972,314.579 C88.475,314.406 89.977,314.15 91.533,313.895 C95.503,313.291 99.396,312.256 103.142,310.808 C104.347,310.344 105.511,309.778 106.621,309.118 C107.233,308.84 107.828,308.524 108.401,308.172 C108.826,307.837 109.165,307.407 109.393,306.917 C109.45,306.718 109.45,306.508 109.393,306.309 C109.334,306.02 109.188,305.755 108.974,305.551 C108.761,305.347 108.49,305.213 108.198,305.167" id="Path" fill="#7161EF"></path>
            <path d="M78.068,297.859 C78.068,297.859 78.068,296.86 80.818,296.221 C80.818,296.221 87.355,293.728 92.374,292.316 C96.32,291.27 100.36,290.613 104.434,290.355 C104.434,290.355 96.289,295.275 95.643,295.523 C94.997,295.771 78.661,299.564 78.068,297.859 Z" id="Path" fill="#7161EF"></path>
            <path d="M78.601,297.235 C81.607,297.235 94.891,296.852 104.066,290.438 C104.125,290.395 104.193,290.367 104.264,290.356 C104.336,290.345 104.41,290.351 104.479,290.374 C104.548,290.396 104.61,290.435 104.661,290.487 C104.712,290.538 104.75,290.601 104.772,290.671 C105.681,293.623 109.566,307.128 110.949,326.807 C110.956,326.945 110.935,327.083 110.885,327.212 C110.836,327.342 110.76,327.459 110.663,327.558 C109.371,328.812 103.998,333.139 91.195,332.778 C91.014,332.773 90.837,332.719 90.685,332.621 C90.533,332.523 90.41,332.385 90.33,332.222 C88.73,328.872 80.187,310.643 78.068,297.836 C78.059,297.761 78.067,297.685 78.09,297.613 C78.113,297.54 78.151,297.474 78.201,297.417 C78.251,297.361 78.313,297.315 78.382,297.284 C78.451,297.252 78.526,297.236 78.601,297.235 Z" id="Path" fill="#DEC0F1"></path>
            <path d="M101.924,331.268 C101.381,329.857 100.733,328.489 99.986,327.175 C102.586,326.093 105.118,324.989 107.349,324.005 C108.101,325.627 108.785,327.182 109.356,328.647 C109.589,328.482 109.799,328.316 109.979,328.174 C109.423,326.769 108.777,325.267 108.048,323.667 L110.603,322.518 C110.603,322.247 110.55,321.985 110.528,321.722 L107.725,322.976 C105.802,318.961 103.673,315.047 101.346,311.251 C102.773,310.2 104.186,309.186 105.531,308.247 C106.771,308.818 107.943,309.373 109.025,309.892 C108.972,309.584 108.927,309.283 108.875,308.983 C108.048,308.585 107.169,308.164 106.245,307.736 L108.401,306.234 C108.349,305.956 108.304,305.693 108.251,305.423 L105.463,307.42 C103.329,306.437 101,305.4 98.611,304.416 C99.558,303.5 100.467,302.568 101.323,301.629 C103.313,301.191 105.35,301.004 107.387,301.074 C107.327,300.811 107.274,300.548 107.222,300.322 C105.532,300.263 103.841,300.391 102.18,300.706 C103.591,299.107 104.913,297.432 106.14,295.688 L105.884,294.697 C104.373,296.886 102.717,298.972 100.925,300.938 C99.52,301.231 97.965,301.637 96.236,302.178 L96.199,300.307 C99.956,297.078 103.292,294.359 105.396,292.886 C105.328,292.624 105.261,292.383 105.193,292.135 C102.068,294.376 99.059,296.772 96.176,299.316 L96.071,294.449 L95.32,294.704 L95.432,299.962 L94.23,300.999 C93.794,300.443 93.359,299.894 92.915,299.361 L94.824,294.854 L93.892,295.14 L92.389,298.693 C91.613,297.771 90.836,296.9 90.06,296.079 L89.211,296.244 C90.143,297.215 91.097,298.282 92.074,299.444 L91.172,301.554 C88.226,300.474 85.192,299.652 82.103,299.098 C81.705,298.43 81.351,297.791 80.998,297.175 L80.157,297.175 C80.465,297.739 80.795,298.325 81.156,298.94 C80.199,298.823 79.232,298.8 78.271,298.873 C78.316,299.113 78.361,299.346 78.413,299.586 C78.691,299.586 78.984,299.541 79.308,299.541 C80.08,299.546 80.851,299.606 81.614,299.722 C82.756,301.629 84.111,303.783 85.679,306.181 C84.132,306.872 82.501,307.643 80.788,308.495 C80.863,308.735 80.938,308.975 81.021,309.246 C82.809,308.359 84.5,307.561 86.093,306.85 L86.626,307.668 C84.92,309.171 83.365,310.605 82.118,311.754 L81.862,311.679 C81.975,312.017 82.095,312.348 82.208,312.686 L82.328,312.573 C83.247,312.716 84.182,312.716 85.101,312.573 C85.608,312.499 86.11,312.391 86.604,312.25 L84.169,317.981 C84.297,318.319 84.432,318.65 84.56,318.98 L87.565,311.95 C88.076,311.77 88.578,311.564 89.068,311.334 L89.895,312.573 C90.849,314.008 91.811,315.457 92.742,316.877 C89.737,319.266 87.603,321.136 86.063,322.608 C86.16,322.856 86.265,323.111 86.371,323.359 C88.181,321.624 90.548,319.604 93.133,317.523 C94.095,318.988 95.034,320.43 95.906,321.812 L96.041,327.956 L94.538,328.534 L87.4,325.883 C87.543,326.206 87.678,326.529 87.821,326.837 L93.479,328.94 C92.066,329.481 90.706,329.969 89.429,330.442 C89.549,330.682 89.654,330.908 89.752,331.118 C91.255,330.615 92.878,330.021 94.553,329.375 L96.056,329.931 L96.116,332.725 L96.868,332.665 L96.815,330.209 L101.323,331.884 L101.323,331.974 C101.827,331.862 102.3,331.749 102.758,331.621 L101.924,331.268 Z M95.462,300.871 L95.462,302.373 L95.32,302.418 L94.666,301.562 L95.462,300.871 Z M94.613,302.636 L94.426,302.704 L93.674,302.418 L94.14,302.012 L94.613,302.636 Z M92.622,300.06 C92.983,300.503 93.374,300.953 93.704,301.419 L92.893,302.125 L91.901,301.765 L92.622,300.06 Z M93.374,303.064 L92.667,303.327 L93.081,302.959 L93.374,303.064 Z M91.638,302.433 L92.284,302.666 L91.097,303.702 L91.638,302.433 Z M86.378,305.881 C85.026,303.8 83.733,301.765 82.621,299.872 C85.444,300.423 88.22,301.192 90.924,302.17 L90.007,304.341 C88.805,304.837 87.61,305.347 86.348,305.918 L86.378,305.881 Z M89.083,306.459 L88.114,308.63 L87.558,307.789 L89.083,306.459 Z M87.205,307.135 L86.799,306.519 C87.55,306.196 88.234,305.896 88.918,305.61 L87.205,307.135 Z M87.009,311.349 L86.874,311.394 C85.646,311.805 84.349,311.971 83.057,311.882 C84.349,310.703 85.694,309.494 87.054,308.269 C87.302,308.652 87.558,309.02 87.806,309.433 L87.009,311.349 Z M87.971,311.003 L88.317,310.185 L88.662,310.703 L87.971,311.003 Z M88.67,309.358 L90.398,305.295 L90.999,304.769 C92.224,304.288 93.374,303.86 94.463,303.485 L95.56,303.913 L95.605,306.091 C93.69,307.782 91.578,309.237 89.316,310.425 L88.67,309.358 Z M90.526,312.152 L89.774,310.996 C91.868,309.896 93.836,308.571 95.643,307.045 L95.801,314.503 C94.936,315.172 94.117,315.803 93.359,316.404 L90.526,312.152 Z M93.764,317.042 C94.433,316.509 95.117,315.976 95.808,315.442 L95.913,320.347 C95.192,319.296 94.471,318.191 93.734,317.065 L93.764,317.042 Z M95.673,328.91 L96.094,328.745 L96.094,329.068 L95.673,328.91 Z M104.78,307.879 C103.577,308.735 102.3,309.659 100.978,310.62 C99.873,308.84 98.723,307.083 97.544,305.362 L98.04,304.904 C100.346,305.918 102.631,306.925 104.75,307.894 L104.78,307.879 Z M96.259,302.914 C97.619,302.486 98.859,302.163 100.016,301.877 C99.325,302.628 98.603,303.342 97.859,304.056 L96.281,303.417 L96.259,302.914 Z M97.243,304.626 L97.078,304.777 C97.01,304.671 96.935,304.574 96.868,304.476 L97.243,304.626 Z M96.304,304.957 L96.529,305.28 L96.312,305.475 L96.304,304.957 Z M96.304,306.459 L96.928,305.911 L97.281,306.429 C98.31,307.931 99.325,309.494 100.286,311.093 C99.31,311.815 98.32,312.551 97.318,313.302 L96.439,313.97 L96.304,306.459 Z M96.484,314.902 C97.874,313.843 99.295,312.776 100.707,311.739 C102.996,315.492 105.095,319.358 106.996,323.322 C104.742,324.32 102.195,325.432 99.588,326.514 C98.738,325.012 97.739,323.359 96.627,321.601 L96.484,314.902 Z M96.665,323.074 C97.476,324.388 98.235,325.642 98.919,326.829 C98.213,327.13 97.499,327.415 96.792,327.7 L96.665,323.074 Z M96.8,329.383 L96.8,328.482 C97.626,328.151 98.46,327.813 99.287,327.468 C99.918,328.59 100.488,329.746 100.993,330.93 L96.8,329.383 Z" id="Shape" fill="#7161EF" fill-rule="nonzero"></path>
            <path d="M110.949,326.807 C110.949,326.536 110.903,326.266 110.888,325.995 L110.212,327.986 L110.663,327.58 C110.763,327.479 110.841,327.358 110.89,327.225 C110.939,327.091 110.959,326.949 110.949,326.807 Z" id="Path" fill="#7161EF"></path>
            <path d="M86.183,323.705 C85.91,323.582 85.678,323.384 85.514,323.134 C85.332,322.827 85.188,322.499 85.086,322.157 C84.334,319.904 83.583,317.696 82.621,315.54 C82.427,314.97 82.191,314.415 81.915,313.88 C86.821,314.518 91.382,313.82 96.191,312.633 C99.962,311.81 103.623,310.549 107.101,308.878 C108.041,308.397 109.641,307.608 109.438,306.324 L110.062,312.776 C110.167,313.827 110.265,314.879 110.37,315.931 C110.43,316.584 110.881,317.861 110.37,318.417 C110.251,318.535 110.107,318.625 109.949,318.68 C106.034,320.494 101.932,321.875 97.717,322.796 C94.2,323.399 90.644,323.748 87.077,323.84 C86.772,323.865 86.466,323.819 86.183,323.705 Z" id="Path" fill="#957FEF"></path>
            <path d="M94.546,309.982 C97.015,309.982 99.017,307.981 99.017,305.513 C99.017,303.044 97.015,301.044 94.546,301.044 C92.077,301.044 90.075,303.044 90.075,305.513 C90.075,307.981 92.077,309.982 94.546,309.982 Z" id="Path" fill="#B79CED"></path>
            <path d="M72.801,296.95 C72.801,296.95 71.816,291.617 72.53,290.768 C73.244,289.92 88.978,281.432 91.653,281.349 C94.328,281.267 97.341,285.721 97.341,285.721 L72.801,296.95 Z" id="Path" fill="#957FEF"></path>
            <path d="M71.771,297.408 C71.65,297.471 71.545,297.563 71.468,297.675 C71.391,297.788 71.343,297.918 71.328,298.054 C71.245,298.843 70.952,300.127 71.38,300.758 C71.809,301.389 97.461,290.145 101.691,288.267 C101.764,288.234 101.829,288.186 101.88,288.125 C101.932,288.064 101.969,287.993 101.989,287.916 C102.009,287.838 102.012,287.758 101.997,287.68 C101.982,287.601 101.949,287.527 101.902,287.463 C101.233,286.461 100.32,285.644 99.249,285.09 C97.814,284.542 75.137,295.673 71.771,297.408 Z" id="Path" fill="#B79CED"></path>
            <path d="M91.255,295.786 C93.148,294.449 95.012,293.082 96.89,291.707 C99.52,289.754 103.329,287.614 104.78,284.579 C105.02,284.084 105.208,283.565 105.343,283.032 C105.952,280.636 105.561,277.842 107.154,275.956 C107.515,275.536 107.956,275.192 108.451,274.945 C108.947,274.697 109.487,274.551 110.039,274.514 C111.843,274.409 113.3,274.672 114.367,272.952 C115.219,271.397 115.668,269.655 115.675,267.882 C115.682,266.938 115.765,265.996 115.923,265.065 C116.102,264.257 116.406,263.482 116.824,262.767 C117.453,261.587 118.394,260.602 119.544,259.92 C122.55,258.253 126.953,260.063 128.291,263.12 C128.603,263.881 128.751,264.699 128.725,265.521 C128.7,266.343 128.5,267.15 128.14,267.89 C127.405,269.373 126.215,270.583 124.744,271.345 C123.782,271.863 122.738,272.208 121.776,272.727 C120.788,273.196 119.992,273.992 119.522,274.98 C118.56,277.384 120.732,280.08 120.123,282.589 C119.771,283.793 118.962,284.812 117.869,285.428 C115.17,286.951 112.132,287.775 109.033,287.824 C108.084,287.762 107.134,287.903 106.245,288.237 C104.937,288.891 105.403,289.604 104.299,290.49 C103.091,291.41 101.821,292.243 100.497,292.984 C97.614,294.477 94.481,295.427 91.255,295.786 Z" id="Path" fill="#392CD1"></path>
            <path d="M116.291,250.336 C116.432,250.364 116.569,250.412 116.697,250.479 C117.031,250.683 117.31,250.967 117.508,251.305 C118.154,252.251 119.95,258.478 121.581,257.735 C121.782,257.632 121.951,257.476 122.069,257.284 C122.419,256.768 122.621,256.166 122.651,255.543 C122.682,254.92 122.54,254.301 122.242,253.754 C121.967,253.375 121.74,252.963 121.566,252.529 C121.303,251.621 121.896,250.682 122.565,250.006 C123.316,249.415 123.937,248.676 124.391,247.835 C124.902,246.498 124.188,245.018 123.407,243.809 C122.609,242.364 121.401,241.188 119.935,240.429 C118.528,239.959 117.032,239.82 115.562,240.023 C114.803,240.012 114.05,240.171 113.361,240.489 C112.454,241.119 111.789,242.038 111.475,243.095 C110.968,244.181 110.672,245.354 110.603,246.55 C110.578,247.149 110.696,247.745 110.949,248.289 C111.201,248.832 111.58,249.308 112.053,249.675 C113.063,250.216 114.215,250.431 115.352,250.291 C115.665,250.272 115.98,250.287 116.291,250.336 Z" id="Path" fill="#392CD1"></path>
            <path d="M142.544,250.336 C142.416,250.292 142.297,250.226 142.191,250.141 C140.29,248.774 138.171,246.941 137.781,244.492 C137.68,243.515 137.795,242.528 138.115,241.599 C138.436,240.67 138.955,239.822 139.637,239.114 C141.38,237.147 144.145,234.668 146.805,235.952 C147.804,236.37 148.856,236.648 149.931,236.779 C151.373,237.034 152.974,237.582 153.537,238.934 C154.026,240.113 153.537,241.465 152.914,242.585 C152.177,243.91 151.279,245.139 150.239,246.243 C149.487,247.054 148.473,247.85 147.361,247.745 C146.987,247.637 146.595,247.614 146.211,247.677 C145.836,247.812 145.618,248.203 145.392,248.533 C144.831,249.327 144.047,249.937 143.138,250.283 C142.97,250.365 142.782,250.396 142.597,250.374 L142.544,250.336 Z" id="Path" fill="#392CD1"></path>
            <path d="M134.933,273.35 C135.078,273.133 135.239,272.928 135.414,272.734 C136.61,271.402 137.736,270.008 138.788,268.558 C139.471,267.427 140.388,266.454 141.477,265.704 C142.731,265.08 144.163,264.91 145.528,265.223 C146.021,265.272 146.499,265.421 146.933,265.663 C147.366,265.905 147.744,266.233 148.045,266.628 C148.368,267.231 148.516,267.913 148.473,268.596 C148.538,269.774 148.239,270.943 147.616,271.945 C146.564,273.403 144.611,273.876 142.845,274.086 C142.493,274.154 142.131,274.154 141.778,274.086 C141.424,273.971 141.087,273.807 140.779,273.598 C140.238,273.272 139.663,273.005 139.066,272.802 C138.901,272.727 138.718,272.704 138.54,272.734 C138.388,272.783 138.252,272.868 138.141,272.982 C137.796,273.297 134.452,276.167 134.715,273.943 C134.741,273.732 134.816,273.528 134.933,273.35 Z" id="Path" fill="#392CD1"></path>
            <path d="M323.742,161.172 C323.742,161.172 318.655,163.35 322.044,166.009 C325.433,168.668 327.98,164.439 327.98,164.439 C327.98,164.439 329.678,159.715 323.742,161.172 Z" id="Path" fill="#957FEF"></path>
            <path d="M347.23,145.316 C347.23,145.316 342.872,149.552 346.479,151.002 C350.086,152.451 352.174,148.162 352.174,148.162 C352.174,148.162 354.616,141.2 347.23,145.316 Z" id="Path" fill="#957FEF"></path>
            <path d="M373.138,125.584 C373.138,125.584 367.57,123.406 367.691,131.518 C367.811,139.63 376.046,131.518 376.046,131.518 C376.046,131.518 378.466,126.793 373.138,125.584 Z" id="Path" fill="#957FEF"></path>
            <path d="M371.681,109.03 C371.345,108.186 370.922,107.381 370.418,106.626 C368.525,103.809 365.714,101.751 365.977,97.981 C366.18,95.059 368.292,92.55 370.831,91.085 C373.371,89.621 376.294,89.012 379.164,88.434 C377.752,85.506 377.229,82.23 377.658,79.008 C378.087,75.786 379.451,72.761 381.58,70.305 C383.71,67.849 386.512,66.069 389.641,65.187 C392.77,64.304 396.089,64.356 399.189,65.337 C398.646,62.796 398.705,60.163 399.363,57.649 C400.021,55.135 401.259,52.81 402.978,50.861 C404.697,48.911 406.849,47.391 409.261,46.422 C411.673,45.454 414.279,45.063 416.869,45.283 C420.626,45.598 424.263,47.161 427.96,46.59 C429.751,46.183 431.509,45.643 433.219,44.975 C442.364,42.166 453.214,46.973 457.264,55.633 C467.032,54.687 476.95,61.642 479.347,71.189 C479.584,72.633 480.024,74.036 480.654,75.357 C481.361,76.559 482.465,77.46 483.329,78.549 C486.703,82.823 485.133,90.019 480.324,92.505 C484.832,95.389 485.847,102.007 483.472,106.776 C481.098,111.546 476.086,114.588 470.909,115.91 C471.77,118.547 471.812,121.384 471.031,124.046 C470.25,126.708 468.681,129.072 466.532,130.827 C464.382,132.582 461.751,133.646 458.986,133.879 C456.22,134.113 453.448,133.504 451.035,132.134 C450.271,134.759 448.933,137.182 447.117,139.226 C445.301,141.27 443.052,142.885 440.535,143.952 C438.017,145.02 435.293,145.515 432.56,145.4 C429.828,145.285 427.155,144.563 424.736,143.288 C422.226,141.966 419.912,140.035 417.094,139.675 C415.504,139.57 413.906,139.699 412.353,140.058 C406.38,141.057 399.459,140.907 395.274,136.528 C391.81,132.9 391.247,127.342 392.036,122.392 C391.728,124.307 383.244,122.437 382.215,122.046 C378.826,120.779 375.972,118.395 374.123,115.286 C372.965,113.243 372.53,111.103 371.681,109.03 Z" id="Path" fill="#DEC0F1"></path>
            <path d="M424.511,143.152 L424.751,143.288 C427.176,144.537 429.844,145.242 432.57,145.352 C435.296,145.462 438.013,144.976 440.53,143.926 C440.793,143.813 441.056,143.686 441.282,143.558 C435.669,143.49 429.996,143.363 424.511,143.152 Z" id="Path" fill="#7161EF"></path>
            <path d="M378.052,77.363 L391.307,85.565 C383.335,92.452 376.279,99.934 371.125,107.82 C371.327,108.218 371.515,108.624 371.681,109.03 C371.846,109.435 372.026,109.931 372.184,110.382 C372.327,110.134 372.469,109.886 372.627,109.63 C377.789,101.533 385.078,93.857 393.298,86.804 L400.369,91.176 C396.739,97.56 393.208,103.884 390.059,109.683 C383.5,111.373 377.601,112.297 372.778,112.147 C373.031,112.915 373.329,113.667 373.672,114.4 C378.715,114.301 383.731,113.618 388.617,112.364 C386.671,115.992 384.905,119.365 383.402,122.369 C384.026,122.512 384.83,122.685 385.656,122.827 C387.339,119.492 389.338,115.699 391.547,111.621 C400.641,109.087 409.562,105.966 418.252,102.277 L428.343,108.519 L400.045,129.685 C397.115,129.52 394.393,129.282 391.878,128.972 C391.984,129.732 392.14,130.485 392.344,131.225 C393.957,131.415 395.612,131.575 397.31,131.706 L393.681,134.417 C394.065,135.065 394.51,135.673 395.011,136.235 L400.774,131.931 C407.424,132.284 414.6,132.269 421.813,132.021 C419.942,135.025 418.297,137.609 416.967,139.645 L417.079,139.645 C417.831,139.749 418.566,139.951 419.266,140.246 C420.724,137.992 422.527,135.176 424.526,131.908 C437.84,131.338 451.057,130.016 461.141,128.814 L465.522,131.525 C465.852,131.3 466.175,131.067 466.483,130.819 C466.791,130.571 467.084,130.293 467.37,130.016 L464.718,128.371 C466.318,128.168 467.806,127.98 469.181,127.792 C469.682,127.016 470.107,126.194 470.451,125.336 C467.956,125.667 464.98,126.087 461.622,126.455 L436.638,110.99 C437.239,109.878 437.835,108.757 438.426,107.625 C439.548,105.492 440.615,103.404 441.627,101.361 L443.01,100.324 C454.363,108.819 464.8,116.496 471.42,121.355 C471.514,120.426 471.514,119.49 471.42,118.561 C462.974,112.357 453.882,105.619 444.896,98.89 L455.107,91.258 C467.062,98.409 475.395,105.086 479.993,111.133 C480.545,110.638 481.062,110.106 481.541,109.54 C476.326,102.78 467.385,96.073 457.053,89.794 L479.73,72.841 C479.587,72.263 479.467,71.677 479.325,71.106 C479.182,70.535 479.054,70.137 478.889,69.664 C472.697,73.141 461.967,79.038 449.374,85.347 L448.961,85.114 C454.108,72.285 456.557,61.83 456.279,53.778 C455.548,52.586 454.686,51.481 453.71,50.48 C455.1,59.298 451.981,71.406 446.947,84.01 C436.796,78.527 426.089,73.562 416.681,69.514 C428.27,62.121 440.297,55.439 452.695,49.504 C452.075,48.947 451.42,48.43 450.734,47.957 C439.19,53.527 427.969,59.744 417.125,66.577 C422.302,57.736 426.69,50.345 429.147,46.244 C428.741,46.349 428.328,46.439 427.914,46.507 C427.375,46.588 426.83,46.628 426.284,46.627 C423.421,51.427 418.823,59.178 413.555,68.177 C407.897,65.788 402.841,63.768 398.806,62.168 C398.819,63.203 398.935,64.235 399.151,65.247 C398.48,65.036 397.794,64.873 397.1,64.759 C400.106,67.26 403.607,70.017 407.379,73.021 C402.48,76.446 397.611,80.097 393.065,83.942 L378.683,75.042 C378.417,75.799 378.206,76.575 378.052,77.363 Z M393.08,108.864 C395.935,103.606 399.091,98.033 402.285,92.34 L415.9,100.767 C408.448,103.877 400.833,106.58 393.088,108.864 L393.08,108.864 Z M403.404,90.409 C406.109,85.662 408.852,80.893 411.512,76.319 C418.357,81.659 425.923,87.443 433.445,93.121 C428.508,95.412 423.466,97.628 418.462,99.738 L403.404,90.409 Z M423.271,129.715 C416.012,130.016 409.463,130.058 403.622,129.843 L430.432,109.796 L433.663,111.801 C430.041,118.441 426.427,124.585 423.278,129.715 L423.271,129.715 Z M458.068,126.906 C449.652,127.867 439.448,128.859 429.034,129.437 L426.028,129.595 C428.989,124.735 432.31,119.079 435.631,113.003 L458.068,126.906 Z M434.775,109.818 L432.4,108.316 L437.592,104.433 C436.638,106.273 435.691,108.061 434.752,109.818 L434.775,109.818 Z M439.869,99.941 L430.341,107.069 L420.866,101.21 C425.51,99.248 430.399,97.069 435.534,94.676 L440.59,98.476 L439.869,99.941 Z M441.59,96.403 L437.833,93.587 C440.012,92.555 442.163,91.521 444.287,90.485 C443.408,92.46 442.499,94.443 441.567,96.403 L441.59,96.403 Z M470.841,76.784 L455.062,88.599 C454.01,87.976 452.943,87.352 451.869,86.744 C458.947,83.146 465.454,79.699 470.819,76.784 L470.841,76.784 Z M447.473,88.93 C448.119,88.607 448.766,88.291 449.397,87.968 C450.659,88.674 451.886,89.373 453.078,90.064 L443.844,96.974 C445.131,94.205 446.333,91.524 447.451,88.93 L447.473,88.93 Z M414.562,71.121 C421.933,74.276 430.184,78.016 438.329,82.11 C441.049,83.484 443.664,84.844 446.151,86.188 L445.7,87.27 C442.476,88.855 439.163,90.455 435.789,92.039 C427.524,85.82 419.642,79.774 412.684,74.351 L414.562,71.121 Z M402.059,65.961 C405.065,67.14 408.371,68.507 411.97,70.024 C411.106,70.595 410.242,71.181 409.378,71.774 C406.74,69.716 404.283,67.771 402.037,65.961 L402.059,65.961 Z M409.265,74.576 L409.716,74.929 C407.018,79.571 404.231,84.408 401.451,89.238 L395.079,85.294 C399.647,81.501 404.449,77.911 409.265,74.576 Z" id="Shape" fill="#7161EF" fill-rule="nonzero"></path>
            <path d="M400.564,139.705 C403.742,140.585 407.067,140.802 410.332,140.343 C406.755,140.156 403.457,139.923 400.564,139.705 Z" id="Path" fill="#7161EF"></path>
            <path d="M442.95,142.657 C444.115,141.929 445.198,141.078 446.181,140.118 C440.21,140.619 433.605,140.852 426.367,140.817 C424.308,140.817 422.279,140.772 420.288,140.726 C421.685,141.425 423.023,142.334 424.413,143.092 C430.439,143.16 436.758,143.055 442.95,142.657 Z" id="Path" fill="#7161EF"></path>
            <path d="M403.772,218.128 C403.772,218.128 398.513,216.882 394.643,219.586 C394.643,219.586 394.155,243.336 386.145,258.779 C386.145,258.779 417.372,255.616 434.932,268.152 L443.446,234.705 L403.772,218.128 Z" id="Path" fill="#392CD1"></path>
            <path d="M407.184,213.532 C406.778,213.344 405.328,212.78 404.328,213.487 C404.289,213.515 404.256,213.552 404.233,213.595 C404.21,213.638 404.196,213.686 404.193,213.734 C404.065,215.68 402.517,236.178 394.245,253.145 C394.218,253.195 394.205,253.251 394.205,253.307 C394.206,253.364 394.221,253.419 394.248,253.469 C394.276,253.518 394.316,253.56 394.364,253.59 C394.412,253.62 394.466,253.637 394.523,253.641 C398.22,253.904 421.31,255.992 434.932,268.13 L407.349,213.697 C407.314,213.625 407.256,213.566 407.184,213.532 Z" id="Path" fill="#B79CED"></path>
            <path d="M445.685,225.917 C445.685,225.917 416.381,204.27 408.371,207.342 C408.291,207.373 408.222,207.425 408.17,207.492 C408.118,207.56 408.086,207.641 408.078,207.726 C407.71,210.895 404.05,240.774 396.702,252.259 C396.658,252.331 396.633,252.412 396.63,252.496 C396.626,252.58 396.644,252.663 396.682,252.738 C396.719,252.813 396.775,252.878 396.845,252.925 C396.914,252.973 396.994,253.002 397.078,253.01 C401.586,253.295 423.098,255.263 434.932,268.137 L445.685,225.917 Z" id="Path" fill="#DEC0F1"></path>
            <path d="M493.939,250.509 C493.939,250.509 497.966,250.509 501.881,254.542 C501.935,254.599 501.968,254.671 501.977,254.749 C501.985,254.826 501.967,254.904 501.926,254.97 C500.469,257.224 488.694,275.656 485.035,291.076 C485.029,291.099 485.018,291.12 485.002,291.138 C484.987,291.156 484.967,291.17 484.945,291.179 C484.923,291.187 484.9,291.191 484.876,291.189 C484.852,291.187 484.83,291.179 484.81,291.166 C482.105,289.409 448.968,268.13 434.933,268.152 L493.939,250.509 Z" id="Path" fill="#7161EF"></path>
            <path d="M492.098,239.963 C492.098,239.963 494.593,239.475 498.53,242.862 C498.568,242.902 498.589,242.954 498.589,243.009 C498.589,243.064 498.568,243.116 498.53,243.155 C497.245,244.845 486.335,259.808 483.014,284.234 C483.011,284.253 483.004,284.27 482.993,284.286 C482.982,284.301 482.967,284.314 482.95,284.323 C482.934,284.332 482.915,284.336 482.896,284.337 C482.877,284.337 482.858,284.332 482.841,284.324 C480.632,282.979 453.958,266.996 434.895,268.152 L492.098,239.963 Z" id="Path" fill="#957FEF"></path>
            <path d="M434.933,268.152 C434.933,268.152 457.722,262.204 478.047,275.663 C478.087,275.69 478.133,275.708 478.181,275.715 C478.229,275.722 478.278,275.718 478.324,275.704 C478.37,275.689 478.412,275.665 478.448,275.632 C478.483,275.599 478.51,275.558 478.528,275.513 L494.953,232.505 C494.995,232.398 494.997,232.28 494.958,232.172 C494.919,232.065 494.843,231.974 494.743,231.919 C491.362,230.041 464.688,215.89 445.685,225.91 L434.933,268.152 Z" id="Path" fill="#B79CED"></path>
            <path d="M121.844,56.422 C121.844,56.422 119.236,47.108 122.595,42.233 C125.954,37.358 130.109,38.951 129.838,36.284 C129.568,33.618 123.504,30.726 124.496,28.586 C125.488,26.445 129.147,27.834 129.147,27.834 C129.147,27.834 136.015,33.776 137.615,37.599 C139.216,41.422 145.813,38.147 145.813,38.147 C145.813,38.147 151.268,38.515 151.11,41.152 C150.953,43.788 117.418,72.796 117.418,72.796 L121.844,56.422 Z" id="Path" fill="#FFC5AE"></path>
            <path d="M122.482,65.668 C122.482,65.668 135.324,48.633 143.521,47.243 C151.719,45.854 138.367,59.576 148.3,69.874 C158.233,80.172 138.945,79.188 138.945,79.188 L119.342,72.203 L122.482,65.668 Z" id="Path" fill="#DEC0F1"></path>
            <path d="M150.629,73.074 C148.443,74.779 146.76,75.327 145.633,74.689 C144.761,74.193 144.198,73.059 143.852,71.647 L149.502,71.872 L149.66,71.797 L149.818,71.729 C149.465,71.244 149.084,70.78 148.676,70.34 L143.566,70.129 C143.454,69.302 143.383,68.47 143.356,67.636 L143.657,66.359 L145.422,65.608 C145.23,65.144 145.065,64.67 144.926,64.188 L144.077,64.556 L144.543,62.528 C144.246,59.766 144.476,56.973 145.219,54.296 L141.365,52.629 C141.592,51.071 141.556,49.487 141.26,47.942 C140.79,48.148 140.331,48.379 139.885,48.633 C140.058,49.749 140.073,50.884 139.93,52.005 L136.826,50.661 C136.383,50.999 135.94,51.359 135.496,51.727 L139.734,53.56 C139.486,55.175 139.096,56.985 138.63,58.818 L134.054,57.3 C134.398,55.434 134.847,53.588 135.399,51.772 C134.707,52.351 134.009,52.959 133.332,53.583 C133.062,54.627 132.821,55.708 132.581,56.812 L130.657,56.159 L129.508,57.361 L132.303,58.307 C131.499,62.814 131.078,67.373 130.905,69.574 L126.247,69.386 L123.933,63.783 C123.474,64.346 123.114,64.804 122.866,65.127 L125.225,70.851 L130.8,71.076 L130.74,71.955 L132.589,71.143 L134.753,71.234 C134.302,72.495 133.881,73.607 133.535,74.493 L134.94,75.034 C135.136,74.538 135.654,73.171 136.33,71.279 L140.403,71.444 L139.035,79.158 C139.283,79.158 139.877,79.158 140.658,79.158 L142.349,71.819 C142.8,73.63 143.566,75.177 144.866,75.913 C146.474,76.814 148.563,76.334 151.073,74.516 C151.007,74.014 150.857,73.526 150.629,73.074 Z M141.124,54.228 L144.566,55.731 L143.454,60.56 L140.05,59.411 C140.493,57.586 140.869,55.798 141.124,54.198 L141.124,54.228 Z M135.865,68.132 L132.438,69.634 C132.664,66.877 133.107,62.799 133.791,58.863 L138.232,60.365 C137.51,62.971 136.676,65.668 135.857,68.101 L135.865,68.132 Z M140.704,70.017 L136.879,69.859 C136.947,69.656 137.022,69.446 137.097,69.236 L141.154,67.456 L140.704,70.017 Z M143.018,62.506 L142.071,62.37 L141.47,65.713 L137.713,67.35 C138.374,65.345 139.058,63.122 139.652,60.891 L143.101,62.055 L143.018,62.506 Z" id="Shape" fill="#7161EF" fill-rule="nonzero"></path>
            <path d="M95.425,77.813 C95.425,77.813 104.396,111.005 143.784,96.403 C152.989,92.986 160.969,86.714 164.538,77.355 C167.378,69.912 167.295,61.664 165.875,53.92 C165.383,51.257 164.739,48.624 163.944,46.034 C162.952,42.782 161.983,38.786 159.947,36.074 C159.397,35.406 158.805,34.773 158.173,34.181 C152.989,28.924 149.397,21.7729 147.556,14.6524 C147.082,12.8341 146.723,10.9877 146.482,9.1242 C146.279,7.5544 146.437,5.5865 145.67,4.1744 C145.448,3.6969 145.066,3.3122 144.589,3.0872 C144.113,2.8621 143.573,2.811 143.063,2.9426 C142.583,3.1594 142.17,3.5019 141.868,3.934 C138.111,8.6435 140.027,14.2618 141.786,19.3469 C143.04,22.9024 144.812,26.253 147.045,29.292 C145.992,27.869 144.583,26.75 142.959,26.045 C141.335,25.341 139.554,25.077 137.796,25.281 C137.567,25.279 137.341,25.334 137.138,25.44 C136.935,25.546 136.761,25.7 136.631,25.889 C136.564,26.127 136.559,26.378 136.619,26.617 C136.678,26.857 136.799,27.077 136.969,27.256 C138.472,29.382 140.869,30.711 142.575,32.694 C144.247,34.635 145.51,36.893 146.286,39.334 C146.401,39.585 146.461,39.858 146.461,40.134 C146.461,40.41 146.401,40.683 146.286,40.934 C146.286,42.075 145.325,43.735 144.949,44.825 C144.513,46.079 144.1,47.326 143.709,48.58 C142.916,50.936 142.293,53.346 141.846,55.791 C141.094,60.763 139.704,65.495 148.285,69.806 C146.452,72.698 143.814,77.22 140.298,78.144 C140.421,76.363 140.025,74.584 139.158,73.023 C138.292,71.462 136.991,70.186 135.414,69.348 C134.481,69.005 133.618,68.496 132.867,67.846 C131.446,66.291 131.627,63.407 131.755,61.469 C131.92,58.968 132.393,56.467 132.025,53.958 C131.582,50.863 129.906,48.084 128.103,45.523 C127.614,44.825 126.991,44.066 126.134,44.021 C125.067,43.983 124.338,45.102 124.06,46.131 C123.144,49.549 124.661,53.079 125.638,56.482 C126.246,58.609 126.646,60.79 126.833,62.994 C126.999,64.082 126.882,65.194 126.495,66.224 C126.1,66.955 125.573,67.607 124.939,68.147 C124.438,68.69 123.826,69.12 123.144,69.406 C122.462,69.692 121.726,69.829 120.987,69.806 C120.711,69.812 120.435,69.832 120.161,69.867 C118.972,70.094 117.802,70.408 116.659,70.805 C112.902,71.91 109.198,73.134 105.494,74.358 C102.127,75.505 98.771,76.657 95.425,77.813 Z" id="Path" fill="#FFDECF"></path>
            <path d="M93.779,54.191 C93.779,54.191 97.874,46.98 108.995,49.474 C108.995,49.474 109.431,45.388 113.037,44.149 C113.972,44.622 114.762,45.337 115.325,46.219 C115.888,47.102 116.203,48.12 116.238,49.166 C116.238,49.346 117.298,50.06 117.433,50.187 C120.386,52.974 122.497,56.482 122.866,60.598 C123.163,64.281 122.21,67.956 120.161,71.031 C118.751,73.17 116.881,74.967 114.688,76.293 C112.495,77.618 110.034,78.438 107.485,78.692 C104.772,78.917 102.082,79.503 99.37,79.21 C96.657,78.918 93.757,77.708 91.247,76.544 C85.702,73.93 84.981,67.253 85.153,61.762 C85.203,60.204 85.336,58.649 85.552,57.105 C85.597,56.767 86.025,53.154 86.1,53.139 C86.175,53.124 90.368,52.538 93.779,54.191 Z" id="Path" fill="#FFEAE3"></path>
            <path d="M99.58,49.789 C99.58,49.789 107.8,75.004 91.247,76.566 C91.247,76.566 81.772,74.644 86.1,53.162 C86.1,53.162 91.007,52.629 93.779,54.213 C93.779,54.191 96.567,50.097 99.58,49.789 Z" id="Path" fill="#DEC0F1"></path>
            <path d="M87.25,59.712 C87.25,59.712 87.107,55.731 87.731,55.393 C88.354,55.055 90.992,55.348 91.856,55.588 C92.72,55.828 87.25,59.712 87.25,59.712 Z" id="Path" fill="#957FEF"></path>
            <path d="M122.881,63.159 C122.881,63.159 107.199,68.71 99.588,49.767 C99.588,49.767 102.736,48.19 109.002,49.474 C109.002,49.474 109.453,45.155 113.045,44.149 C113.045,44.149 116.396,45.884 116.246,49.166 C116.238,49.166 123.775,54.514 122.881,63.159 Z" id="Path" fill="#DEC0F1"></path>
            <path d="M110.302,49.376 C110.302,49.376 111.61,47.01 112.865,46.68 C113.792,47.441 114.481,48.453 114.848,49.594 L110.302,49.376 Z" id="Path" fill="#957FEF"></path>
            <path d="M89.977,68.304 C89.977,68.304 93.081,70.392 96.079,67.072 C96.079,67.072 96.695,66.99 96.522,67.651 C96.349,68.312 92.885,70.768 89.526,68.95 C89.526,68.95 89.053,68.079 89.977,68.304 Z" id="Path" fill="#7161EF"></path>
            <path d="M112.399,59.554 C112.399,59.554 116.005,60.568 117.816,56.474 C117.816,56.474 118.372,56.204 118.417,56.887 C118.462,57.571 115.915,60.981 112.158,60.305 C112.158,60.305 111.459,59.629 112.399,59.554 Z" id="Path" fill="#7161EF"></path>
            <path d="M106.012,68.845 C106.102,68.5 106.53,68.162 106.763,67.929 C107.097,67.565 107.509,67.282 107.969,67.101 C108.429,66.92 108.923,66.846 109.416,66.885 C110.979,67.133 109.806,68.988 109.371,69.716 C109.336,69.786 109.287,69.847 109.228,69.897 C109.159,69.94 109.082,69.971 109.002,69.987 C108.522,70.098 108.03,70.146 107.537,70.129 C107.095,70.146 106.66,70.011 106.305,69.746 C106.183,69.634 106.092,69.492 106.041,69.334 C105.989,69.176 105.979,69.008 106.012,68.845 Z" id="Path" fill="#7161EF"></path>
            <path d="M109.025,69.987 L109.393,69.716 L110.227,71.083 C110.227,71.083 110.115,71.346 109.897,71.309 L109.025,69.987 Z" id="Path" fill="#B79CED"></path>
            <path d="M109.574,70.82 C109.574,70.82 109.408,71.076 109.393,71.098 C109.226,71.329 109.04,71.545 108.837,71.744 C108.181,72.378 107.357,72.81 106.463,72.991 C106.282,73.027 106.098,73.052 105.914,73.066 C105.689,73.066 105.396,72.999 105.215,73.156 C105.178,73.188 105.15,73.229 105.134,73.275 C105.118,73.322 105.115,73.371 105.125,73.419 C105.156,73.491 105.202,73.555 105.261,73.607 C105.283,73.631 105.312,73.649 105.343,73.66 C105.366,73.663 105.388,73.663 105.411,73.66 C106.278,73.533 107.128,73.306 107.943,72.984 C108.782,72.705 109.485,72.12 109.912,71.346 L109.574,70.82 Z" id="Path" fill="#B79CED"></path>
            <path d="M109.904,70.565 L110.22,71.083 C110.22,71.083 113.083,70.505 113.601,68.898 C113.601,68.898 113.669,68.56 113.3,68.68 C113.308,68.68 111.692,70.618 109.904,70.565 Z" id="Path" fill="#B79CED"></path>
            <path d="M36.726,187.438 C36.726,187.438 24.05,203.211 47.328,220.269 C47.328,220.292 57.412,192.869 36.726,187.438 Z" id="Path" fill="#957FEF"></path>
            <path d="M145.843,426.847 C145.843,426.847 131.89,410.045 114.044,442.117 C114.044,442.102 150.644,449.929 145.843,426.847 Z" id="Path" fill="#7161EF"></path>
            <path d="M172.577,135.123 C172.577,135.123 161.63,131.615 177.92,112.124 L172.577,135.123 Z" id="Path" fill="#957FEF"></path>
            <path d="M172.577,135.123 L177.92,112.132 C177.92,112.132 185.937,134.665 172.577,135.123 Z" id="Path" fill="#DEC0F1"></path>
            <path d="M145.437,27.602 C145.437,27.602 151.231,31.207 155.634,45.914 C155.634,45.914 155.716,46.665 155.386,46.101 C155.055,45.538 152.583,34.91 146.181,28.488 L145.437,27.602 Z" id="Path" fill="#E6E6E6"></path>
            <path d="M447.496,461.195 C447.496,461.195 438.442,451.874 460.803,437.363 C460.803,437.363 464.101,435.913 463.605,430.956 C463.11,425.998 476.139,466.468 447.496,461.195 Z" id="Path" fill="#B79CED"></path>
            <path d="M365.955,194.296 C365.955,194.296 356.608,183.42 394.207,171.109 L365.955,194.296 Z" id="Path" fill="#957FEF"></path>
            <path d="M365.955,194.296 L394.207,171.109 C394.207,171.109 393.005,187.506 386.145,189.135 C379.285,190.765 381.644,194.003 365.955,194.296 Z" id="Path" fill="#7161EF"></path>
            <path d="M354.263,55.092 C354.263,55.092 367.488,45.523 354.263,24.297 L354.263,55.092 Z" id="Path" fill="#B79CED"></path>
            <path d="M354.263,55.092 C354.263,55.092 340.581,45.974 354.263,24.297 L354.263,55.092 Z" id="Path" fill="#7161EF"></path>
            <path d="M279.958,340.927 C285.498,340.927 289.99,336.438 289.99,330.9 C289.99,325.362 285.498,320.873 279.958,320.873 C274.419,320.873 269.927,325.362 269.927,330.9 C269.927,336.438 274.419,340.927 279.958,340.927 Z" id="Path" fill="#392CD1"></path>
            <g id="Group" opacity="0.6" transform="translate(270.000000, 320.000000)" fill="#DEC0F1" fill-rule="nonzero">
                <path d="M17.63,17.345 C16.419,18.278 15.12,19.093 13.753,19.778 C12.866,18.809 11.957,17.735 11.048,16.601 C11.155,14.892 11.075,13.177 10.808,11.486 C11.907,10.064 13.084,8.702 14.332,7.408 C15.504,9.383 17.044,11.914 19.065,15.069 C19.33,14.483 19.542,13.875 19.696,13.251 C18.194,10.825 16.691,8.407 15.466,6.318 C16.159,5.668 16.914,5.087 17.72,4.583 C17.404,4.193 17.057,3.829 16.683,3.494 C15.981,3.945 15.313,4.447 14.685,4.997 C13.768,3.404 13.047,2.09 12.648,1.241 C12.096,1.081 11.53,0.971 10.958,0.911 C10.995,1.031 11.04,1.158 11.093,1.309 C10.563,2.365 9.937,3.371 9.222,4.313 C9.004,3.562 8.801,2.811 8.614,2.187 L8.275,1.001 C7.781,1.08 7.294,1.198 6.818,1.354 C6.915,1.707 7.036,2.105 7.171,2.601 C7.426,3.494 7.749,4.613 8.072,5.853 C7.321,6.852 6.45,7.948 5.51,9.098 C4.27,7.295 3.181,5.65 2.332,4.351 C1.984,4.765 1.668,5.204 1.385,5.665 C2.242,6.979 3.309,8.579 4.511,10.307 C3.301,11.757 2.001,13.266 0.686,14.753 C0.902,15.247 1.153,15.723 1.438,16.181 C2.941,14.483 4.278,12.958 5.42,11.606 C5.954,12.357 6.51,13.109 7.073,13.86 C5.833,15.61 4.706,17.307 3.79,18.742 C4.187,19.058 4.609,19.342 5.052,19.591 C5.893,18.284 6.908,16.744 8.057,15.144 C8.538,15.775 9.019,16.398 9.508,17.014 C9.43,18.382 8.852,19.673 7.885,20.642 C8.483,20.769 9.092,20.839 9.703,20.852 C10.186,20.149 10.535,19.362 10.732,18.532 C11.273,19.177 11.814,19.801 12.348,20.387 L11.544,20.725 C13.912,20.364 16.072,19.164 17.63,17.345 Z M8.02,12.635 C7.479,11.884 6.945,11.133 6.434,10.427 C7.241,9.451 7.95,8.562 8.561,7.761 C8.809,8.827 9.034,9.939 9.215,11.051 C8.809,11.576 8.411,12.11 8.02,12.635 Z M8.967,13.92 L9.47,13.244 L9.47,13.199 C9.515,13.724 9.553,14.243 9.568,14.746 L8.967,13.92 Z M10.469,9.481 C10.252,8.354 9.996,7.227 9.718,6.198 C10.487,5.157 11.197,4.074 11.844,2.954 C12.25,3.757 12.799,4.779 13.55,6.078 C12.465,7.159 11.437,8.294 10.469,9.481 Z" id="Shape"></path>
            </g>
        </g>
    </g>
</svg>