<svg width="56" height="56" viewBox="0 0 56 56" fill="none" xmlns="http://www.w3.org/2000/svg">
<circle cx="28" cy="28" r="28" fill="#EF6363" fill-opacity="0.2"/>
<path d="M24.0773 32H17.5773L16.3373 35H13.0173L19.2573 21H22.4573L28.7173 35H25.3173L24.0773 32ZM23.0573 29.54L20.8373 24.18L18.6173 29.54H23.0573ZM40.4498 27.72C41.2498 27.9733 41.8764 28.4 42.3298 29C42.7831 29.5867 43.0098 30.3133 43.0098 31.18C43.0098 32.4067 42.5298 33.3533 41.5698 34.02C40.6231 34.6733 39.2364 35 37.4098 35H30.1698V21H37.0098C38.7164 21 40.0231 21.3267 40.9298 21.98C41.8498 22.6333 42.3098 23.52 42.3098 24.64C42.3098 25.32 42.1431 25.9267 41.8098 26.46C41.4898 26.9933 41.0364 27.4133 40.4498 27.72ZM33.3898 23.44V26.74H36.6098C37.4098 26.74 38.0164 26.6 38.4298 26.32C38.8431 26.04 39.0498 25.6267 39.0498 25.08C39.0498 24.5333 38.8431 24.1267 38.4298 23.86C38.0164 23.58 37.4098 23.44 36.6098 23.44H33.3898ZM37.1698 32.56C38.0231 32.56 38.6631 32.42 39.0898 32.14C39.5298 31.86 39.7498 31.4267 39.7498 30.84C39.7498 29.68 38.8898 29.1 37.1698 29.1H33.3898V32.56H37.1698Z" fill="#EF6363"/>
</svg>
