<svg width="14" height="10" viewBox="0 0 14 10" fill="none" xmlns="http://www.w3.org/2000/svg">
<path d="M4.75 9.375L5.375 8.78125C5.45833 8.69792 5.5 8.60417 5.5 8.5C5.5 8.39583 5.45833 8.3125 5.375 8.25L2.84375 5.8125H13.625C13.7292 5.8125 13.8125 5.78125 13.875 5.71875C13.9583 5.63542 14 5.54167 14 5.4375V4.5625C14 4.45833 13.9583 4.375 13.875 4.3125C13.8125 4.22917 13.7292 4.1875 13.625 4.1875H2.84375L5.375 1.75C5.45833 1.6875 5.5 1.60417 5.5 1.5C5.5 1.39583 5.45833 1.30208 5.375 1.21875L4.75 0.625C4.6875 0.541667 4.60417 0.5 4.5 0.5C4.39583 0.5 4.3125 0.541667 4.25 0.625L0.125 4.75C0.0416667 4.8125 0 4.89583 0 5C0 5.10417 0.0416667 5.1875 0.125 5.25L4.25 9.375C4.3125 9.45833 4.39583 9.5 4.5 9.5C4.60417 9.5 4.6875 9.45833 4.75 9.375Z" fill="#392CD1"/>
</svg>
