<svg width="64" height="64" viewBox="0 0 64 64" fill="none" xmlns="http://www.w3.org/2000/svg">
<g filter="url(#filter0_d)">
<circle cx="32" cy="32" r="24" fill="white"/>
</g>
<path d="M25 31C25.5417 31 26.0104 30.8021 26.4062 30.4062C26.8021 30.0104 27 29.5417 27 29C27 28.4583 26.8021 27.9896 26.4062 27.5938C26.0104 27.1979 25.5417 27 25 27C24.4583 27 23.9896 27.1979 23.5938 27.5938C23.1979 27.9896 23 28.4583 23 29C23 29.5417 23.1979 30.0104 23.5938 30.4062C23.9896 30.8021 24.4583 31 25 31ZM39 31C39.5417 31 40.0104 30.8021 40.4062 30.4062C40.8021 30.0104 41 29.5417 41 29C41 28.4583 40.8021 27.9896 40.4062 27.5938C40.0104 27.1979 39.5417 27 39 27C38.4583 27 37.9896 27.1979 37.5938 27.5938C37.1979 27.9896 37 28.4583 37 29C37 29.5417 37.1979 30.0104 37.5938 30.4062C37.9896 30.8021 38.4583 31 39 31ZM40 32H38C37.4583 32 36.9896 32.1979 36.5938 32.5938C37.2188 32.9271 37.7396 33.3958 38.1562 34C38.5729 34.6042 38.8333 35.2708 38.9375 36H41C41.2708 36 41.5 35.9062 41.6875 35.7188C41.8958 35.5104 42 35.2708 42 35V34C42 33.4583 41.8021 32.9896 41.4062 32.5938C41.0104 32.1979 40.5417 32 40 32ZM32 32C32.625 32 33.2083 31.8438 33.75 31.5312C34.2917 31.2188 34.7188 30.7917 35.0312 30.25C35.3438 29.7083 35.5 29.125 35.5 28.5C35.5 27.875 35.3438 27.2917 35.0312 26.75C34.7188 26.2083 34.2917 25.7812 33.75 25.4688C33.2083 25.1562 32.625 25 32 25C31.375 25 30.7917 25.1562 30.25 25.4688C29.7083 25.7812 29.2812 26.2083 28.9688 26.75C28.6562 27.2917 28.5 27.875 28.5 28.5C28.5 29.125 28.6562 29.7083 28.9688 30.25C29.2812 30.7917 29.7083 31.2188 30.25 31.5312C30.7917 31.8438 31.375 32 32 32ZM34.4062 33H34.1562C33.4479 33.3333 32.7292 33.5 32 33.5C31.2708 33.5 30.5521 33.3333 29.8438 33H29.5938C28.9479 33 28.3438 33.1667 27.7812 33.5C27.2396 33.8125 26.8021 34.25 26.4688 34.8125C26.1562 35.3542 26 35.9479 26 36.5938V37.5C26 37.9167 26.1458 38.2708 26.4375 38.5625C26.7292 38.8542 27.0833 39 27.5 39H36.5C36.9167 39 37.2708 38.8542 37.5625 38.5625C37.8542 38.2708 38 37.9167 38 37.5V36.5938C38 35.9479 37.8333 35.3542 37.5 34.8125C37.1875 34.25 36.75 33.8125 36.1875 33.5C35.6458 33.1667 35.0521 33 34.4062 33ZM27.4062 32.5938C27.0104 32.1979 26.5417 32 26 32H24C23.4583 32 22.9896 32.1979 22.5938 32.5938C22.1979 32.9896 22 33.4583 22 34V35C22 35.2708 22.0938 35.5104 22.2812 35.7188C22.4896 35.9062 22.7292 36 23 36H25.0625C25.1667 35.2708 25.4271 34.6042 25.8438 34C26.2604 33.3958 26.7812 32.9271 27.4062 32.5938Z" fill="#392CD1"/>
<defs>
<filter id="filter0_d" x="0" y="0" width="64" height="64" filterUnits="userSpaceOnUse" color-interpolation-filters="sRGB">
<feFlood flood-opacity="0" result="BackgroundImageFix"/>
<feColorMatrix in="SourceAlpha" type="matrix" values="0 0 0 0 0 0 0 0 0 0 0 0 0 0 0 0 0 0 127 0"/>
<feOffset/>
<feGaussianBlur stdDeviation="4"/>
<feColorMatrix type="matrix" values="0 0 0 0 0 0 0 0 0 0 0 0 0 0 0 0 0 0 0.1 0"/>
<feBlend mode="normal" in2="BackgroundImageFix" result="effect1_dropShadow"/>
<feBlend mode="normal" in="SourceGraphic" in2="effect1_dropShadow" result="shape"/>
</filter>
</defs>
</svg>
