<?xml version="1.0" encoding="UTF-8"?>
<svg width="600px" height="644px" viewBox="0 0 600 644" version="1.1" xmlns="http://www.w3.org/2000/svg" xmlns:xlink="http://www.w3.org/1999/xlink">
    <!-- Generator: Sketch 52.1 (67048) - http://www.bohemiancoding.com/sketch -->
    <title>03</title>
    <desc>Created with Sketch.</desc>
    <defs>
        <linearGradient x1="118.489529%" y1="8.58277505%" x2="-68.7179829%" y2="100%" id="linearGradient-1">
            <stop stop-color="#F1D899" offset="0%"></stop>
            <stop stop-color="#F1CC6F" offset="58%"></stop>
            <stop stop-color="#F2B51C" offset="84.503703%"></stop>
            <stop stop-color="#D49800" offset="100%"></stop>
        </linearGradient>
    </defs>
    <g id="Page-1" stroke="none" stroke-width="1" fill="none" fill-rule="evenodd">
        <g id="03">
            <rect id="Rectangle" fill="#9D0313" x="0" y="0" width="600" height="600"></rect>
            <path d="M559.59,265 C540.34,253.73 508.73,253.73 489.35,265 L436.3,295.77 C437.557874,293.034115 436.896314,289.798487 434.665519,287.775899 C432.434723,285.75331 429.149951,285.410931 426.55,286.93 L190.89,423.93 C188.723967,425.154168 187.383279,427.448276 187.379887,429.936302 C187.376495,432.424328 188.710923,434.722083 190.873611,435.952152 C193.036298,437.182221 195.693292,437.154663 197.83,435.88 L313.17,368.88 C306.35,379.23 310.02,391.41 324.31,399.71 C343.72,410.99 375.57,410.99 395.11,399.71 L568.33,298.89 C578.07,288 575.18,274.16 559.59,265 Z" id="Path" fill="#600102" opacity="0.46" style="mix-blend-mode: multiply;"></path>
            <g id="Path" transform="translate(21.000000, 255.000000)" stroke-linecap="round" stroke-linejoin="round" stroke-width="9">
                <path d="M89.93,150.64 L347.43,0.99" id="_Path_5" stroke="#F9EACE"></path>
                <path d="M294.18,315.84 L313.08,304.86" id="_Path_6" stroke="#F9EACE"></path>
                <path d="M271.41,329.07 L274.99,326.99" id="_Path_7" stroke="#F9EACE"></path>
                <path d="M76.83,384.41 L245.71,286.27" id="_Path_8" stroke="#FBF5E7"></path>
                <path d="M33.34,133.89 L122.76,81.93" id="_Path_9" stroke="#F9EACE"></path>
                <path d="M0.87,152.76 L11.37,146.66" id="_Path_10" stroke="#F9EACE"></path>
                <path d="M165.73,276.7 L340.92,174.89" id="_Path_11" stroke="#F9EACE"></path>
                <path d="M99.85,314.99 L136.23,293.84" id="_Path_12" stroke="#F9EACE"></path>
                <path d="M70.13,332.26 L78.98,327.12" id="_Path_13" stroke="#F9EACE"></path>
                <path d="M96.96,187.11 L281.93,79.62" id="_Path_14" stroke="#FBF5E7"></path>
                <path d="M45.58,216.97 L76.52,198.99" id="_Path_15" stroke="#FBF5E7"></path>
                <path d="M11.14,236.98 L24.52,229.21" id="_Path_16" stroke="#FBF5E7"></path>
            </g>
            <g id="_Group_2" transform="translate(54.000000, 117.000000)">
                <g id="_Group_3">
                    <g id="_Group_4" transform="translate(296.000000, 0.000000)">
                        <g id="_Group_5" transform="translate(103.000000, 20.000000)" fill="#FFF1CE">
                            <polygon id="_Path_17" points="51.98 52.03 0.41 22.61 54.86 0.28 106.43 29.69"></polygon>
                        </g>
                        <g id="_Group_6" transform="translate(30.000000, 132.000000)" fill="#D99C37">
                            <polygon id="_Path_18" points="52.28 97.68 0.71 68.26 9.83 0.61 61.4 30.02"></polygon>
                        </g>
                        <g id="_Group_7" transform="translate(54.000000, 0.000000)" fill="url(#linearGradient-1)">
                            <polygon id="_Path_19" points="52.3 100.13 0.73 70.72 24.9 0 76.47 29.41"></polygon>
                        </g>
                        <g id="_Group_8" transform="translate(0.000000, 70.000000)" fill="#FFF1CE">
                            <polygon id="_Path_20" points="51.89 70.65 0.32 41.24 54.73 0.72 106.3 30.13"></polygon>
                        </g>
                    </g>
                    <g id="_Group_9" transform="translate(0.000000, 29.000000)">
                        <g id="_Group_10" transform="translate(105.000000, 224.000000)" fill="#D99C37">
                            <path d="M55,104.84 L5.23,75.91 C-7.7,38.07 10.04,2.66 10.98,0.79 L60.75,29.72 C59.78,31.58 42,67 55,104.84 Z" id="_Path_21"></path>
                        </g>
                        <g id="_Group_11" transform="translate(73.000000, 197.000000)" fill="#D99C37">
                            <path d="M50,109.45 L0.23,80.52 C1.5,47.52 28.33,3.2 29.74,0.87 L79.51,29.8 C78.11,32.13 51.28,76.41 50,109.45 Z" id="_Path_22"></path>
                        </g>
                        <g id="_Group_12" transform="translate(36.000000, 184.000000)" fill="#D99C37">
                            <path d="M49.78,124 L0,95.1 C5.07,46.82 41.55,2.41 43.47,0.1 L93.25,29 C91.33,31.34 54.84,75.75 49.78,124 Z" id="_Path_23"></path>
                        </g>
                        <path d="M505.43,20.69 L451,43 L426.49,0.39 L402.3,71.13 L366.3,97.97 C336.04,71.5 278.79,71.97 217.17,107.5 C158.83,141.18 96.62,206.33 49.82,309.89 C76.14,264.71 126.64,215.58 129.29,212.99 C127.37,215.33 90.89,259.74 85.82,307.99 C116.82,257.22 150.82,228.28 152.57,226.75 C151.16,229.08 124.33,273.36 123.06,306.4 C138.32,281.84 164.39,255.08 165.76,253.67 C164.78,255.58 147,291 160,328.84 C191.89,238 239,174.72 286.84,147.1 C321.21,127.26 355.95,125.82 385.69,145.76 L378.28,200.68 L426.88,143.17 L475.65,144.47 L466.17,87.55 L505.43,20.69 Z" id="_Path_24" fill="#FFD775"></path>
                        <path d="M306.14,61.59 C274.2,43.03 222.51,46.74 167.36,78.59 C109,112.26 46.8,177.42 0,281 L49.77,309.93 C96.57,206.37 158.77,141.22 217.12,107.54 C272.27,75.7 323.97,71.98 355.9,90.54 L306.14,61.59 Z" id="_Path_25" fill="#FFF1CE"></path>
                    </g>
                    <g id="_Group_13" transform="translate(383.000000, 71.000000)" fill="#FFF1CE">
                        <g id="_Group_14">
                            <polygon id="_Path_26" points="43.77 0.45 57.42 24.18 87.75 11.75 65.88 48.98 71.16 80.68 44 79.96 16.93 111.99 22.01 74.31 0.01 62.4 30.31 39.84"></polygon>
                        </g>
                    </g>
                    <g id="_Group_15" transform="translate(399.000000, 71.000000)" fill="#ECB55B">
                        <polygon id="_Path_27" points="28.33 17.25 41.42 24.18 27.77 0.45 24.38 10.38"></polygon>
                        <polygon id="_Path_28" points="71.75 11.75 49.14 21.01 36.79 42.05 42.07 73.75 14.91 73.02 4.53 85.31 0.93 111.99 28 79.96 55.16 80.68 49.88 48.98"></polygon>
                    </g>
                </g>
                <g id="_Group_16" transform="translate(117.000000, 122.000000)" fill="#D99C37">
                    <path d="M0.67,116.83 C15.2937426,98.6020553 31.4238654,81.6356548 48.89,66.11 C66.4472842,50.5897315 85.7028894,37.1040986 106.29,25.91 C111.43,23.0966667 116.666667,20.46 122,18 C127.33,15.58 132.72,13.3 138.21,11.26 C143.7,9.22 149.27,7.4 154.92,5.87 C160.546565,4.32527284 166.247058,3.06368839 172,2.09 C183.559393,0.142974465 195.3148,-0.37090478 207,0.56 C218.680706,1.46399448 230.113124,4.40501611 240.78,9.25 L240.64,9.55 C229.952757,4.93664717 218.540626,2.22914281 206.92,1.55 C195.331764,0.844097658 183.7007,1.56956972 172.29,3.71 C166.589808,4.7588509 160.946005,6.09387232 155.38,7.71 C149.81,9.31 144.38,11.22 138.92,13.28 C133.46,15.34 128.21,17.71 122.92,20.18 C117.63,22.65 112.55,25.37 107.51,28.23 C87.28,39.61 68.65,53.58 50.99,68.61 C33.33,83.64 16.91,100.1 0.92,117 L0.67,116.83 Z" id="Path"></path>
                </g>
                <g id="_Group_17" transform="translate(129.000000, 133.000000)" fill="#D99C37">
                    <path d="M222.24,4.59 C216.87214,3.0726054 211.380838,2.03190161 205.83,1.48 C200.282273,0.998134942 194.705495,0.947984059 189.15,1.33 C178.043677,2.23000077 167.066845,4.32545591 156.41,7.58 C151.076667,9.13333333 145.783333,10.8666667 140.53,12.78 C137.89,13.71 135.31,14.7 132.72,15.68 L125.24,19.33 C122.73,20.5 120.31,21.89 117.86,23.21 C115.41,24.53 112.95,25.83 110.59,27.31 L103.44,31.62 L96.44,36.21 C87.2633044,42.4826016 78.4367724,49.2527253 70,56.49 C67.86,58.26 65.82,60.16 63.72,61.99 L60.6,64.76 L57.6,67.61 C55.6,69.52 53.48,71.35 51.51,73.31 L45.51,79.15 C37.57,86.97 29.96,95.15 22.46,103.38 C18.75,107.55 15.01,111.69 11.38,115.94 C7.75,120.19 4.1,124.42 0.38,128.62 L0.12,128.42 C3.42,123.9 6.77666667,119.423333 10.19,114.99 C13.6,110.55 17.19,106.24 20.69,101.88 C27.86,93.27 35.39,84.96 43.14,76.88 L49.14,70.95 C51.14,68.95 53.21,67.09 55.24,65.15 L58.33,62.29 L61.51,59.53 C63.65,57.71 65.72,55.82 67.91,54.05 C76.5667921,46.8766081 85.6103638,40.18323 95,34 L102.1,29.47 L109.38,25.22 C111.78,23.76 114.29,22.5 116.77,21.22 C119.25,19.94 121.71,18.56 124.29,17.41 L131.93,13.82 C134.58,12.82 137.23,11.89 139.93,11 C145.23,9.17 150.58,7.49 155.99,6 C166.797672,2.92748156 177.905266,1.02983655 189.12,0.34 C194.727306,0.0642185725 200.347567,0.224701912 205.93,0.82 C211.497494,1.48442913 216.995488,2.63890756 222.36,4.27 L222.24,4.59 Z" id="Path"></path>
                </g>
                <g id="_Group_18" transform="translate(152.000000, 139.000000)" fill="#D99C37">
                    <path d="M195,3.69 C184.656161,1.29832757 173.982386,0.672844977 163.43,1.84 C162.11,1.93 160.81,2.16 159.5,2.37 L155.59,3 L151.72,3.88 C150.43,4.18 149.14,4.43 147.88,4.88 C145.35,5.64 142.79,6.3 140.32,7.25 L136.59,8.57 L132.92,10 C123.175373,14.1115748 113.840632,19.133853 105.04,25 C102.85,26.5 100.62,27.89 98.47,29.47 L92,34.17 C89.85,35.71 87.64,37.17 85.53,38.79 L79.23,43.61 C62.7960532,56.9323981 47.9365366,72.0871591 34.94,88.78 C21.8,105.36 10.66,123.46 0.68,142.23 L0.38,142.09 C8.78024326,122.431879 19.5247617,103.860651 32.38,86.78 C45.4043945,69.7685765 60.6270699,54.5593517 77.65,41.55 L84.09,36.78 C86.24,35.2 88.48,33.78 90.67,32.23 L97.25,27.7 C99.41,26.16 101.71,24.77 103.93,23.3 C112.914392,17.4968854 122.426598,12.5549581 132.34,8.54 L136.08,7.08 L139.89,5.82 C142.41,4.92 145.01,4.29 147.59,3.58 C148.87,3.2 150.19,2.97 151.5,2.69 L155.43,1.88 L159.43,1.32 C160.75,1.13 162.07,0.92 163.43,0.86 C174.079156,-0.0990615519 184.813821,0.749568678 195.18,3.37 L195,3.69 Z" id="Path"></path>
                </g>
                <g id="_Group_19" transform="translate(177.000000, 150.000000)" fill="#D99C37">
                    <path d="M160.23,1.22 C141.55,1.46 123.23,7.22 107.07,16.14 C102.989379,18.3496026 99.0242191,20.7660806 95.19,23.38 C91.31,25.93 87.61,28.74 83.95,31.59 C76.7122173,37.4006944 69.8703442,43.6880016 63.47,50.41 C50.68,63.89 39.69,78.93 29.39,94.41 C24.23,102.14 19.39,110.08 14.67,118.11 C12.31,122.11 10.03,126.19 7.8,130.28 C5.57,134.37 3.34,138.47 1.12,142.58 L0.82,142.44 C2.59,138.11 4.52,133.86 6.47,129.6 C8.42,125.34 10.53,121.17 12.68,117.01 C16.96,108.68 21.68,100.55 26.68,92.63 C36.7315007,76.7617333 48.4478508,62.0115357 61.63,48.63 C68.2231266,41.9418074 75.2554317,35.701263 82.68,29.95 C86.43,27.13 90.23,24.36 94.19,21.85 C98.1164929,19.2749853 102.17176,16.9019029 106.34,14.74 C122.95,6.07 141.53,0.74 160.27,0.93 L160.23,1.22 Z" id="Path"></path>
                </g>
            </g>
        </g>
    </g>
</svg>