<?xml version="1.0" encoding="UTF-8"?>
<svg width="600px" height="600px" viewBox="0 0 600 600" version="1.1" xmlns="http://www.w3.org/2000/svg" xmlns:xlink="http://www.w3.org/1999/xlink">
    <!-- Generator: Sketch 52.1 (67048) - http://www.bohemiancoding.com/sketch -->
    <title>04</title>
    <desc>Created with Sketch.</desc>
    <defs>
        <linearGradient x1="59.679436%" y1="100%" x2="19.030704%" y2="-41.0626223%" id="linearGradient-1">
            <stop stop-color="#F1D899" offset="0%"></stop>
            <stop stop-color="#F1CC6F" offset="58%"></stop>
            <stop stop-color="#F2B51C" offset="84.503703%"></stop>
            <stop stop-color="#D49800" offset="100%"></stop>
        </linearGradient>
        <linearGradient x1="98.1112802%" y1="4.49695294%" x2="1.86437702%" y2="100%" id="linearGradient-2">
            <stop stop-color="#FAD961" offset="0%"></stop>
            <stop stop-color="#F76B1C" offset="100%"></stop>
        </linearGradient>
        <linearGradient x1="92.7251286%" y1="97.5703324%" x2="10.7587199%" y2="22.3489488%" id="linearGradient-3">
            <stop stop-color="#FAD961" offset="0%"></stop>
            <stop stop-color="#F76B1C" offset="100%"></stop>
        </linearGradient>
        <linearGradient x1="94.883216%" y1="-31.3979595%" x2="34.7353635%" y2="93.1280692%" id="linearGradient-4">
            <stop stop-color="#F5515F" offset="0%"></stop>
            <stop stop-color="#9F041B" offset="100%"></stop>
        </linearGradient>
        <linearGradient x1="3.60684718%" y1="93.033062%" x2="100%" y2="15.0174685%" id="linearGradient-5">
            <stop stop-color="#FF9D9F" offset="0%"></stop>
            <stop stop-color="#FFFBF9" offset="100%"></stop>
        </linearGradient>
        <linearGradient x1="103.526583%" y1="13.1021607%" x2="0%" y2="86.3769494%" id="linearGradient-6">
            <stop stop-color="#F5515F" offset="0%"></stop>
            <stop stop-color="#9F041B" offset="100%"></stop>
        </linearGradient>
        <linearGradient x1="83.6114684%" y1="15.0174685%" x2="-4.98960883%" y2="95.4521474%" id="linearGradient-7">
            <stop stop-color="#FF5E62" offset="0%"></stop>
            <stop stop-color="#FF9966" offset="100%"></stop>
        </linearGradient>
        <linearGradient x1="47.1001549%" y1="46.9139748%" x2="53.8531488%" y2="32.8505261%" id="linearGradient-8">
            <stop stop-color="#FF5E62" offset="0%"></stop>
            <stop stop-color="#FF9966" offset="100%"></stop>
        </linearGradient>
        <linearGradient x1="140.758794%" y1="100%" x2="0%" y2="-16.6785157%" id="linearGradient-9">
            <stop stop-color="#F5515F" offset="0%"></stop>
            <stop stop-color="#9F041B" offset="100%"></stop>
        </linearGradient>
        <linearGradient x1="62.5623861%" y1="66.2368433%" x2="13.4045586%" y2="12.3931992%" id="linearGradient-10">
            <stop stop-color="#F5515F" offset="0%"></stop>
            <stop stop-color="#9F041B" offset="100%"></stop>
        </linearGradient>
        <linearGradient x1="50%" y1="0%" x2="50%" y2="100%" id="linearGradient-11">
            <stop stop-color="#FAD961" offset="0%"></stop>
            <stop stop-color="#F76B1C" offset="100%"></stop>
        </linearGradient>
        <linearGradient x1="100%" y1="16.7877649%" x2="-90.9924744%" y2="131.849811%" id="linearGradient-12">
            <stop stop-color="#FFF7E3" offset="0%"></stop>
            <stop stop-color="#F1CC6F" offset="58%"></stop>
            <stop stop-color="#F2B51C" offset="84.503703%"></stop>
            <stop stop-color="#D49800" offset="100%"></stop>
        </linearGradient>
        <linearGradient x1="100%" y1="11.0731996%" x2="3.00094727%" y2="96.5740394%" id="linearGradient-13">
            <stop stop-color="#FAD961" offset="0%"></stop>
            <stop stop-color="#F76B1C" offset="100%"></stop>
        </linearGradient>
        <linearGradient x1="59.679436%" y1="100%" x2="19.030704%" y2="-41.0626223%" id="linearGradient-14">
            <stop stop-color="#FFEFC6" offset="0%"></stop>
            <stop stop-color="#F1CC6F" offset="58%"></stop>
            <stop stop-color="#F2B51C" offset="84.503703%"></stop>
            <stop stop-color="#D49800" offset="100%"></stop>
        </linearGradient>
        <linearGradient x1="40.3371004%" y1="26.5928583%" x2="12.7274664%" y2="84.9240279%" id="linearGradient-15">
            <stop stop-color="#FAD961" offset="0%"></stop>
            <stop stop-color="#F76B1C" offset="100%"></stop>
        </linearGradient>
        <linearGradient x1="50%" y1="41.6058054%" x2="15.1801574%" y2="194.272308%" id="linearGradient-16">
            <stop stop-color="#FFF7E3" offset="0%"></stop>
            <stop stop-color="#F1CC6F" offset="58%"></stop>
            <stop stop-color="#F2B51C" offset="84.503703%"></stop>
            <stop stop-color="#D49800" offset="100%"></stop>
        </linearGradient>
        <linearGradient x1="84.646094%" y1="91.8543343%" x2="15.9703405%" y2="14.0781569%" id="linearGradient-17">
            <stop stop-color="#FAD961" offset="0%"></stop>
            <stop stop-color="#F76B1C" offset="100%"></stop>
        </linearGradient>
        <linearGradient x1="100%" y1="24.1035619%" x2="-74.8017245%" y2="146.118582%" id="linearGradient-18">
            <stop stop-color="#FFF7E5" offset="0%"></stop>
            <stop stop-color="#F1CC6F" offset="58%"></stop>
            <stop stop-color="#F2B51C" offset="84.503703%"></stop>
            <stop stop-color="#D49800" offset="100%"></stop>
        </linearGradient>
        <linearGradient x1="-1.4531371%" y1="42.5354165%" x2="93.6166231%" y2="55.484281%" id="linearGradient-19">
            <stop stop-color="#446B90" offset="0%"></stop>
            <stop stop-color="#445E81" offset="27%"></stop>
            <stop stop-color="#433D5A" offset="100%"></stop>
        </linearGradient>
        <linearGradient x1="71.5852067%" y1="90.4250613%" x2="0%" y2="90.4250613%" id="linearGradient-20">
            <stop stop-color="#F5515F" offset="0%"></stop>
            <stop stop-color="#9F041B" offset="100%"></stop>
        </linearGradient>
        <linearGradient x1="79.933555%" y1="140.929203%" x2="0%" y2="-164.076302%" id="linearGradient-21">
            <stop stop-color="#F1D899" offset="0%"></stop>
            <stop stop-color="#F1CC6F" offset="58%"></stop>
            <stop stop-color="#F2B51C" offset="84.503703%"></stop>
            <stop stop-color="#D49800" offset="100%"></stop>
        </linearGradient>
        <linearGradient x1="100%" y1="100%" x2="-25.785382%" y2="-15.6580491%" id="linearGradient-22">
            <stop stop-color="#F1D899" offset="0%"></stop>
            <stop stop-color="#F1CC6F" offset="58%"></stop>
            <stop stop-color="#F2B51C" offset="84.503703%"></stop>
            <stop stop-color="#D49800" offset="100%"></stop>
        </linearGradient>
        <linearGradient x1="-0.0198935491%" y1="50.001442%" x2="99.984834%" y2="50.001442%" id="linearGradient-23">
            <stop stop-color="#433D5A" offset="0%"></stop>
            <stop stop-color="#445E81" offset="73%"></stop>
            <stop stop-color="#446B90" offset="100%"></stop>
        </linearGradient>
        <linearGradient x1="49.2541457%" y1="-0.640976809%" x2="50.9832821%" y2="101.051778%" id="linearGradient-24">
            <stop stop-color="#354550" offset="0%"></stop>
            <stop stop-color="#27262F" offset="100%"></stop>
        </linearGradient>
        <linearGradient x1="0%" y1="50.0123082%" x2="100%" y2="50.0123082%" id="linearGradient-25">
            <stop stop-color="#27262F" offset="0%"></stop>
            <stop stop-color="#354550" offset="100%"></stop>
        </linearGradient>
        <linearGradient x1="0.629968805%" y1="50.0215276%" x2="100%" y2="50.0215276%" id="linearGradient-26">
            <stop stop-color="#4E496A" offset="0%"></stop>
            <stop stop-color="#536B91" offset="51%"></stop>
            <stop stop-color="#588FB9" offset="100%"></stop>
        </linearGradient>
        <linearGradient x1="100%" y1="24.1035619%" x2="11.930613%" y2="68.7819937%" id="linearGradient-27">
            <stop stop-color="#F1D899" offset="0%"></stop>
            <stop stop-color="#F1CC6F" offset="58%"></stop>
            <stop stop-color="#F2B51C" offset="84.503703%"></stop>
            <stop stop-color="#D49800" offset="100%"></stop>
        </linearGradient>
        <linearGradient x1="66.54376%" y1="91.1693009%" x2="24.0464733%" y2="13.6731898%" id="linearGradient-28">
            <stop stop-color="#433D5A" offset="0%"></stop>
            <stop stop-color="#445E81" offset="73%"></stop>
            <stop stop-color="#446B90" offset="100%"></stop>
        </linearGradient>
        <linearGradient x1="0%" y1="50%" x2="100%" y2="50%" id="linearGradient-29">
            <stop stop-color="#433D5A" offset="0%"></stop>
            <stop stop-color="#445E81" offset="73%"></stop>
            <stop stop-color="#446B90" offset="100%"></stop>
        </linearGradient>
        <linearGradient x1="50%" y1="0%" x2="50%" y2="100%" id="linearGradient-30">
            <stop stop-color="#F5515F" offset="0%"></stop>
            <stop stop-color="#9F041B" offset="100%"></stop>
        </linearGradient>
        <linearGradient x1="50.0545448%" y1="-4.20369897%" x2="49.9408867%" y2="103.903074%" id="linearGradient-31">
            <stop stop-color="#D55281" offset="0%"></stop>
            <stop stop-color="#D96E82" offset="27%"></stop>
            <stop stop-color="#E09C84" offset="76%"></stop>
            <stop stop-color="#E3AE85" offset="100%"></stop>
        </linearGradient>
        <linearGradient x1="50.3039238%" y1="-2.09678167%" x2="50.1785871%" y2="106.015216%" id="linearGradient-32">
            <stop stop-color="#D55281" offset="0%"></stop>
            <stop stop-color="#D96E82" offset="27%"></stop>
            <stop stop-color="#E09C84" offset="76%"></stop>
            <stop stop-color="#E3AE85" offset="100%"></stop>
        </linearGradient>
    </defs>
    <g id="Page-1" stroke="none" stroke-width="1" fill="none" fill-rule="evenodd">
        <g id="04">
            <rect id="Rectangle" fill="#9D0313" x="0" y="0" width="600" height="600"></rect>
            <polygon id="Path" fill="#FFF1CE" points="311.76 565.63 487.73 464.04 276.96 342.18 101 443.77"></polygon>
            <polygon id="Path" fill="url(#linearGradient-1)" points="487.73 440.03 276.96 318.17 101 419.77 311.76 541.62"></polygon>
            <polygon id="Path" fill="url(#linearGradient-2)" points="311.76 541.62 311.76 545.3 487.73 443.7 487.73 440.03"></polygon>
            <polygon id="Path" fill="url(#linearGradient-3)" points="311.76 545.3 101 423.44 101 419.77 311.76 541.62"></polygon>
            <polygon id="Path" fill="url(#linearGradient-4)" points="313.7 497.93 410.39 442.11 371.71 419.78 275.03 475.6"></polygon>
            <path d="M313.4,496 L406.26,442.43 C404.723017,436.05128 404.723017,429.39872 406.26,423.02 L312.52,476.84 C312.52,476.84 305.6,492.34 312.85,496.53 L313.4,496 Z" id="Path" fill="url(#linearGradient-5)"></path>
            <path d="M410.39,442.11 L314.91,497.2 C308.45,492.44 314.91,478.5 314.91,478.5 L410.39,423.37 L410.39,421.67 L312,476.53 C312,476.53 303.73,494.09 313.67,499.82 L410.39,444 L410.39,442.11 Z" id="Path" fill="url(#linearGradient-6)"></path>
            <polygon id="Path" fill="url(#linearGradient-7)" points="178.34 399.35 313.7 477.5 410.39 421.67 275.03 343.52"></polygon>
            <path d="M313.7,499.83 C305.86,493.83 313.7,477.5 313.7,477.5 L178.34,399.34 C178.34,399.34 170.5,415.65 178.34,421.67 L313.7,499.83 Z" id="Path" fill="url(#linearGradient-8)"></path>
            <path d="M302,490.57 C301.616931,489.060592 301.616931,487.479408 302,485.97 L274.11,469.87 C274.11,469.87 273.11,472.87 274.11,474.47 L302,490.57 Z" id="Path" fill="url(#linearGradient-9)"></path>
            <path d="M302,482.12 C301.616931,480.610592 301.616931,479.029408 302,477.52 L274.11,461.42 C274.11,461.42 273.11,464.42 274.11,466.02 L302,482.12 Z" id="Path" fill="url(#linearGradient-9)"></path>
            <path d="M262.49,467.85 C262.106931,466.340592 262.106931,464.759408 262.49,463.25 L185.76,419 C185.76,419 184.76,422 185.76,423.6 L262.49,467.85 Z" id="Path" fill="url(#linearGradient-9)"></path>
            <path d="M262.49,459.4 C262.106931,457.890592 262.106931,456.309408 262.49,454.8 L185.77,410.51 C185.77,410.51 184.77,413.51 185.77,415.11 L262.49,459.4 Z" id="Path" fill="url(#linearGradient-9)"></path>
            <path d="M346.66,484.19 C341.66,482.64 343.1,472.35 338.33,469.59 L327,476.24 C331.77,479 330.36,489.29 335.33,490.84 C335.33,490.84 335.89,484.16 337.74,483.21 C337.77,483.21 344.12,484.7 346.66,484.19 Z" id="Path" fill="url(#linearGradient-10)"></path>
            <polygon id="Path" fill="url(#linearGradient-11)" points="311.08 465.18 395.08 416.68 356.41 394.35 288.18 452.01"></polygon>
            <path d="M310.78,463.29 L391,417 C390.116095,410.560189 390.116095,404.029811 391,397.59 L309.9,444.13 C309.9,444.13 302.98,459.63 310.23,463.82 L310.78,463.29 Z" id="Path" fill="url(#linearGradient-12)"></path>
            <path d="M395.08,416.68 L312.28,464.45 C305.82,459.69 312.28,445.75 312.28,445.75 L395.08,397.94 L395.08,396.24 L309.41,443.78 C309.41,443.78 301.14,461.34 311.08,467.07 L395.08,418.56 L395.08,416.68 Z" id="Path" fill="url(#linearGradient-13)"></path>
            <polygon id="Path" fill="url(#linearGradient-14)" points="311.08 444.75 395.08 396.24 275.5 327.24 191.49 375.75"></polygon>
            <path d="M311.08,467.08 C303.24,461.08 311.08,444.75 311.08,444.75 L191.49,375.75 C191.49,375.75 183.65,392.06 191.49,398.08 L311.08,467.08 Z" id="Path" fill="url(#linearGradient-15)"></path>
            <path d="M286.89,449.12 C284.16,444.75 286.89,435.57 286.89,435.57 L214.33,393.7 C214.33,393.7 211.38,402.28 214.33,407.25 L286.89,449.12 Z" id="Path" fill="url(#linearGradient-16)"></path>
            <path d="M349.74,463.26 C341.22,460.62 343.65,443 335.49,438.26 L321.7,446.45 C329.86,451.16 327.44,468.77 335.95,471.45 C335.95,471.45 333.73,461.66 336.95,460.03 C336.9,460 345.39,464.14 349.74,463.26 Z" id="Path" fill="url(#linearGradient-17)"></path>
            <polygon id="Path" fill="url(#linearGradient-4)" points="309.88 431.94 378.4 392.39 332.75 366.04 282.86 416.38"></polygon>
            <path d="M309.53,429.71 L373.53,392.82 C372.486592,385.218974 372.486592,377.511026 373.53,369.91 L308.53,407.09 C308.53,407.09 300.36,425.38 308.92,430.33 L309.53,429.71 Z" id="Path" fill="url(#linearGradient-5)"></path>
            <path d="M378.4,392.39 L311.31,431.06 C303.69,425.44 311.31,408.99 311.31,408.99 L378.4,370.27 L378.4,368.27 L307.92,406.68 C307.92,406.68 298.16,427.4 309.92,434.17 L378.43,394.63 L378.4,392.39 Z" id="Path" fill="url(#linearGradient-6)"></path>
            <polygon id="Path" fill="url(#linearGradient-7)" points="214.45 352.72 309.88 407.82 378.4 368.28 282.96 313.18"></polygon>
            <polygon id="Path" fill="#BEC1C3" points="239.52 355.1 305.77 393.34 353.32 365.9 287.08 327.65"></polygon>
            <path d="M309.88,434.17 C300.62,427.07 309.88,407.82 309.88,407.82 L214.44,352.72 C214.44,352.72 205.18,371.97 214.44,379.07 L309.88,434.17 Z" id="Path" fill="url(#linearGradient-8)"></path>
            <path d="M243,395.53 C233.74,388.43 243,369.18 243,369.18 L229.68,361.49 C229.68,361.49 220.42,380.74 229.68,387.84 L243,395.53 Z" id="Path" fill="url(#linearGradient-9)"></path>
            <path d="M295.68,426 C286.42,418.9 295.68,399.65 295.68,399.65 L282.36,391.96 C282.36,391.96 273.1,411.21 282.36,418.31 L295.68,426 Z" id="Path" fill="url(#linearGradient-9)"></path>
            <path d="M225.55,385.47 C216.29,378.37 225.55,359.12 225.55,359.12 L221.14,356.58 C221.14,356.58 211.88,375.83 221.14,382.93 L225.55,385.47 Z" id="Path" fill="url(#linearGradient-9)"></path>
            <path d="M303.38,430.41 C294.12,423.31 303.38,404.06 303.38,404.06 L299,401.52 C299,401.52 289.74,420.77 299,427.87 L303.38,430.41 Z" id="Path" fill="url(#linearGradient-9)"></path>
            <path d="M350,423.84 C342,421.36 344.28,404.84 336.62,400.4 L323.67,408.08 C331.33,412.5 329.06,429.08 337.05,431.52 C337.05,431.52 334.97,422.34 337.95,420.8 C338,420.8 345.92,424.67 350,423.84 Z" id="Path" fill="url(#linearGradient-10)"></path>
            <polygon id="Path" fill="url(#linearGradient-11)" points="305.36 396.75 372.5 357.99 339.48 338.93 285.81 385.51"></polygon>
            <path d="M305.1,395.14 L369,358.3 C368.245457,352.802436 368.245457,347.227564 369,341.73 L304.37,378.78 C304.37,378.78 298.46,392.01 304.65,395.59 L305.1,395.14 Z" id="Path" fill="url(#linearGradient-12)"></path>
            <path d="M372.5,358 L306.38,396.13 C300.87,392.07 306.38,380.13 306.38,380.13 L372.5,342 L372.5,340.55 L303.93,378.49 C303.93,378.49 296.87,393.49 305.35,398.38 L372.49,359.62 L372.5,358 Z" id="Path" fill="url(#linearGradient-11)"></path>
            <polygon id="Path" fill="url(#linearGradient-14)" points="305.36 379.31 372.5 340.55 275.29 284.46 208.14 323.22"></polygon>
            <path d="M305.36,398.37 C298.66,393.23 305.36,379.31 305.36,379.31 L208.15,323.23 C208.15,323.23 201.45,337.16 208.15,342.29 L305.36,398.37 Z" id="Path" fill="url(#linearGradient-15)"></path>
            <path d="M221.63,350.07 C214.93,344.93 221.63,331.01 221.63,331.01 L216.12,327.83 C216.12,327.83 209.42,341.76 216.12,346.89 L221.63,350.07 Z" id="Path" fill="url(#linearGradient-16)"></path>
            <path d="M294.81,392.28 C288.11,387.14 294.81,373.22 294.81,373.22 L289.3,370 C289.3,370 282.6,383.93 289.3,389.06 L294.81,392.28 Z" id="Path" fill="url(#linearGradient-16)"></path>
            <path d="M266.34,372.82 C264.21,369.99 266.75,360.42 266.75,360.42 L242.58,346.42 C242.58,346.42 239.49,356.68 242.15,359.5 L266.34,372.82 Z" id="Path" fill="url(#linearGradient-16)"></path>
            <path d="M312.19,379.68 C321.63,380.95 308.46,400.68 322.8,402.58 C322.8,402.58 320.45,393.16 324.52,388.77 C324.52,388.77 328.35,396.26 333.41,395.19 C329.66,388.33 334.76,376.26 324.07,372.82 L312.19,379.68 Z" id="Path" fill="url(#linearGradient-17)"></path>
            <polygon id="Path" fill="url(#linearGradient-4)" points="316.26 370.93 394.69 325.6 367.9 310.13 300.39 361.8"></polygon>
            <path d="M316.05,369.62 L391.83,325.85 C391.217439,321.38759 391.217439,316.86241 391.83,312.4 L315.44,356.34 C315.44,356.34 310.65,367.08 315.67,369.98 L316.05,369.62 Z" id="Path" fill="url(#linearGradient-5)"></path>
            <path d="M394.69,325.6 L317.09,370.41 C312.62,367.11 317.09,357.41 317.09,357.41 L394.69,312.57 L394.69,311.4 L315.11,356.1 C315.11,356.1 309.38,368.26 316.26,372.24 L394.69,326.91 L394.69,325.6 Z" id="Path" fill="url(#linearGradient-6)"></path>
            <polygon id="Path" fill="url(#linearGradient-7)" points="205.96 293.14 316.26 356.77 394.69 311.45 284.39 247.81"></polygon>
            <path d="M316.26,372.24 C310.82,368.07 316.26,356.77 316.26,356.77 L206,293.14 C206,293.14 200.56,304.44 206,308.61 L316.26,372.24 Z" id="Path" fill="url(#linearGradient-8)"></path>
            <path d="M212.54,312.4 C207.1,308.23 212.54,296.93 212.54,296.93 L210.68,295.85 C210.68,295.85 205.24,307.15 210.68,311.32 L212.54,312.4 Z" id="Path" fill="url(#linearGradient-9)"></path>
            <path d="M216.39,314.63 C210.95,310.46 216.39,299.16 216.39,299.16 L214.53,298.08 C214.53,298.08 209.09,309.38 214.53,313.55 L216.39,314.63 Z" id="Path" fill="url(#linearGradient-9)"></path>
            <path d="M220.26,316.85 C214.82,312.68 220.26,301.38 220.26,301.38 L218.4,300.3 C218.4,300.3 212.96,311.6 218.4,315.77 L220.26,316.85 Z" id="Path" fill="url(#linearGradient-9)"></path>
            <path d="M224.2,319 C218.76,314.83 224.2,303.53 224.2,303.53 L222.34,302.45 C222.34,302.45 216.9,313.75 222.34,317.92 L224.2,319 Z" id="Path" fill="url(#linearGradient-9)"></path>
            <path d="M307.7,367.3 C302.26,363.13 307.7,351.83 307.7,351.83 L303.23,349.25 C303.23,349.25 297.79,360.55 303.23,364.72 L307.7,367.3 Z" id="Path" fill="url(#linearGradient-9)"></path>
            <path d="M284.6,351.72 L284.49,351.72 L233.27,323.24 L233.22,323.24 C231,320.88 233.42,312.76 233.52,312.41 C233.539408,312.348191 233.585072,312.298077 233.644816,312.273023 C233.70456,312.247969 233.77231,312.250522 233.83,312.28 L285.04,341.28 C285.122097,341.329639 285.162562,341.426753 285.14,341.52 C285.14,341.6 283.14,349.21 284.77,351.4 C284.818253,351.46578 284.826143,351.552861 284.7905,351.626243 C284.754858,351.699625 284.681534,351.747259 284.6,351.75 L284.6,351.72 Z M233.51,322.85 L284.07,351 C283.07,348.34 284.42,342.65 284.69,341.59 L233.87,312.76 C233.46,314.14 231.71,320.86 233.51,322.85 Z" id="Shape" fill="url(#linearGradient-9)" fill-rule="nonzero"></path>
            <path d="M337.79,363.84 C332.27,361.2 334.62,354.84 328.46,353.84 L321.21,358.03 C326.97,358.8 322.03,366.67 330.79,367.84 L336.66,367.12 L337.79,363.84 Z" id="Path" fill="url(#linearGradient-10)"></path>
            <polygon id="Path" fill="url(#linearGradient-11)" points="314.2 343.96 379.04 306.52 349.19 289.28 296.52 333.79"></polygon>
            <path d="M314,342.5 L375.89,306.79 C375.206112,301.813385 375.206112,296.766615 375.89,291.79 L313.33,327.69 C313.33,327.69 307.99,339.69 313.59,342.89 L314,342.5 Z" id="Path" fill="url(#linearGradient-18)"></path>
            <path d="M379,306.52 L315.09,343.39 C310.09,339.72 315.09,328.96 315.09,328.96 L379,292.05 L379,290.74 L312.87,327.44 C312.87,327.44 306.49,340.99 314.16,345.44 L379,308 L379,306.52 Z" id="Path" fill="url(#linearGradient-13)"></path>
            <polygon id="Path" fill="url(#linearGradient-14)" points="314.2 328.19 379.04 290.75 286.73 237.48 221.89 274.93"></polygon>
            <path d="M314.2,345.42 C308.14,340.78 314.2,328.18 314.2,328.18 L221.89,274.92 C221.89,274.92 215.83,287.51 221.89,292.16 L314.2,345.42 Z" id="Path" fill="url(#linearGradient-15)"></path>
            <path d="M295.52,331.56 C293.41,328.18 295.52,321.1 295.52,321.1 L239.52,288.78 C239.52,288.78 237.25,295.4 239.52,299.24 L295.52,331.56 Z" id="Path" fill="url(#linearGradient-16)"></path>
            <path d="M225.68,291.1 C223.57,287.72 225.68,280.64 225.68,280.64 L236.14,286.83 C236.14,286.83 233.87,293.45 236.14,297.29 L225.68,291.1 Z" id="Path" fill="url(#linearGradient-16)"></path>
            <path d="M299.27,333.7 C297.16,330.32 299.27,323.24 299.27,323.24 L302.01,324.84 C302.01,324.84 299.74,331.46 302.01,335.3 L299.27,333.7 Z" id="Path" fill="url(#linearGradient-16)"></path>
            <path d="M340.1,335.3 C334.18,328.05 339.34,326.84 333.04,323.2 L322.39,329.52 C329.16,331.27 324.66,339.38 332.13,340.25 C332.13,340.25 331.07,334.99 333.13,332.42 C333.15,332.42 336.74,336 340.1,335.3 Z" id="Path" fill="#D55281"></path>
            <path d="M316.49,101.45 C319.068149,92.0107022 322.333534,82.7727041 326.26,73.81 L330.13,74.38 L325.07,97.93 C322.549659,99.802902 319.599518,101.013216 316.49,101.45 Z" id="Path" fill="#DBAF8C"></path>
            <polygon id="Path" fill="#2E3338" points="298.45 135.89 298.83 135.89 298.74 138.02 297.63 138.11 297.63 137"></polygon>
            <ellipse id="Oval" fill="#CD9F80" transform="translate(303.573636, 141.762830) rotate(-12.740000) translate(-303.573636, -141.762830) " cx="303.573636" cy="141.76283" rx="8.11" ry="5.11"></ellipse>
            <path d="M298.68,131.57 C298.718742,134.296957 298.416398,137.018059 297.78,139.67 C299.55,142.48 307.14,144.24 308.29,141.01 C308.131478,139.319483 308.439294,137.617851 309.18,136.09 C310.36,134 298.68,131.57 298.68,131.57 Z" id="Path" fill="#CD9F80"></path>
            <path d="M298.68,131.57 C298.68,131.57 298.68,132.32 298.68,133.57 C300.516796,137.287779 304.15102,139.786307 308.28,140.17 C308.250351,138.781019 308.5665,137.406457 309.2,136.17 C310.36,134 298.68,131.57 298.68,131.57 Z" id="Path" fill="#BB896E"></path>
            <path d="M329.38,109.1 C329.22,113.2 319.13,129.05 318.06,151.03 C315.91,157.4 303.71,131.03 306.22,120.03 C308.51,110.03 310.85,100.18 314.22,92.5 C317.16,85.75 329.08,88.57 329.38,109.1 Z" id="Path" fill="url(#linearGradient-19)"></path>
            <path d="M283.63,286.42 L283.63,288.86 C283.63,289.97 286.09,291.66 288.02,292.18 C288.077365,292.196889 288.139372,292.184186 288.185475,292.146101 C288.231578,292.108016 288.255757,292.049521 288.25,291.99 L288.25,291.41 C289.12565,291.753767 289.960701,292.193092 290.74,292.72 C290.84,292.79 290.95,293.32 291.05,293.39 C292.46,294.39 293.92,295.28 295.13,296.08 C296.9,297.26 300.22,295.88 301.13,295.48 C301.258866,295.420939 301.341077,295.291752 301.34,295.15 L301.34,294.73 L297.8,294.89 L291.69,291.51 L284.5,287.45 L284.41,286.75 L283.68,286.43" id="Path" fill="#3A3F46"></path>
            <path d="M284.31,284.68 C284.24,285.25 286.31,286.4 288.31,286.43 C290.31,286.46 292.78,287.21 291.96,285.77 C294.858875,288.590225 297.997348,291.153199 301.34,293.43 C301.51,293.55 301.47,294.43 301.47,294.63 C301.471694,294.756357 301.396521,294.871095 301.28,294.92 C300.47,295.25 297.28,296.41 295.54,295.23 C293.54,293.87 290.26,291.39 288.31,290.95 C286.36,290.51 283.7,288.72 283.68,287.57 L283.68,285.88 C283.641175,285.392011 283.886276,284.925151 284.31,284.68 Z" id="Path" fill="#2E3338"></path>
            <path d="M284.93,195.48 C277.35,201.69 284.93,229.05 288.76,243.48 C288.58,243.97 287.57,246.1 287.57,246.1 C287.28,249.81 286.09,253.82 285.88,259.16 C285.53,268.16 284.14,284.97 284.14,284.97 C284.65,287.41 293.03,288.53 292.81,285.1 L298.95,241.7 C299.865565,225.941701 299.383683,210.133276 297.51,194.46 C293.569602,191.911667 288.408383,192.330144 284.93,195.48 Z" id="Path" fill="url(#linearGradient-20)"></path>
            <path d="M312.45,272.09 L312.77,274.51 C312.92,275.61 315.53,277.02 317.51,277.31 C317.566787,277.317241 317.623632,277.297038 317.663113,277.255584 C317.702593,277.214129 317.720001,277.156366 317.71,277.1 L317.61,276.53 C318.520776,276.765596 319.402778,277.100958 320.24,277.53 C320.35,277.59 320.51,278.1 320.62,278.16 C322.14,279.02 323.69,279.71 324.98,280.37 C326.87,281.37 329.98,279.59 330.83,279.1 C330.950265,279.026644 331.016694,278.889879 331,278.75 L330.94,278.33 L327.44,278.89 L321,276.23 L313.37,273 L313.2,272.31 L312.44,272.08" id="Path" fill="#3A3F46"></path>
            <path d="M312.92,270.28 C312.92,270.85 315.13,271.76 317.06,271.57 C318.99,271.38 321.59,271.84 320.62,270.5 C323.750898,273.077557 327.138744,275.326068 330.73,277.21 C330.91,277.31 331.04,278.02 331.07,278.21 C331.085386,278.336385 331.021932,278.459327 330.91,278.52 C330.14,278.94 327.13,280.45 325.24,279.52 C323.06,278.4 319.56,276.3 317.58,276.09 C315.6,275.88 312.75,274.4 312.58,273.26 L312.36,271.58 C312.265489,271.073169 312.486764,270.559494 312.92,270.28 Z" id="Path" fill="#2E3338"></path>
            <path d="M301.1,180.16 C294.27,187.16 307.24,214.95 312.68,228.89 C312.56,229.4 311.8,231.63 311.8,231.63 C311.93,235.35 311.2,239.47 311.6,244.8 C312.27,253.8 312.79,270.64 312.79,270.64 C313.57,273.01 322.02,273.17 321.42,269.79 L322.61,226 C321.735729,210.23706 319.466862,194.582547 315.83,179.22 C315.83,179.22 307,174.09 301.1,180.16 Z" id="Path" fill="url(#linearGradient-20)"></path>
            <path d="M316.92,185 C315.92,184.93 313.35,187.36 307.81,189.2 C306.206474,189.730392 304.808244,190.747604 303.81,192.11 C301.62,191.18 294.51,188.76 289.81,194.06 C288.19,195.88 287.86,198.94 288.36,202.7 C291.23,204.37 296.48,204.16 301.19,203.7 C305.9,203.24 313.08,201.4 316.45,198.94 C316.93,194.15 317.04,190.53 317.33,188.08 L316.92,185 Z" id="Path" fill="#43728F" opacity="0.35" style="mix-blend-mode: multiply;"></path>
            <path d="M308.16,144.79 C308.16,144.79 304.49,146.22 303.28,148.96 C302.07,151.7 310.36,153.73 310.36,153.73 C310.36,153.73 312.8,147.91 312.82,145.73 C312.84,143.55 308.16,144.79 308.16,144.79 Z" id="Path" fill="url(#linearGradient-21)"></path>
            <path d="M298.35,136.74 C298.238961,137.411127 298.300913,138.099484 298.53,138.74 C299.45,141.11 302.6,144.32 308.16,144.82 C306.605816,145.789918 305.309015,147.121026 304.38,148.7 C300.41,147.62 295.58,140.35 298.35,136.74 Z" id="Path" fill="url(#linearGradient-22)"></path>
            <path d="M308.16,144.79 C309.551008,144.940215 310.856039,145.5366 311.88,146.49 C311.88,146.49 311.12,139.06 308.16,137.49 C308.47,137.89 310.22,140.36 308.16,144.79 Z" id="Path" fill="url(#linearGradient-22)"></path>
            <path d="M319.7,146 C319.7,141 317.21,136.3 313.7,134.13 L311.7,133.64 L304.58,134.29 C304.58,134.29 314.94,140.05 310.26,152.29 C310.26,152.29 295.04,145.14 298.47,135.86 C296.493028,136.506607 294.559133,137.278161 292.68,138.17 C292.018891,137.163432 291.165991,136.29694 290.17,135.62 C287.47,132.55 272,118 267,114.81 C261.34,111.17 255.47,135.91 265.23,141.55 C274.34,146.81 280.13,151.33 283.4,158.01 C280.11,188.65 278.73,254.51 281.67,267.11 C288.56,274.11 291.45,273.26 298.45,270.28 C305.45,267.3 307.05,270.28 314.66,267.13 C322.27,263.98 325.94,255.42 325.94,255.42 C325.94,255.42 319.7,154.44 319.7,146 Z" id="Path" fill="url(#linearGradient-23)"></path>
            <ellipse id="Oval" fill="url(#linearGradient-24)" transform="translate(265.724592, 127.033234) rotate(-86.740000) translate(-265.724592, -127.033234) " cx="265.724592" cy="127.033234" rx="10.82" ry="3.23"></ellipse>
            <path d="M267.52,127 C254.3,117.89 248.73,112.06 248.73,112.06 L252.73,107 L267.04,117.74 C267.972314,120.737877 268.137355,123.921795 267.52,127 Z" id="Path" fill="#DBAF8C"></path>
            <path d="M317.16,265.81 C312.16,235.37 312.72,195.46 313.05,171.52 C313.18,162.29 312.89,150.3 311.44,146.14 C311.423817,148.254012 311.013467,150.34646 310.23,152.31 C309.222293,151.814554 308.240973,151.267152 307.29,150.67 C307.58,153.46 307.79,162.67 307.67,171.44 C307.33,195.75 306.86,237 312.05,268.01 C312.929332,267.758187 313.793997,267.457724 314.64,267.11 C315.516168,266.750692 316.359358,266.315713 317.16,265.81 Z" id="Path" fill="url(#linearGradient-25)"></path>
            <path d="M315.12,266.89 C310,236.18 310.45,194.81 310.72,170.17 C310.82,160.9 310.9,154.02 310.62,151.17 C310.506667,151.536667 310.376667,151.91 310.23,152.29 L309.61,151.98 C309.81,155.06 309.74,161.58 309.61,170.14 C309.34,194.89 308.89,236.47 314.06,267.3 L314.6,267.1 L315.12,266.89 Z" id="Path" fill="url(#linearGradient-26)"></path>
            <path d="M247.64,103.29 C248.16,100.19 245.56,99.64 244.89,97.09 C244.22,94.54 242.05,95.9 242.43,97.47 C242.81,99.04 246.69,103.47 246.69,103.47 L247.64,103.29 Z" id="Path" fill="#DBAF8C"></path>
            <rect id="Rectangle" fill="url(#linearGradient-27)" transform="translate(247.722111, 107.039379) rotate(-51.530000) translate(-247.722111, -107.039379) " x="235.257111" y="97.9993793" width="24.93" height="18.08"></rect>
            <path d="M244.46,105 C243.885764,105.633681 243.038409,105.94724 242.19,105.84 C240.879024,105.5211 239.612683,105.040764 238.42,104.41 C237.14,103.57 235.89,103.02 237.03,100.57 C238.17,98.12 241.56,95.67 243.08,97.7 C244.190794,98.9985792 245.085549,100.467327 245.73,102.05 C245.73737,103.167573 245.276858,104.237264 244.46,105 Z" id="Path" fill="#DBAF8C"></path>
            <path d="M326.2,73.31 C326.163552,72.0589618 325.934184,70.8210491 325.52,69.64 C324.96,68 325.62,67.39 326.44,66.16 C327.26,64.93 328.09,65.43 328.09,65.43 C328.09,65.43 328.54,64.2 329.6,64.37 C330.66,64.54 334.01,65.37 334.51,66.55 C335.01,67.73 334.12,71.74 332.84,72.55 C331.56,73.36 330.17,74.12 330.01,74.65 C329.85,75.18 326.39,74.84 326.39,74.84 L326.2,73.31 Z" id="Path" fill="#DBAF8C"></path>
            <path d="M301.26,176.69 C299.2,171.31 300.58,139.17 296.52,136.43 C295.074264,136.595612 293.696128,137.133086 292.52,137.99 C295.8,141.48 294.52,173.2 296.61,178.58 L300.61,180.72 L301.26,176.69 Z" id="Path" fill="url(#linearGradient-27)"></path>
            <path d="M319,167.56 C316.88,162.47 318.07,133.89 310.23,130.84 C308.13,131.05 307.59,131.77 307.59,131.77 C313.73,134.87 312.47,164.39 314.59,169.48 L318.51,171.42 L319,167.56 Z" id="Path" fill="url(#linearGradient-27)"></path>
            <path d="M311.22,116.47 C312.646993,119.106335 313.450899,122.034606 313.57,125.03 C313.4,125.62 314.41,126.76 314.16,129.23 C313.98,131.03 313.62,134.67 313.43,136.54 C313.364708,137.227535 312.849681,137.787525 312.17,137.91 C308.56,138.55 302.8,138.91 298.58,133.19 C298.58,133.19 296.58,130.82 295.58,130.52 C294.58,130.22 290.95,125.52 290.95,121.71 C290.95,117.71 293.18,111.55 301.46,111.55 C305.33296,111.447664 308.998826,113.295621 311.22,116.47 Z" id="Path" fill="#DBAF8C"></path>
            <path d="M313.57,125 C313.450899,122.004606 312.646993,119.076335 311.22,116.44 C310.816682,115.830291 310.34347,115.26982 309.81,114.77 C310.01,115.04 310.11,115.2 310.11,115.2 C311.536993,117.836335 312.340899,120.764606 312.46,123.76 C312.29,124.35 313.3,125.49 313.05,127.96 L312.32,135.27 C312.254708,135.957535 311.739681,136.517525 311.06,136.64 C307.87,137.2 302.99,137.55 298.99,133.64 C303.16,138.82 308.68,138.47 312.17,137.85 C312.849681,137.727525 313.364708,137.167535 313.43,136.48 L314.16,129.17 C314.41,126.76 313.4,125.62 313.57,125 Z" id="Path" fill="#D0A281"></path>
            <path d="M299.83,119.48 C302.09,121.12 298.91,127.79 299.35,129.48 C298.69,129.76 298.27,127.56 297.2,127.62 C296.13,127.68 297.03,129.05 297.03,129.05 L298.75,132.61 L298.54,134.96 C298.19,130.96 290.18,130.62 290.72,120.57 C290.88,118.11 292.37,114.18 293.11,114.86 C293.85,115.54 299.21,117.13 299.83,119.48 Z" id="Path" fill="#695E58"></path>
            <path d="M296.51,130.33 C295.62,129.52 292.31,125.16 290.77,123.12 C291.58,130.72 298.21,131.31 298.53,134.98 L298.74,132.63 L297.28,129.63 L296.51,130.33 Z" id="Path" fill="#4F4641"></path>
            <path d="M297.2,127.64 C295.61,125.99 293.6,127.4 294.9,129.37 C295.18,129.79 295.79,130.04 296.01,130.43 C296.13,130.65 296.25,130.83 296.37,131 C296.750122,131.314558 297.113929,131.648326 297.46,132 C297.856776,132.112052 298.28165,131.969104 298.53,131.64 L297.2,127.64 Z" id="Path" fill="#C3967A" opacity="0.4" style="mix-blend-mode: multiply;"></path>
            <path d="M298.42,127.73 C297.42,125.67 295.07,126.4 295.7,128.67 C295.84,129.16 296.35,129.58 296.43,130.02 C296.87,132.22 297.67,132.42 298.43,132.02" id="Path" fill="#DBAF8C"></path>
            <path d="M298.17,120.17 C303.97,122.07 311.9,119.07 312.42,118.81 C313.94,118.41 313.31,115.23 311.35,114.36 C309.39,113.49 305.59,111 301,111 C296.67,111 292.7,112.41 291.38,117.38 C293,118.14 298.17,120.17 298.17,120.17 Z" id="Path" fill="#695E58"></path>
            <path d="M342.78,80.36 C346.01,84.19 350.61,85.62 353.06,83.56 L362.77,75.63 L351,61.83 L341.38,69.69 C338.91,71.75 339.55,76.53 342.78,80.36 Z" id="Path" fill="url(#linearGradient-28)"></path>
            <ellipse id="Oval" fill="#2E3338" transform="translate(356.843995, 68.787280) rotate(-40.130000) translate(-356.843995, -68.787280) " cx="356.843995" cy="68.7872802" rx="5.8" ry="9.07"></ellipse>
            <polygon id="Path" fill="url(#linearGradient-29)" points="345.57 53 366.44 60.92 370.02 82.96 349.14 75.04"></polygon>
            <circle id="Oval" fill="url(#linearGradient-30)" transform="translate(358.288041, 67.545081) rotate(-39.220000) translate(-358.288041, -67.545081) " cx="358.288041" cy="67.5450807" r="1.36"></circle>
            <path d="M362.3,86.61 C362.176125,86.6109638 362.055827,86.5685054 361.96,86.49 C357.8,83.03 358.3,77.6 358.66,73.63 C358.89,71.18 359.08,69.07 358.16,68.4 C357.922518,68.2260303 357.87103,67.8924825 358.045,67.655 C358.21897,67.4175176 358.552518,67.3660303 358.79,67.54 C360.2,68.54 359.99,70.85 359.73,73.73 C359.37,77.67 358.92,82.58 362.65,85.68 C362.823853,85.8223997 362.889,86.0589601 362.812562,86.2702885 C362.736124,86.4816169 362.534721,86.6217651 362.31,86.62 L362.3,86.61 Z" id="Path" fill="url(#linearGradient-27)"></path>
            <path d="M363.06,88.61 L361.16,86.28 C360.999594,86.0869197 360.923076,85.8377031 360.947496,85.5878755 C360.971915,85.3380479 361.095242,85.108365 361.29,84.95 C361.48308,84.7895939 361.732297,84.7130764 361.982124,84.7374957 C362.231952,84.7619149 362.461635,84.8852421 362.62,85.08 L364.52,87.41 C364.680406,87.6030803 364.756924,87.8522969 364.732504,88.1021245 C364.708085,88.3519521 364.584758,88.581635 364.39,88.74 C364.19692,88.9004061 363.947703,88.9769236 363.697876,88.9525043 C363.448048,88.9280851 363.218365,88.8047579 363.06,88.61 Z" id="Path" fill="url(#linearGradient-30)"></path>
            <path d="M378.48,203.35 C366.18,197.43 358.32,208.6 358.32,208.6 C358.32,208.6 379.47,218.69 379.71,226.88 C379.95,235.07 383.64,211.61 383.64,211.61 L378.48,203.35 Z" id="Path" fill="url(#linearGradient-7)"></path>
            <path d="M366.68,247.94 C366.68,247.94 384.63,226.21 378.48,203.35 C378.48,203.35 397.9,216.63 396.18,235.35 L366.68,247.94 Z" id="Path" fill="url(#linearGradient-30)"></path>
            <path d="M342.6,143 C342.6,143 356.41,139.89 364.8,145.8 L364.56,160 C364.56,160 351.82,155.24 342.92,158.79 L342.6,143 Z" id="Path" fill="url(#linearGradient-7)"></path>
            <path d="M234.09,244.61 C234.09,244.61 228.66,229.88 240.09,219.85 L223.26,218.07 C211.81,228.07 217.26,242.83 217.26,242.83 L234.09,244.61 Z" id="Path" fill="url(#linearGradient-7)"></path>
            <path d="M226.91,177 C226.91,177 222.17,157.49 219.81,150.55 L251,149.08 C250.45,151.08 251.65,163.39 253.37,166.83 L229.1,177.74 L226.91,177 Z" id="Path" fill="url(#linearGradient-7)"></path>
            <path d="M230,181.87 C230,181.87 227.59,181.87 226.06,177.97 C226.06,177.97 243.97,158.14 244.5,156.04 L253.37,166.82 L230,181.87 Z" id="Path" fill="url(#linearGradient-30)"></path>
            <path d="M263.39,208 C262.511798,201.585653 260.997676,195.274579 258.87,189.16 C258.87,189.16 268.12,184.53 271.1,179.25 C271.1,179.25 282.89,185.2 286.96,204.58 L263.39,208 Z" id="Path" fill="url(#linearGradient-7)"></path>
            <path d="M241.88,189 L242.03,189.74 L238.51,190.46 L238.36,189.72 C238.262732,189.253049 238.355852,188.766589 238.618694,188.368571 C238.881536,187.970553 239.29236,187.693899 239.76,187.6 C240.226951,187.502732 240.713411,187.595852 241.111429,187.858694 C241.509447,188.121536 241.786101,188.53236 241.88,189 Z" id="Path" fill="#FFF1CE"></path>
            <rect id="Rectangle" fill="url(#linearGradient-31)" transform="translate(243.665300, 206.887000) rotate(-101.534621) translate(-243.665300, -206.887000) " x="227.91215" y="205.091641" width="31.5062994" height="3.59071793"></rect>
            <polygon id="Path" fill="#FFF1CE" points="249.65 227.16 249.68 235 249.17 235.11 246.13 227.88"></polygon>
            <rect id="Rectangle" fill="url(#linearGradient-7)" transform="translate(240.488833, 191.203214) rotate(-101.520000) translate(-240.488833, -191.203214) " x="239.213833" y="189.043214" width="2.55" height="4.32"></rect>
            <rect id="Rectangle" fill="#FFF1CE" transform="translate(240.803602, 192.718694) rotate(-101.520000) translate(-240.803602, -192.718694) " x="240.538602" y="190.923694" width="1" height="3.59"></rect>
            <polygon id="Path" fill="url(#linearGradient-7)" points="248.6 220.87 249.89 227.21 249.8 227.34 246.06 228.1 245.93 228.01 244.64 221.67 244.73 221.54 248.47 220.78"></polygon>
            <path d="M238.36,190.89 L237.73,191.02 C237.515234,191.065105 237.376911,191.274821 237.42,191.49 L239.68,202.59 C239.684846,202.619408 239.701418,202.645591 239.725923,202.662556 C239.750428,202.679521 239.780768,202.685816 239.81,202.68 L239.87,202.68 C240.118167,202.629756 240.27907,202.388402 240.23,202.14 L238.18,192 L238.57,191.92 L238.36,190.89 Z" id="Path" fill="#FFF1CE"></path>
            <path d="M405.15,200.07 L404.43,199.69 L406.24,196.23 L406.96,196.61 C407.889781,197.12867 408.250253,198.284818 407.78,199.24 C407.264743,200.1735 406.107756,200.538633 405.15,200.07 Z" id="Path" fill="#FFF1CE"></path>
            <rect id="Rectangle" fill="url(#linearGradient-32)" transform="translate(388.770933, 189.312252) rotate(27.610000) translate(-388.770933, -189.312252) " x="371.650933" y="187.362252" width="34.24" height="3.9"></rect>
            <polygon id="Path" fill="#FFF1CE" points="367.69 180.48 361.06 175.13 361.32 174.63 369.5 177.02"></polygon>
            <rect id="Rectangle" fill="url(#linearGradient-7)" transform="translate(404.273998, 197.420080) rotate(27.610000) translate(-404.273998, -197.420080) " x="402.888998" y="195.07508" width="2.77" height="4.69"></rect>
            <rect id="Rectangle" fill="#FFF1CE" transform="translate(402.807280, 196.635111) rotate(27.610000) translate(-402.807280, -196.635111) " x="402.51728" y="194.685111" width="1" height="3.9"></rect>
            <polygon id="Path" fill="#FFF1CE" points="373.71 183.91 367.48 180.65 367.43 180.49 369.35 176.81 369.51 176.76 375.74 180.02 375.79 180.18 373.87 183.86"></polygon>
            <path d="M406,195.84 L406.32,195.22 C406.430111,195.0101 406.349601,194.750679 406.14,194.64 L395.23,188.94 C395.201166,188.922537 395.166316,188.918008 395.133976,188.92752 C395.101636,188.937031 395.074788,188.959707 395.06,188.99 L395.06,189.05 C394.93504,189.293186 395.028587,189.591647 395.27,189.72 L405.19,194.91 L404.99,195.3 L406,195.84 Z" id="Path" fill="#FFF1CE"></path>
        </g>
    </g>
</svg>