<svg xmlns="http://www.w3.org/2000/svg" xmlns:xlink="http://www.w3.org/1999/xlink" viewBox="85 0 255 585"><defs><style>.cls-1{isolation:isolate;}.cls-2{fill:#500099;}.cls-3{fill:url(#Degradado_sin_nombre_32);}.cls-19,.cls-22,.cls-26,.cls-29,.cls-32,.cls-4,.cls-6{mix-blend-mode:color-dodge;}.cls-4{fill:url(#Degradado_sin_nombre_306);}.cls-5{fill:#6c91ea;}.cls-6{fill:url(#Degradado_sin_nombre_30);}.cls-7{fill:#e9bfff;}.cls-8{fill:#55d5c6;}.cls-9{fill:#73ebff;}.cls-10{fill:url(#Degradado_sin_nombre_23);}.cls-11{fill:url(#Degradado_sin_nombre_30-2);}.cls-12{fill:url(#Degradado_sin_nombre_30-3);}.cls-13{fill:url(#Degradado_sin_nombre_22);}.cls-14{fill:url(#Degradado_sin_nombre_30-4);}.cls-15{fill:url(#Degradado_sin_nombre_30-5);}.cls-16{fill:url(#Degradado_sin_nombre_11);}.cls-17{fill:#a29afb;}.cls-18{fill:#6b5bdf;}.cls-19{fill:url(#Degradado_sin_nombre_19);}.cls-20{fill:#4505b3;}.cls-21{fill:url(#Degradado_sin_nombre_29);}.cls-22{fill:url(#Degradado_sin_nombre_28);}.cls-23{fill:url(#Degradado_sin_nombre_302);}.cls-24{fill:url(#Degradado_sin_nombre_301);}.cls-25{fill:url(#Degradado_sin_nombre_24);}.cls-26{fill:url(#Degradado_sin_nombre_19-2);}.cls-27{fill:url(#Degradado_sin_nombre_23-2);}.cls-28{fill:url(#Degradado_sin_nombre_22-2);}.cls-29{fill:url(#Degradado_sin_nombre_19-3);}.cls-30{fill:url(#Degradado_sin_nombre_18);}.cls-31{fill:url(#Degradado_sin_nombre_17);}.cls-32{fill:url(#Degradado_sin_nombre_16);}.cls-33{fill:url(#Degradado_sin_nombre_11-2);}.cls-34{fill:url(#Degradado_sin_nombre_292);}.cls-35{fill:url(#Degradado_sin_nombre_292-2);}.cls-36{fill:url(#Degradado_sin_nombre_292-3);}.cls-37{fill:url(#Degradado_sin_nombre_292-4);}.cls-38{fill:url(#Degradado_sin_nombre_292-5);}.cls-39,.cls-40,.cls-41,.cls-62,.cls-63{mix-blend-mode:multiply;}.cls-39{fill:url(#Degradado_sin_nombre_4);}.cls-40{fill:url(#Degradado_sin_nombre_4-2);}.cls-41{fill:url(#Degradado_sin_nombre_4-3);}.cls-42{fill:url(#Degradado_sin_nombre_292-6);}.cls-43{fill:#0db1c2;}.cls-44{fill:#007177;}.cls-45{fill:url(#Degradado_sin_nombre_10);}.cls-46{fill:url(#Degradado_sin_nombre_9);}.cls-47{fill:url(#Degradado_sin_nombre_6);}.cls-48{fill:url(#Degradado_sin_nombre_5);}.cls-49{fill:#2d2d4f;}.cls-50{fill:#46466c;}.cls-51{fill:#010400;}.cls-52{fill:#1c1c38;}.cls-53{fill:url(#Degradado_sin_nombre_8);}.cls-54{fill:#894258;}.cls-55{fill:url(#Degradado_sin_nombre_6-2);}.cls-56{fill:#331202;}.cls-57{fill:#ac5e74;}.cls-58{fill:url(#Degradado_sin_nombre_7);}.cls-59{fill:#bdcefa;}.cls-60{fill:url(#Degradado_sin_nombre_6-3);}.cls-61{fill:url(#Degradado_sin_nombre_5-2);}.cls-62{fill:url(#Degradado_sin_nombre_4-4);}.cls-63{fill:url(#Degradado_sin_nombre_4-5);}.cls-64{fill:url(#Degradado_sin_nombre_2);}.cls-65{fill:url(#Degradado_sin_nombre_3);}.cls-66{fill:url(#Degradado_sin_nombre_3-2);}.cls-67{fill:#705fdf;}.cls-68{fill:#e5a89c;}.cls-69{fill:url(#Degradado_sin_nombre_2-2);}.cls-70{fill:#e58800;fill-rule:evenodd;}.cls-71{fill:#fcc4b7;}.cls-72{fill:url(#Degradado_sin_nombre_2-3);}.cls-73{fill:#8737a8;}.cls-74{fill:#e28c66;}.cls-75{fill:url(#Degradado_sin_nombre_2-4);}.cls-76{fill:url(#Degradado_sin_nombre_2-5);}.cls-77{fill:#dd936f;}.cls-78{fill:url(#Degradado_sin_nombre_2-6);}.cls-79{fill:#943bbb;}.cls-80{fill:#f9ab83;}.cls-81{fill:url(#Degradado_sin_nombre_2-7);}</style><linearGradient id="Degradado_sin_nombre_32" x1="158.74" y1="47.32" x2="182.57" y2="237.24" gradientUnits="userSpaceOnUse"><stop offset="0" stop-color="#5861d6"/><stop offset="0.28" stop-color="#4646b8" stop-opacity="0.65"/><stop offset="0.53" stop-color="#37309f" stop-opacity="0.37"/><stop offset="0.74" stop-color="#2c208e" stop-opacity="0.17"/><stop offset="0.9" stop-color="#251783" stop-opacity="0.05"/><stop offset="1" stop-color="#23137f" stop-opacity="0"/></linearGradient><linearGradient id="Degradado_sin_nombre_306" x1="140.45" y1="114.01" x2="215.22" y2="244.22" gradientUnits="userSpaceOnUse"><stop offset="0" stop-color="#55d5c6"/><stop offset="0.19" stop-color="#4bafb8" stop-opacity="0.81"/><stop offset="0.75" stop-color="#2f408f" stop-opacity="0.23"/><stop offset="1" stop-color="#23137f" stop-opacity="0"/></linearGradient><linearGradient id="Degradado_sin_nombre_30" x1="362.19" y1="-156.72" x2="95.03" y2="287.8" gradientUnits="userSpaceOnUse"><stop offset="0" stop-color="#fff"/><stop offset="0.1" stop-color="#eee" stop-opacity="0.93"/><stop offset="0.3" stop-color="#c2c3c2" stop-opacity="0.76"/><stop offset="0.57" stop-color="#7b7d7b" stop-opacity="0.48"/><stop offset="0.91" stop-color="#1b1e1a" stop-opacity="0.1"/><stop offset="1" stop-color="#010400" stop-opacity="0"/></linearGradient><linearGradient id="Degradado_sin_nombre_23" x1="407.54" y1="292.51" x2="336.28" y2="281.01" gradientUnits="userSpaceOnUse"><stop offset="0.31" stop-color="#ac36a8"/><stop offset="0.48" stop-color="#9b36a8"/><stop offset="0.81" stop-color="#7037a8"/><stop offset="1" stop-color="#5337a8"/></linearGradient><linearGradient id="Degradado_sin_nombre_30-2" x1="377" y1="201.17" x2="328.96" y2="281.11" xlink:href="#Degradado_sin_nombre_30"/><linearGradient id="Degradado_sin_nombre_30-3" x1="444.43" y1="224.87" x2="366.21" y2="355.03" xlink:href="#Degradado_sin_nombre_30"/><linearGradient id="Degradado_sin_nombre_22" x1="420.1" y1="271.61" x2="394.73" y2="299.58" gradientUnits="userSpaceOnUse"><stop offset="0" stop-color="#0db1c2"/><stop offset="0.28" stop-color="#0aa3b1"/><stop offset="0.83" stop-color="#037d86"/><stop offset="1" stop-color="#007177"/></linearGradient><linearGradient id="Degradado_sin_nombre_30-4" x1="355.37" y1="239.2" x2="333.58" y2="275.44" xlink:href="#Degradado_sin_nombre_30"/><linearGradient id="Degradado_sin_nombre_30-5" x1="425.88" y1="144.18" x2="317.29" y2="324.87" xlink:href="#Degradado_sin_nombre_30"/><linearGradient id="Degradado_sin_nombre_11" x1="374.96" y1="228.91" x2="325.72" y2="310.84" gradientUnits="userSpaceOnUse"><stop offset="0.43" stop-color="#0084e9"/><stop offset="0.58" stop-color="#0973e4"/><stop offset="0.86" stop-color="#2048d8"/><stop offset="1" stop-color="#2c30d1"/></linearGradient><linearGradient id="Degradado_sin_nombre_19" x1="141.19" y1="388.08" x2="141.19" y2="293.49" gradientUnits="userSpaceOnUse"><stop offset="0.07" stop-color="#55d1ff"/><stop offset="0.16" stop-color="#4fc3ee" stop-opacity="0.93"/><stop offset="0.35" stop-color="#41a0c2" stop-opacity="0.76"/><stop offset="0.6" stop-color="#29677b" stop-opacity="0.48"/><stop offset="0.92" stop-color="#0a191a" stop-opacity="0.1"/><stop offset="1" stop-color="#010400" stop-opacity="0"/></linearGradient><linearGradient id="Degradado_sin_nombre_29" x1="322.04" y1="378.91" x2="205.6" y2="336.72" gradientUnits="userSpaceOnUse"><stop offset="0" stop-color="#6b5bdf"/><stop offset="0.06" stop-color="#6854db"/><stop offset="0.48" stop-color="#5529c6"/><stop offset="0.81" stop-color="#490fb8"/><stop offset="1" stop-color="#4505b3"/></linearGradient><linearGradient id="Degradado_sin_nombre_28" x1="553.82" y1="187.93" x2="553.82" y2="315.03" gradientTransform="matrix(-0.87, 0.5, -1, -0.58, 1070.51, 222.79)" gradientUnits="userSpaceOnUse"><stop offset="0" stop-color="#55d5c6"/><stop offset="0.27" stop-color="#4492ad" stop-opacity="0.65"/><stop offset="0.53" stop-color="#365b9a" stop-opacity="0.37"/><stop offset="0.74" stop-color="#2c348b" stop-opacity="0.17"/><stop offset="0.9" stop-color="#251c82" stop-opacity="0.05"/><stop offset="1" stop-color="#23137f" stop-opacity="0"/></linearGradient><linearGradient id="Degradado_sin_nombre_302" x1="292.36" y1="334.83" x2="275.57" y2="367.2" gradientUnits="userSpaceOnUse"><stop offset="0" stop-color="#705fdf"/><stop offset="0.19" stop-color="#6e5adc"/><stop offset="0.41" stop-color="#664bd5"/><stop offset="0.66" stop-color="#5b32c9"/><stop offset="0.92" stop-color="#4a10b9"/><stop offset="1" stop-color="#4505b3"/></linearGradient><linearGradient id="Degradado_sin_nombre_301" x1="349.49" y1="295.16" x2="342.15" y2="331.16" gradientUnits="userSpaceOnUse"><stop offset="0" stop-color="#705fdf"/><stop offset="0.24" stop-color="#6e5cdd"/><stop offset="0.44" stop-color="#6951d8"/><stop offset="0.63" stop-color="#6140d0"/><stop offset="0.81" stop-color="#5527c4"/><stop offset="0.99" stop-color="#4607b4"/><stop offset="1" stop-color="#4505b3"/></linearGradient><linearGradient id="Degradado_sin_nombre_24" x1="312.48" y1="177.73" x2="246.3" y2="257.13" gradientUnits="userSpaceOnUse"><stop offset="0.05" stop-color="#e185bb"/><stop offset="1" stop-color="#ac36a8"/></linearGradient><linearGradient id="Degradado_sin_nombre_19-2" x1="246.8" y1="304.05" x2="246.8" y2="141.53" xlink:href="#Degradado_sin_nombre_19"/><linearGradient id="Degradado_sin_nombre_23-2" x1="288.32" y1="171.66" x2="236.04" y2="226.59" xlink:href="#Degradado_sin_nombre_23"/><linearGradient id="Degradado_sin_nombre_22-2" x1="255.78" y1="238.72" x2="209.1" y2="287.79" xlink:href="#Degradado_sin_nombre_22"/><linearGradient id="Degradado_sin_nombre_19-3" x1="201.25" y1="322.72" x2="201.25" y2="207.56" xlink:href="#Degradado_sin_nombre_19"/><linearGradient id="Degradado_sin_nombre_18" x1="243.98" y1="228.74" x2="191.32" y2="267.04" gradientUnits="userSpaceOnUse"><stop offset="0.42" stop-color="#0db1c2"/><stop offset="0.58" stop-color="#0aa3b1"/><stop offset="0.9" stop-color="#037d86"/><stop offset="1" stop-color="#007177"/></linearGradient><linearGradient id="Degradado_sin_nombre_17" x1="214.18" y1="270.47" x2="175.16" y2="318.27" gradientUnits="userSpaceOnUse"><stop offset="0" stop-color="#7de7e8"/><stop offset="0.99" stop-color="#0084e9"/></linearGradient><linearGradient id="Degradado_sin_nombre_16" x1="156.7" y1="342.98" x2="156.7" y2="262.02" gradientUnits="userSpaceOnUse"><stop offset="0" stop-color="#ffe0ad"/><stop offset="0.43" stop-color="#ffc291"/><stop offset="0.63" stop-color="#ffb188"/><stop offset="1" stop-color="#ff8871"/></linearGradient><linearGradient id="Degradado_sin_nombre_11-2" x1="197.78" y1="270.65" x2="134.37" y2="314.06" xlink:href="#Degradado_sin_nombre_11"/><linearGradient id="Degradado_sin_nombre_292" x1="200.12" y1="161.18" x2="161.45" y2="264.31" gradientUnits="userSpaceOnUse"><stop offset="0" stop-color="#a29afb"/><stop offset="1" stop-color="#4505b3"/></linearGradient><linearGradient id="Degradado_sin_nombre_292-2" x1="297.32" y1="29.5" x2="266.39" y2="115.44" xlink:href="#Degradado_sin_nombre_292"/><linearGradient id="Degradado_sin_nombre_292-3" x1="247.03" y1="82.03" x2="206.64" y2="195.47" xlink:href="#Degradado_sin_nombre_292"/><linearGradient id="Degradado_sin_nombre_292-4" x1="219.94" y1="224.71" x2="198.07" y2="196.5" xlink:href="#Degradado_sin_nombre_292"/><linearGradient id="Degradado_sin_nombre_292-5" x1="267.32" y1="152.65" x2="258.38" y2="121.36" xlink:href="#Degradado_sin_nombre_292"/><linearGradient id="Degradado_sin_nombre_4" x1="240.09" y1="168.31" x2="269.22" y2="149.26" gradientUnits="userSpaceOnUse"><stop offset="0" stop-color="#ac36a8" stop-opacity="0"/><stop offset="0.14" stop-color="#a336a8" stop-opacity="0.1"/><stop offset="0.42" stop-color="#8c36a8" stop-opacity="0.36"/><stop offset="0.81" stop-color="#6737a8" stop-opacity="0.78"/><stop offset="1" stop-color="#5337a8"/></linearGradient><linearGradient id="Degradado_sin_nombre_4-2" x1="201.15" y1="232.04" x2="218.27" y2="220.85" xlink:href="#Degradado_sin_nombre_4"/><linearGradient id="Degradado_sin_nombre_4-3" x1="144.54" y1="277.69" x2="163.13" y2="265.54" xlink:href="#Degradado_sin_nombre_4"/><linearGradient id="Degradado_sin_nombre_292-6" x1="116.44" y1="337.92" x2="99.57" y2="400.68" xlink:href="#Degradado_sin_nombre_292"/><linearGradient id="Degradado_sin_nombre_10" x1="291.22" y1="411.31" x2="140.33" y2="408.73" gradientUnits="userSpaceOnUse"><stop offset="0" stop-color="#b6b9fe"/><stop offset="1" stop-color="#5861d6"/></linearGradient><linearGradient id="Degradado_sin_nombre_9" x1="289.28" y1="397.73" x2="117.38" y2="424.64" gradientUnits="userSpaceOnUse"><stop offset="0" stop-color="#e8e9ff"/><stop offset="1" stop-color="#c0c0f6"/></linearGradient><linearGradient id="Degradado_sin_nombre_6" x1="75.6" y1="313.63" x2="83.1" y2="292.02" gradientTransform="matrix(-0.95, 0.32, 0.32, 0.95, 217.31, -104.46)" gradientUnits="userSpaceOnUse"><stop offset="0.07" stop-color="#ac5e74"/><stop offset="0.57" stop-color="#9b5167"/><stop offset="1" stop-color="#894258"/></linearGradient><linearGradient id="Degradado_sin_nombre_5" x1="240.64" y1="202.36" x2="228.49" y2="196.29" gradientUnits="userSpaceOnUse"><stop offset="0.07" stop-color="#73ebff"/><stop offset="0.21" stop-color="#6edaf4"/><stop offset="0.47" stop-color="#60aed7"/><stop offset="0.84" stop-color="#4968a8"/><stop offset="1" stop-color="#3f4893"/></linearGradient><linearGradient id="Degradado_sin_nombre_8" x1="78.19" y1="208.64" x2="98.61" y2="208.64" gradientTransform="matrix(-1, 0, 0, 1, 311.31, 0)" gradientUnits="userSpaceOnUse"><stop offset="0.07" stop-color="#fff"/><stop offset="0.35" stop-color="#eef0f1"/><stop offset="0.89" stop-color="#c3c9ce"/><stop offset="1" stop-color="#b9c0c6"/></linearGradient><linearGradient id="Degradado_sin_nombre_6-2" x1="82.64" y1="187.21" x2="98.77" y2="181.74" gradientTransform="matrix(-1, 0, 0, 1, 311.31, 0)" xlink:href="#Degradado_sin_nombre_6"/><linearGradient id="Degradado_sin_nombre_7" x1="-265.77" y1="229.76" x2="-296.48" y2="218.96" gradientTransform="matrix(-1, 0, 0, 1, -57.07, 0)" gradientUnits="userSpaceOnUse"><stop offset="0" stop-color="#fff"/><stop offset="0.58" stop-color="#dae4fc"/><stop offset="1" stop-color="#bdcefa"/></linearGradient><linearGradient id="Degradado_sin_nombre_6-3" x1="126.92" y1="399.87" x2="126.92" y2="375.58" gradientTransform="matrix(-0.81, 0.58, 0.58, 0.81, 101.3, -176.17)" xlink:href="#Degradado_sin_nombre_6"/><linearGradient id="Degradado_sin_nombre_5-2" x1="222.54" y1="209.12" x2="210.12" y2="200.67" xlink:href="#Degradado_sin_nombre_5"/><linearGradient id="Degradado_sin_nombre_4-4" x1="307.8" y1="358.52" x2="349.03" y2="332.44" xlink:href="#Degradado_sin_nombre_4"/><linearGradient id="Degradado_sin_nombre_4-5" x1="361.29" y1="262.46" x2="381.29" y2="247.46" xlink:href="#Degradado_sin_nombre_4"/><linearGradient id="Degradado_sin_nombre_2" x1="243.13" y1="222.82" x2="240.44" y2="201.29" gradientTransform="matrix(0.96, -0.29, -0.29, -0.96, 204.13, 456.81)" gradientUnits="userSpaceOnUse"><stop offset="0.07" stop-color="#fcc4b7"/><stop offset="0.31" stop-color="#f7b8a6"/><stop offset="0.79" stop-color="#e99a7b"/><stop offset="1" stop-color="#e28c66"/></linearGradient><linearGradient id="Degradado_sin_nombre_3" x1="231.24" y1="251.9" x2="231.24" y2="221.73" gradientTransform="matrix(-1, 0, 0, 1, 616.91, 0)" gradientUnits="userSpaceOnUse"><stop offset="0.07" stop-color="#3a55ca"/><stop offset="0.27" stop-color="#354cb9"/><stop offset="0.66" stop-color="#28368e"/><stop offset="1" stop-color="#1b2062"/></linearGradient><linearGradient id="Degradado_sin_nombre_3-2" x1="239.15" y1="247.71" x2="239.15" y2="217.16" xlink:href="#Degradado_sin_nombre_3"/><linearGradient id="Degradado_sin_nombre_2-2" x1="239.33" y1="195.87" x2="228.33" y2="182.12" gradientTransform="matrix(-1, 0, 0, 1, 616.91, 0)" xlink:href="#Degradado_sin_nombre_2"/><linearGradient id="Degradado_sin_nombre_2-3" x1="222.02" y1="227.38" x2="222.02" y2="205.85" gradientTransform="matrix(1, -0.01, -0.01, -1, 170.35, 411.31)" xlink:href="#Degradado_sin_nombre_2"/><linearGradient id="Degradado_sin_nombre_2-4" x1="329.02" y1="345.43" x2="329.02" y2="321.52" gradientTransform="matrix(1, 0, 0, 1, 0, 0)" xlink:href="#Degradado_sin_nombre_2"/><linearGradient id="Degradado_sin_nombre_2-5" x1="350.12" y1="311.17" x2="336.46" y2="285.95" gradientTransform="matrix(1, 0, 0, 1, 0, 0)" xlink:href="#Degradado_sin_nombre_2"/><linearGradient id="Degradado_sin_nombre_2-6" x1="312.5" y1="315.22" x2="323.44" y2="290.41" gradientTransform="matrix(1, 0, 0, 1, 0, 0)" xlink:href="#Degradado_sin_nombre_2"/><linearGradient id="Degradado_sin_nombre_2-7" x1="341.27" y1="278.76" x2="321.93" y2="277.5" gradientTransform="matrix(1, 0, 0, 1, 0, 0)" xlink:href="#Degradado_sin_nombre_2"/></defs><title>01</title><g class="cls-1"><g id="BACKGROUND"><rect class="cls-2" width="500" height="500"/></g><g id="OBJECTS"><path class="cls-3" d="M245.4,154.25,93.19,242.13c-4.89,2.82-8.9-.2-8.9-6.72V125.65c0-6.52,4-14.17,8.9-17L245.4,20.77c4.89-2.82,8.9.2,8.9,6.72V137.25C254.29,143.78,250.29,151.42,245.4,154.25Z"/><path class="cls-4" d="M223,71l-18.23,47.48c-4.46,11.62-16.06,17.13-19.07,9.06L179,109.75c-3.54-9.47-17.42-2.13-21.79,11.52L142.46,167.5c-3.42,10.69-14,17.34-18.06,11.39-7.35-10.66-25.29-2.21-34.88,16.42l-5.23,10.17V235.4c0,6.52,4,9.55,8.9,6.72L245.4,154.25c4.89-2.82,8.9-10.47,8.9-17V89.94l-19-26.14C232.55,60,225.72,64,223,71Z"/><polygon class="cls-5" points="254.29 119.63 84.29 217.78 84.29 215.3 254.29 117.15 254.29 119.63"/><polygon class="cls-5" points="254.29 88.32 84.29 186.47 84.29 183.99 254.29 85.84 254.29 88.32"/><polygon class="cls-5" points="254.29 57.01 84.29 155.15 84.29 152.67 254.29 54.52 254.29 57.01"/><polygon class="cls-5" points="81.71 159.88 73.46 164.64 73.46 155.11 81.71 150.35 81.71 159.88"/><polygon class="cls-5" points="81.71 191.48 73.46 196.25 73.46 186.72 81.71 181.96 81.71 191.48"/><polygon class="cls-5" points="81.71 223.09 73.46 227.86 73.46 218.33 81.71 213.56 81.71 223.09"/><path class="cls-6" d="M260.29,162.26,108.08,250.14c-4.89,2.82-8.9-.2-8.9-6.72V133.66c0-6.52,4-14.17,8.9-17L260.29,28.79c4.89-2.82,8.89.2,8.89,6.72V145.26C269.18,151.79,265.18,159.43,260.29,162.26Z"/><path class="cls-7" d="M381.45,251.28,402.77,267c-13.71,6.19-33.48,5.5-45.79-1.61-5.18-3-8.58-6.85-9.72-11Z"/><path class="cls-8" d="M381.45,251.28l4.24-19.83a47.92,47.92,0,0,1,20.23,5.7c13.42,7.75,13.42,20.5,0,28.25q-1.48.86-3.14,1.61Z"/><path class="cls-9" d="M381.45,251.28l-34.18,3.1c-1.71-6.3,1.9-12.71,9.72-17.22,7.53-4.35,18.13-6.45,28.7-5.7Z"/><path class="cls-10" d="M357,265.41c-5.18-3-8.58-6.85-9.72-11v44.69c1.13,4.18,4.54,8,9.72,11,12.31,7.11,32.08,7.8,45.79,1.61V267C389.07,273.21,369.29,272.51,357,265.41Z"/><path class="cls-11" d="M346.86,251v.64C346.86,251.42,346.85,251.21,346.86,251Z"/><path class="cls-12" d="M405.91,265.41q-1.48.86-3.14,1.61v44.69q1.65-.75,3.14-1.61c6.75-3.9,10.1-9.06,10.06-14.22V251.56q0-.09,0-.18C415.93,256.47,412.58,261.56,405.91,265.41Z"/><path class="cls-13" d="M405.91,265.41q-1.48.86-3.14,1.61v44.69q1.65-.75,3.14-1.61c6.75-3.9,10.1-9.06,10.06-14.22V251.56q0-.09,0-.18C415.93,256.47,412.58,261.56,405.91,265.41Z"/><path class="cls-14" d="M346.87,251.63a11.68,11.68,0,0,0,.4,2.75Z"/><path class="cls-15" d="M346.87,251.63v43.87a11.71,11.71,0,0,0,.41,3.56V254.38A11.68,11.68,0,0,1,346.87,251.63Z"/><path class="cls-16" d="M346.87,251.63v43.87a11.71,11.71,0,0,0,.41,3.56V254.38A11.68,11.68,0,0,1,346.87,251.63Z"/><path class="cls-17" d="M324.44,272.24,200.13,344c-9.06,5.23-25,4.57-35.51-1.47l-57.24-32.68c-10.47-6-11.61-15.27-2.55-20.5l124.31-71.77c9.06-5.23,25-4.57,35.51,1.47l57.24,32.68C332.36,257.79,333.5,267,324.44,272.24Z"/><path class="cls-18" d="M330.38,287.27V265h0c-.56,2.73-2.52,5.28-5.94,7.25L200.13,344c-4.36,2.51-10.32,3.63-16.49,3.48V373c6.17.15,12.13-1,16.49-3.48l124.31-71.77C329.18,295,331.1,291.17,330.38,287.27Z"/><path class="cls-19" d="M164.63,342.54l-57.24-32.68c-5-2.88-7.84-6.49-8.49-10V322.1c-.92,4.5,2,9.49,8.49,13.25L164.63,368a41,41,0,0,0,19,5V347.5A41,41,0,0,1,164.63,342.54Z"/><path class="cls-20" d="M164.63,342.54l-57.24-32.68c-5-2.88-7.84-6.49-8.49-10V322.1c-.92,4.5,2,9.49,8.49,13.25L164.63,368a41,41,0,0,0,19,5V347.5A41,41,0,0,1,164.63,342.54Z"/><polygon class="cls-17" points="223.56 330.49 298 287.51 396.04 350.19 324.7 391.38 223.56 330.49"/><polygon class="cls-21" points="223.56 330.49 223.56 355.98 324.7 391.38 223.56 330.49"/><polygon class="cls-22" points="254.55 326.65 284.06 311.89 420.05 379.88 390.53 394.64 254.55 326.65"/><path class="cls-20" d="M284.08,358.31a1.27,1.27,0,0,0,0-2.41,4.61,4.61,0,0,0-4.17,0,1.27,1.27,0,0,0,0,2.41A4.61,4.61,0,0,0,284.08,358.31Zm-9.59-5.54a1.27,1.27,0,0,0,0-2.41,4.61,4.61,0,0,0-4.17,0,1.27,1.27,0,0,0,0,2.41A4.61,4.61,0,0,0,274.49,352.77Zm-9.59-5.54a1.27,1.27,0,0,0,0-2.41,4.61,4.61,0,0,0-4.17,0,1.27,1.27,0,0,0,0,2.41A4.61,4.61,0,0,0,264.89,347.23Zm-9.59-5.54a1.27,1.27,0,0,0,0-2.41,4.61,4.61,0,0,0-4.17,0,1.27,1.27,0,0,0,0,2.41A4.61,4.61,0,0,0,255.3,341.69Zm67.16,38.78a1.27,1.27,0,0,0,0-2.41,4.61,4.61,0,0,0-4.17,0,1.27,1.27,0,0,0,0,2.41A4.61,4.61,0,0,0,322.46,380.46Zm-9.59-5.54a1.27,1.27,0,0,0,0-2.41,4.61,4.61,0,0,0-4.17,0,1.27,1.27,0,0,0,0,2.41A4.61,4.61,0,0,0,312.86,374.92Zm-9.59-5.54a1.27,1.27,0,0,0,0-2.41,4.61,4.61,0,0,0-4.17,0,1.27,1.27,0,0,0,0,2.41A4.61,4.61,0,0,0,303.27,369.39Zm-9.59-5.54a1.27,1.27,0,0,0,0-2.41,4.61,4.61,0,0,0-4.17,0,1.27,1.27,0,0,0,0,2.41A4.61,4.61,0,0,0,293.68,363.85Z"/><path class="cls-23" d="M321.16,348.34,254,309.52a1.58,1.58,0,0,0-2.37,1.37v30.7a1.57,1.57,0,0,0,0,.34,4.85,4.85,0,0,0,3.08,0,1.58,1.58,0,0,0,0-.34v-28l16,9.26v29.59a1.57,1.57,0,0,0,.1.55,4.86,4.86,0,0,0,3,0,1.57,1.57,0,0,0,.1-.55V324.72l25.62,14.81v29.36a1.57,1.57,0,0,0,.22.8,4.89,4.89,0,0,0,2.72,0,1.56,1.56,0,0,0,.22-.8V341.36l16,9.26v29.79a1.58,1.58,0,0,0,0,.29,4.85,4.85,0,0,0,3.1,0,1.57,1.57,0,0,0,0-.29V349.71A1.58,1.58,0,0,0,321.16,348.34Z"/><path class="cls-20" d="M343.49,323.87a1.27,1.27,0,0,0,0-2.41,4.61,4.61,0,0,0-4.17,0,1.27,1.27,0,0,0,0,2.41A4.61,4.61,0,0,0,343.49,323.87Zm-9.59-5.54a1.27,1.27,0,0,0,0-2.41,4.61,4.61,0,0,0-4.17,0,1.27,1.27,0,0,0,0,2.41A4.61,4.61,0,0,0,333.9,318.33Zm-9.59-5.54a1.27,1.27,0,0,0,0-2.41,4.61,4.61,0,0,0-4.17,0,1.27,1.27,0,0,0,0,2.41A4.61,4.61,0,0,0,324.3,312.79Zm-9.59-5.54a1.27,1.27,0,0,0,0-2.41,4.61,4.61,0,0,0-4.17,0,1.27,1.27,0,0,0,0,2.41A4.61,4.61,0,0,0,314.71,307.25ZM381.87,346a1.27,1.27,0,0,0,0-2.41,4.61,4.61,0,0,0-4.17,0,1.27,1.27,0,0,0,0,2.41A4.61,4.61,0,0,0,381.87,346Zm-9.59-5.54a1.27,1.27,0,0,0,0-2.41,4.61,4.61,0,0,0-4.17,0,1.27,1.27,0,0,0,0,2.41A4.61,4.61,0,0,0,372.28,340.49Zm-9.59-5.54a1.27,1.27,0,0,0,0-2.41,4.61,4.61,0,0,0-4.17,0,1.27,1.27,0,0,0,0,2.41A4.61,4.61,0,0,0,362.68,334.95Zm-9.59-5.54a1.27,1.27,0,0,0,0-2.41,4.61,4.61,0,0,0-4.17,0,1.27,1.27,0,0,0,0,2.41A4.61,4.61,0,0,0,353.09,329.41Z"/><path class="cls-24" d="M380.59,313.91l-67.16-38.82a1.58,1.58,0,0,0-2.37,1.37v30.7a1.58,1.58,0,0,0,0,.34,4.85,4.85,0,0,0,3.08,0,1.58,1.58,0,0,0,0-.34v-28l16,9.26V318a1.57,1.57,0,0,0,.1.55,4.86,4.86,0,0,0,3,0,1.57,1.57,0,0,0,.1-.55V290.29L359,305.1v29.36a1.57,1.57,0,0,0,.22.8,4.89,4.89,0,0,0,2.72,0,1.56,1.56,0,0,0,.22-.8V306.92l16,9.26V346a1.58,1.58,0,0,0,0,.29,4.85,4.85,0,0,0,3.1,0,1.58,1.58,0,0,0,0-.29V315.28A1.58,1.58,0,0,0,380.59,313.91Z"/><path class="cls-7" d="M296.58,154.4,267.7,171.08c-2.11,1.22-5.82,1.06-8.25-.34l-27.7-16c-2.43-1.4-2.7-3.55-.59-4.76L260,133.3c2.11-1.22,5.82-1.06,8.25.34l27.7,16C298.42,151,298.69,153.18,296.58,154.4Z"/><path class="cls-25" d="M298,258.2V152.71h0a2.62,2.62,0,0,1-1.38,1.69L267.7,171.08a7.48,7.48,0,0,1-3.83.81V278.12a7.48,7.48,0,0,0,3.83-.81l28.88-16.68A2.32,2.32,0,0,0,298,258.2Z"/><path class="cls-26" d="M259.45,170.73l-27.7-16a3.68,3.68,0,0,1-2-2.33V257.9c-.21,1,.46,2.2,2,3.08l27.7,16a9.52,9.52,0,0,0,4.42,1.15V171.88A9.52,9.52,0,0,1,259.45,170.73Z"/><path class="cls-27" d="M259.45,170.73l-27.7-16a3.68,3.68,0,0,1-2-2.33V257.9c-.21,1,.46,2.2,2,3.08l27.7,16a9.52,9.52,0,0,0,4.42,1.15V171.88A9.52,9.52,0,0,1,259.45,170.73Z"/><path class="cls-8" d="M251,217.26l-28.88,16.68c-2.11,1.22-5.82,1.06-8.25-.34l-27.7-16c-2.43-1.4-2.7-3.55-.59-4.76l28.88-16.68c2.11-1.22,5.82-1.06,8.25.34l27.7,16C252.87,213.9,253.13,216,251,217.26Z"/><path class="cls-28" d="M252.41,284.43V215.58h0a2.62,2.62,0,0,1-1.38,1.69l-28.88,16.68a7.48,7.48,0,0,1-3.83.81v69.6a7.48,7.48,0,0,0,3.83-.81L251,286.86A2.32,2.32,0,0,0,252.41,284.43Z"/><path class="cls-29" d="M213.89,233.59l-27.7-16a3.68,3.68,0,0,1-2-2.33v68.85c-.21,1,.46,2.2,2,3.08l27.7,16a9.52,9.52,0,0,0,4.42,1.15v-69.6A9.52,9.52,0,0,1,213.89,233.59Z"/><path class="cls-30" d="M213.89,233.59l-27.7-16a3.68,3.68,0,0,1-2-2.33v68.85c-.21,1,.46,2.2,2,3.08l27.7,16a9.52,9.52,0,0,0,4.42,1.15v-69.6A9.52,9.52,0,0,1,213.89,233.59Z"/><path class="cls-9" d="M206.48,269.43,177.6,286.11c-2.11,1.22-5.82,1.06-8.25-.34l-27.7-16c-2.43-1.4-2.7-3.55-.59-4.76l28.88-16.68c2.11-1.22,5.82-1.06,8.25.34l27.7,16C208.32,266.07,208.59,268.22,206.48,269.43Z"/><path class="cls-31" d="M207.86,310.15v-42.4h0a2.62,2.62,0,0,1-1.38,1.69L177.6,286.11a7.48,7.48,0,0,1-3.83.81v43.15a7.48,7.48,0,0,0,3.83-.81l28.88-16.68A2.32,2.32,0,0,0,207.86,310.15Z"/><path class="cls-32" d="M169.35,285.77l-27.7-16a3.68,3.68,0,0,1-2-2.33v42.4c-.21,1,.46,2.2,2,3.08l27.7,16a9.52,9.52,0,0,0,4.42,1.15V286.92A9.52,9.52,0,0,1,169.35,285.77Z"/><path class="cls-33" d="M169.35,285.77l-27.7-16a3.68,3.68,0,0,1-2-2.33v42.4c-.21,1,.46,2.2,2,3.08l27.7,16a9.52,9.52,0,0,0,4.42,1.15V286.92A9.52,9.52,0,0,1,169.35,285.77Z"/><path class="cls-17" d="M312.58,64.26l-.37-28.1L291.15,62.85l6.73.44-24.27,64.3L257.83,91.24,220,202.23,198.86,173l-3.8,10.59c-.07.2-7.32,20.42-14.47,40.54-15,42.33-14.41,42.53-14.89,44.58,0,0,8.91-4.08,8.89-4,1-3.63,14.44-41.51,24.75-70.35L220.75,224,257,117.59l15.27,35.17,33.57-89Z"/><path class="cls-34" d="M195.06,183.62l3.78-10.54-7.52-4.25-3.8,10.59c-.07.2-7.32,20.42-14.47,40.54-15,42.33-14.41,42.53-14.89,44.58l7.53,4.21c.48-2.05-.15-2.25,14.89-44.58C187.74,204,195,183.82,195.06,183.62Z"/><polygon class="cls-35" points="297.88 63.29 291.15 62.85 312.2 36.16 304.67 31.95 283.62 58.64 289.32 61.81 268.74 116.36 257.83 91.24 273.62 127.59 297.88 63.29"/><polygon class="cls-36" points="257.83 91.24 250.3 87.03 213.91 193.82 198.86 173.04 220.01 202.23 257.83 91.24"/><path class="cls-37" d="M197.87,198.56l15.36,21.2v0l7.52,4.25-21.41-29.55Z"/><polygon class="cls-38" points="254.49 124.95 264.74 148.56 272.27 152.77 257 117.59 254.49 124.95"/><polygon class="cls-39" points="264.74 148.56 242.73 161.09 250.38 165.5 272.27 152.77 264.74 148.56"/><polygon class="cls-40" points="213.24 219.72 202.01 226.73 209.22 230.9 220.75 223.97 213.24 219.72"/><polygon class="cls-41" points="158.18 264.53 145.6 272.11 153.18 276.42 165.71 268.74 158.18 264.53"/><path class="cls-18" d="M147,358.31c0,15.22-10.69,33.73-23.87,41.34S99.3,401.09,99.3,385.87s10.69-33.73,23.87-41.34S147,343.09,147,358.31Z"/><path class="cls-17" d="M123.17,346.08c13-7.48,23.49-1.64,23.85,13,0-.26,0-.53,0-.79,0-15.22-10.69-21.39-23.87-13.78S99.3,370.65,99.3,385.87c0,.26,0,.51,0,.77C99.67,371.57,110.21,353.56,123.17,346.08Z"/><path class="cls-42" d="M99.3,385.87c0-15.22,10.69-33.73,23.87-41.34,6.56-3.79,12.5-4.16,16.81-1.7l-16.47-9.75c-4.33-2.56-10.34-2.23-17,1.61C93.35,342.29,82.66,360.8,82.66,376c0,7.65,2.7,13,7.05,15.48l16.47,9.75C101.93,398.74,99.3,393.42,99.3,385.87Z"/><path class="cls-8" d="M106.29,381.83c0-10.76,7.56-23.85,16.88-29.23.35-.2.69-.37,1-.54v-2.87c-.34.18-.68.34-1,.54-10.69,6.17-19.36,21.18-19.36,33.53,0,11.47,7.48,16.6,17.12,12.32q0-1.46.06-2.93C112.7,396.2,106.29,391.74,106.29,381.83Z"/><path class="cls-43" d="M142.3,357.64c-.84.52-1.7,1-2.52,1.56a19.56,19.56,0,0,1,.26,3.14c0,10.76-7.56,23.85-16.88,29.23a20.21,20.21,0,0,1-2.18,1.08q0,1.46-.06,2.93a23.77,23.77,0,0,0,2.24-1.14c10.69-6.17,19.36-21.18,19.36-33.53A23.11,23.11,0,0,0,142.3,357.64Z"/><path class="cls-44" d="M139.79,359.21c.81-.55,1.67-1,2.52-1.56-1.37-9.56-8.88-13.21-18.1-8.45v2.87C132.08,348.06,138.49,351.15,139.79,359.21Z"/><path class="cls-8" d="M114.8,379.3v1.53l-4.45,2.57v-1.53l1.56-.9v-3.83a2.87,2.87,0,0,1-.31.49q-.21.28-.47.57a6.83,6.83,0,0,1-.52.53,2.89,2.89,0,0,1-.48.36v-1.58a2.23,2.23,0,0,0,.48-.42q.28-.31.56-.67t.48-.67a2.92,2.92,0,0,0,.26-.46l1.5-.87v5.69Z"/><path class="cls-8" d="M121.25,373.4a6.63,6.63,0,0,1-.21,1.66,7.44,7.44,0,0,1-.59,1.56,6.37,6.37,0,0,1-.9,1.32,4.53,4.53,0,0,1-1.12.93,2.4,2.4,0,0,1-1.13.37,1.35,1.35,0,0,1-.89-.28,1.91,1.91,0,0,1-.59-.87,4.09,4.09,0,0,1-.21-1.41,6.57,6.57,0,0,1,.21-1.66,7.44,7.44,0,0,1,.59-1.56,6.55,6.55,0,0,1,.89-1.32,4.47,4.47,0,0,1,1.13-.94,2.35,2.35,0,0,1,1.12-.36,1.38,1.38,0,0,1,.9.28,1.92,1.92,0,0,1,.59.87A4.11,4.11,0,0,1,121.25,373.4Zm-1.48.85a3.39,3.39,0,0,0-.1-.87,1.37,1.37,0,0,0-.28-.57.64.64,0,0,0-.43-.22.94.94,0,0,0-.54.15,2,2,0,0,0-.55.48,3.19,3.19,0,0,0-.43.71,4.31,4.31,0,0,0-.28.89,4.89,4.89,0,0,0-.1,1,3.32,3.32,0,0,0,.1.87,1.34,1.34,0,0,0,.28.56.64.64,0,0,0,.43.22,1,1,0,0,0,.55-.16,2,2,0,0,0,.54-.48,3.24,3.24,0,0,0,.43-.71,4.45,4.45,0,0,0,.28-.88A4.81,4.81,0,0,0,119.78,374.26Z"/><path class="cls-8" d="M128,369.52a6.63,6.63,0,0,1-.21,1.66,7.5,7.5,0,0,1-.59,1.55,6.41,6.41,0,0,1-.9,1.32,4.55,4.55,0,0,1-1.12.93,2.4,2.4,0,0,1-1.13.37,1.35,1.35,0,0,1-.89-.28,1.91,1.91,0,0,1-.59-.87,4.09,4.09,0,0,1-.21-1.41,6.57,6.57,0,0,1,.21-1.66,7.44,7.44,0,0,1,.59-1.56,6.55,6.55,0,0,1,.89-1.32,4.47,4.47,0,0,1,1.13-.94,2.35,2.35,0,0,1,1.12-.36,1.38,1.38,0,0,1,.9.28,1.92,1.92,0,0,1,.59.87A4.11,4.11,0,0,1,128,369.52Zm-1.48.85a3.39,3.39,0,0,0-.1-.87,1.35,1.35,0,0,0-.28-.57.64.64,0,0,0-.43-.22.94.94,0,0,0-.54.15,2,2,0,0,0-.55.48,3.23,3.23,0,0,0-.43.71,4.31,4.31,0,0,0-.28.89,5,5,0,0,0-.1,1,3.37,3.37,0,0,0,.1.87,1.34,1.34,0,0,0,.28.56.64.64,0,0,0,.43.22,1,1,0,0,0,.55-.16,2,2,0,0,0,.54-.48,3.24,3.24,0,0,0,.43-.71,4.33,4.33,0,0,0,.28-.88A4.81,4.81,0,0,0,126.5,370.37Z"/><path class="cls-8" d="M130.71,366.38a1.87,1.87,0,0,1-.71.26,1,1,0,0,1-.57-.08.87.87,0,0,1-.38-.39,1.4,1.4,0,0,1-.14-.67,2.65,2.65,0,0,1,.14-.83,3.87,3.87,0,0,1,.38-.83,4.33,4.33,0,0,1,.57-.73,3.22,3.22,0,0,1,.71-.56,1.89,1.89,0,0,1,.71-.26,1,1,0,0,1,.57.07.84.84,0,0,1,.38.39,1.42,1.42,0,0,1,.14.66,2.65,2.65,0,0,1-.14.83,4,4,0,0,1-.38.83,4.16,4.16,0,0,1-.57.74A3.26,3.26,0,0,1,130.71,366.38Zm-1.2,5.37,3.09-5.94,2.85-6,.67.3-3,5.81-2.95,6.1Zm1.2-6.22a1.12,1.12,0,0,0,.3-.26,2.2,2.2,0,0,0,.25-.38,2,2,0,0,0,.17-.44,1.77,1.77,0,0,0,.06-.45.74.74,0,0,0-.23-.62.46.46,0,0,0-.55,0,1.1,1.1,0,0,0-.3.26,2.22,2.22,0,0,0-.25.38,2.11,2.11,0,0,0-.17.43,1.74,1.74,0,0,0-.06.44.75.75,0,0,0,.23.63A.45.45,0,0,0,130.71,365.53Zm4.23,3.81a1.86,1.86,0,0,1-.71.26,1,1,0,0,1-.57-.08.84.84,0,0,1-.38-.38,1.41,1.41,0,0,1-.14-.67,2.66,2.66,0,0,1,.14-.83,4.07,4.07,0,0,1,.38-.83,4.21,4.21,0,0,1,.57-.74,3.25,3.25,0,0,1,.71-.56,1.89,1.89,0,0,1,.71-.26,1.05,1.05,0,0,1,.58.08.83.83,0,0,1,.38.39,1.49,1.49,0,0,1,.14.67,2.74,2.74,0,0,1-.14.83,3.71,3.71,0,0,1-.38.82,4.46,4.46,0,0,1-.58.74A3.19,3.19,0,0,1,134.94,369.34Zm0-.85a1.1,1.1,0,0,0,.3-.26,2.27,2.27,0,0,0,.25-.38,2.12,2.12,0,0,0,.17-.43,1.69,1.69,0,0,0,.06-.44,1,1,0,0,0-.07-.38.61.61,0,0,0-.17-.24.38.38,0,0,0-.25-.09.6.6,0,0,0-.3.09,1.13,1.13,0,0,0-.3.26,2.22,2.22,0,0,0-.25.38,2.08,2.08,0,0,0-.17.44,1.77,1.77,0,0,0-.06.45.74.74,0,0,0,.23.62A.46.46,0,0,0,134.94,368.49Z"/><path class="cls-45" d="M287.64,412.61l-56.2,32.44c-2.28,1.31-6.29,1.15-8.91-.37L167.62,413c-2.63-1.52-2.92-3.83-.64-5.15l56.2-32.44c2.28-1.31,6.29-1.15,8.91.37L287,407.46C289.63,409,289.92,411.29,287.64,412.61Z"/><path class="cls-46" d="M287.64,409.82l-56.2,32.44c-2.28,1.31-6.29,1.15-8.91-.37l-54.92-31.71c-2.63-1.52-2.92-3.83-.64-5.15l56.2-32.44c2.28-1.31,6.29-1.15,8.91.37L287,404.67C289.63,406.19,289.92,408.5,287.64,409.82Z"/><path class="cls-17" d="M221.73,427.7l9.44-5.45c1.74-1,1.53-2.77-.49-3.93L228.44,417a7.56,7.56,0,0,0-6.81-.28l-9.44,5.45c-1.74,1-1.53,2.77.49,3.93l2.24,1.29A7.57,7.57,0,0,0,221.73,427.7Z"/><path class="cls-17" d="M252.39,399l-21.24,12.26c-1.74,1-1.53,2.77.49,3.93l2.24,1.29a7.56,7.56,0,0,0,6.81.28l21.24-12.26c1.74-1,1.53-2.77-.49-3.93l-2.24-1.29A7.56,7.56,0,0,0,252.39,399Z"/><polygon class="cls-17" points="224.58 432.99 271.1 406.13 268.93 404.88 222.41 431.74 224.58 432.99"/><polygon class="cls-17" points="227.67 434.77 260.4 415.87 258.23 414.62 225.5 433.52 227.67 434.77"/><path class="cls-17" d="M249.7,395.93l-42.79,24.7a7.09,7.09,0,0,1-6.35-.26l-21.31-12.3c-1.87-1.08-2.08-2.73-.46-3.67l42.79-24.7a7.09,7.09,0,0,1,6.35.26l21.31,12.3C251.11,393.35,251.32,395,249.7,395.93Z"/><path class="cls-47" d="M246.53,217.61h0a2.58,2.58,0,0,1-3.59-.62l-11.61-16.44a2.58,2.58,0,0,1,.62-3.59h0a2.58,2.58,0,0,1,3.59.62L247.15,214A2.58,2.58,0,0,1,246.53,217.61Z"/><path class="cls-48" d="M238.52,199.36l-3.75-5.3a4,4,0,0,0-5.55-1h0a4,4,0,0,0-1,5.55L232,204S236.42,205.35,238.52,199.36Z"/><path class="cls-49" d="M225.44,220.42a1.68,1.68,0,0,0,.59.54l13.56,7.76c1.48.85,3.56,0,4.63-1.84h0c1.07-1.86.73-4.08-.74-4.92L227.87,213a1,1,0,0,0-1.16.13C225.57,214.23,223.25,217,225.44,220.42Z"/><path class="cls-50" d="M216.46,225a1.68,1.68,0,0,0,.59.54l13.56,7.76c1.48.85,3.56,0,4.63-1.84h0c1.07-1.86.73-4.08-.74-4.92l-15.6-8.93a1,1,0,0,0-1.16.13C216.59,218.83,214.27,221.58,216.46,225Z"/><path class="cls-51" d="M237.67,248.35c-.11,1.12,2.58,1.82,4.84,3.13,3.14,1.81,6.52,2.8,8.13,1.87a1.06,1.06,0,0,0,.61-.88v-1.84c.06-1-1.49-2.63-3.85-4.93-2.6-2.53-4.25-4.11-8.13-1.87-1.11.64-1.55,1.12-1.56,1.53Z"/><path class="cls-52" d="M247.41,245.69c3.14,3.06,4.85,4.86,3.24,5.79s-4.83-.47-8.13-3c-2.89-2.19-7.12-2.45-3.24-4.7S244.81,243.16,247.41,245.69Z"/><path class="cls-49" d="M244.9,243.47a1.69,1.69,0,0,0,.18-.78V224.55c0-1.7-1.76-3.1-3.9-3.1h0c-2.15,0-3.9,1.39-3.9,3.1V245a1,1,0,0,0,.69.94C239.47,246.44,243,247.09,244.9,243.47Z"/><path class="cls-53" d="M217.81,226.6a.71.71,0,0,0,.33.11c1.73.13,7.93-1.22,14.13-8.21a3.25,3.25,0,0,0,.84-2V196.64a3.26,3.26,0,0,0-1.39-3l-4.67-2.72a3.26,3.26,0,0,0-3.32.3l-6.36,3.67A10.36,10.36,0,0,0,212.7,203v20a1,1,0,0,0,.45,1Z"/><path class="cls-51" d="M228.38,252.46c-.11,1.12,2.58,1.82,4.84,3.13,3.14,1.81,6.52,2.8,8.13,1.87a1.06,1.06,0,0,0,.61-.88v-1.84c.06-1-1.49-2.63-3.85-4.93-2.6-2.53-4.25-4.11-8.13-1.87-1.11.64-1.55,1.12-1.56,1.53Z"/><path class="cls-52" d="M238.11,249.8c3.14,3.06,4.85,4.86,3.24,5.79s-4.83-.47-8.13-3c-2.89-2.19-7.12-2.46-3.24-4.7S235.51,247.27,238.11,249.8Z"/><path class="cls-50" d="M235.6,247.58a1.69,1.69,0,0,0,.18-.78V228.66c0-1.7-1.76-3.1-3.9-3.1h0c-2.15,0-3.9,1.39-3.9,3.1v20.49a1,1,0,0,0,.69.94C230.17,250.55,233.72,251.2,235.6,247.58Z"/><path class="cls-54" d="M218.52,196.1a1.62,1.62,0,0,0,1,1.36,5.14,5.14,0,0,0,4.65,0,1.62,1.62,0,0,0,1-1.36v-4.32a1.62,1.62,0,0,0-1-1.36,5.14,5.14,0,0,0-4.65,0,1.62,1.62,0,0,0-1,1.36Z"/><circle class="cls-55" cx="221.8" cy="184.88" r="9.06"/><path class="cls-56" d="M216.94,192a7.23,7.23,0,0,0,1.87-3,.84.84,0,0,0,0-.22v-4.34a4.64,4.64,0,0,1,.66-2.45,2,2,0,0,1,1.77-1.12s7.27,3.17,10-2.75a.8.8,0,0,0-.52-1.11c-.52-.12-1.21-.57-2-1.81a.8.8,0,0,0-.86-.37,3.2,3.2,0,0,1-3.26-1.2.77.77,0,0,0-.6-.26c-1.38,0-6.17.26-8.77,2.14l-.05,0c-.56.46-9.55,8.12.64,16.51A.8.8,0,0,0,216.94,192Z"/><path class="cls-57" d="M218.78,190c0,1.08-.76,1.52-1.69,1a3.74,3.74,0,0,1-1.69-2.93c0-1.08.76-1.52,1.69-1A3.74,3.74,0,0,1,218.78,190Z"/><polygon class="cls-58" points="244.48 220.94 228.34 230.23 215.96 223.48 232.48 214.02 244.48 220.94"/><polygon class="cls-59" points="244.48 220.94 247.02 204.75 229.1 215.08 228.34 230.23 244.48 220.94"/><path class="cls-60" d="M230.35,223.7h0a2.58,2.58,0,0,1-3.59-.6l-11.68-16.39a2.58,2.58,0,0,1,.6-3.59h0a2.58,2.58,0,0,1,3.59.6L231,220.11A2.58,2.58,0,0,1,230.35,223.7Z"/><path class="cls-61" d="M221.78,206.2l-3.25-5.62a4,4,0,0,0-5.45-1.45h0a4,4,0,0,0-1.45,5.45l3.25,5.62S219.15,212,221.78,206.2Z"/><polygon class="cls-62" points="315.72 341.46 293.72 353.99 315.17 366.17 337.06 353.44 315.72 341.46"/><polygon class="cls-63" points="373.28 245.11 351.27 257.63 367.21 266.66 389.11 253.93 373.28 245.11"/><path class="cls-64" d="M371.66,172.39h0a2.42,2.42,0,0,0-1.92,2.82l3.52,18.52a2.42,2.42,0,0,0,2.82,1.92h0a2.42,2.42,0,0,0,1.92-2.82l-3.52-18.52A2.42,2.42,0,0,0,371.66,172.39Z"/><path class="cls-20" d="M378.75,189.66l1.14,6a3.74,3.74,0,0,1-3,4.36h0a3.74,3.74,0,0,1-4.36-3l-1.14-6S373.35,187.18,378.75,189.66Z"/><path class="cls-51" d="M388.95,253.72c.11,1.05-2.42,1.71-4.53,2.93-2.94,1.7-6.11,2.62-7.62,1.75a1,1,0,0,1-.58-.83v-1.73c-.05-1,1.4-2.47,3.61-4.62,2.43-2.37,4-3.85,7.62-1.75,1,.6,1.46,1,1.46,1.43Z"/><path class="cls-52" d="M379.83,251.22c-2.94,2.86-4.54,4.55-3,5.43s4.52-.44,7.62-2.78c2.71-2,6.67-2.3,3-4.4S382.26,248.85,379.83,251.22Z"/><path class="cls-65" d="M382.18,249.15a1.58,1.58,0,0,1-.17-.73V223.2c0-1.59,1.64-2.9,3.65-2.9h0c2,0,3.65,1.3,3.65,2.9v27.42a.92.92,0,0,1-.65.88C387.27,251.92,383.94,252.53,382.18,249.15Z"/><path class="cls-51" d="M381,247.89c.11,1.05-2.42,1.71-4.53,2.93-2.94,1.7-6.11,2.62-7.62,1.75a1,1,0,0,1-.58-.83V250c-.05-1,1.4-2.47,3.61-4.62,2.43-2.37,4-3.85,7.62-1.75,1,.6,1.46,1,1.46,1.43Z"/><path class="cls-52" d="M371.92,245.39c-2.94,2.86-4.54,4.55-3,5.43s4.52-.44,7.62-2.78c2.71-2,6.67-2.3,3-4.4S374.35,243,371.92,245.39Z"/><path class="cls-66" d="M374.27,243.32a1.58,1.58,0,0,1-.17-.73V217.37c0-1.59,1.64-2.9,3.65-2.9h0c2,0,3.65,1.3,3.65,2.9v27.42a.92.92,0,0,1-.65.88C379.36,246.09,376,246.7,374.27,243.32Z"/><path class="cls-67" d="M388.11,227.73a.67.67,0,0,1-.31.1c-1.62.13-7.42-1.14-13.23-7.69a3,3,0,0,1-.79-1.88V199.68a3.06,3.06,0,0,1,1.3-2.84l4.37-2.55a3.05,3.05,0,0,1,3.11.28l6,3.44a9.71,9.71,0,0,1,4.37,7.58v18.69a1,1,0,0,1-.42.89Z"/><path class="cls-68" d="M386.42,199.17a1.52,1.52,0,0,1-.9,1.28,4.82,4.82,0,0,1-4.36,0,1.52,1.52,0,0,1-.9-1.28v-4a1.52,1.52,0,0,1,.9-1.28,4.82,4.82,0,0,1,4.36,0,1.52,1.52,0,0,1,.9,1.28Z"/><circle class="cls-69" cx="383.34" cy="188.67" r="8.48"/><path class="cls-70" d="M390.42,178.63c7.25,2.49,3.64,13.08-1.63,16.9-2.58-1.41.56-3.93-3-2.18-.7-3.41.87-2.37-.08-6.66-3.69,1.92-10.86-.41-12-4,1.28-.57,2.63-4.22,5.63-5.55C383.27,175.46,388.22,176.22,390.42,178.63Z"/><path class="cls-71" d="M386.18,193.43c0,1,.71,1.42,1.59.92a3.51,3.51,0,0,0,1.59-2.75c0-1-.71-1.42-1.59-.92A3.51,3.51,0,0,0,386.18,193.43Z"/><path class="cls-72" d="M389.25,179.13h0a2.42,2.42,0,0,0-2.38,2.45l.26,18.85a2.42,2.42,0,0,0,2.45,2.38h0a2.42,2.42,0,0,0,2.38-2.45l-.26-18.85A2.42,2.42,0,0,0,389.25,179.13Z"/><path class="cls-20" d="M393.23,197.36l.08,6.08a3.74,3.74,0,0,1-3.68,3.78h0a3.74,3.74,0,0,1-3.78-3.68l-.08-6.08S388.34,194,393.23,197.36Z"/><path class="cls-51" d="M314,332.82c-.31.14-.43.52-.46,1.06,0,.15,1.59-.92,1.53-.37,0,.16-1.17,7.9,1.3,10.46a.73.73,0,0,0,.9.08l.67-.38c.78-.39,1.31-2.18,2-4.84.78-2.94,1.25-4.8-2-6.7-.92-.55-1.46-.67-1.76-.51Z"/><path class="cls-73" d="M320,338.82c-.94,3.55-1.55,5.54-2.89,4.75s-1.65-3.72-1.19-7.16c.4-3-1.14-6.21,2.09-4.3S320.78,335.89,320,338.82Z"/><path class="cls-74" d="M340.86,316.13l-6.64,2.43-2.7,3.06a28.49,28.49,0,0,0-8.54,6s-1.43,2.09-6.16,4.5c0,0,0,3.3,2.94,3.84L338.7,325a4.77,4.77,0,0,0,2.36-3.63A21.3,21.3,0,0,0,340.86,316.13Z"/><path class="cls-51" d="M326.89,349.58c0,.34.24.63.69.92.13.08,0-1.84.43-1.52.13.09,6.3,4.9,9.75,4a.73.73,0,0,0,.51-.74v-.78c0-.87-1.25-2.21-3.23-4.13-2.18-2.12-3.56-3.44-6.82-1.57-.93.54-1.3.94-1.31,1.28Z"/><path class="cls-73" d="M335.05,347.35c2.63,2.56,4.06,4.07,2.71,4.85s-4-.39-6.82-2.49c-2.42-1.83-6-2.06-2.71-3.93S332.88,345.23,335.05,347.35Z"/><path class="cls-75" d="M332.41,346.12l-.19-23.65-6.41,2.08-.06,4.31a28.49,28.49,0,0,0,1,10.37s1.12,2.28.89,7.58C327.62,346.8,330.49,348.44,332.41,346.12Z"/><path class="cls-76" d="M349.9,313h0a2.57,2.57,0,0,1-3.39-1.27l-10.15-22.43a2.57,2.57,0,0,1,1.27-3.39h0a2.57,2.57,0,0,1,3.39,1.27l10.15,22.43A2.57,2.57,0,0,1,349.9,313Z"/><path class="cls-8" d="M321.64,317v8.73s10.23,3.46,19.86-8.73V308.5Z"/><path class="cls-18" d="M326.27,319.66a.71.71,0,0,0,.33.11c1.72.13,7.88-1.21,14.05-8.16a3.23,3.23,0,0,0,.84-2V289.87a3.24,3.24,0,0,0-1.39-3l-4.64-2.71a3.24,3.24,0,0,0-3.31.3l-6.33,3.65a10.31,10.31,0,0,0-4.64,8V316a1,1,0,0,0,.45.95Z"/><path class="cls-77" d="M328.07,289.33a1.61,1.61,0,0,0,1,1.36,5.11,5.11,0,0,0,4.63,0,1.61,1.61,0,0,0,1-1.36V285a1.61,1.61,0,0,0-1-1.36,5.11,5.11,0,0,0-4.63,0,1.61,1.61,0,0,0-1,1.36Z"/><path class="cls-78" d="M310.61,317.57h0a2.57,2.57,0,0,1-1.13-3.44L320.64,292a2.57,2.57,0,0,1,3.44-1.13h0a2.57,2.57,0,0,1,1.13,3.44l-11.15,22.11A2.57,2.57,0,0,1,310.61,317.57Z"/><path class="cls-79" d="M339.66,275.73l3.23,12.55a1.46,1.46,0,0,1-2,1.72l-7.44-3.1a1.46,1.46,0,0,1-.87-1.64L335,272.92a1.46,1.46,0,0,1,2.69-.48l1.77,2.89A1.46,1.46,0,0,1,339.66,275.73Z"/><path class="cls-80" d="M328.34,283.24c0,1.07-.75,1.51-1.68,1a3.72,3.72,0,0,1-1.68-2.92c0-1.07.75-1.51,1.68-1A3.72,3.72,0,0,1,328.34,283.24Z"/><circle class="cls-81" cx="331.3" cy="278.11" r="9.01"/><path class="cls-79" d="M322.54,279.32s7.61,4.17,11.32-6.68c0,0,2,4.59,6.93,3.57,0,0,0-7.14-7.37-8.53C333.43,267.68,320.4,266.38,322.54,279.32Z"/><path class="cls-79" d="M326.74,279.67,330,292.22a1.46,1.46,0,0,1-2,1.72l-7.44-3.1a1.46,1.46,0,0,1-.87-1.64l2.44-12.35a1.46,1.46,0,0,1,2.69-.48l1.77,2.89A1.47,1.47,0,0,1,326.74,279.67Z"/></g></g></svg>