<svg xmlns="http://www.w3.org/2000/svg" viewBox="190 0 307 620"><defs><style>.cls-1{isolation:isolate;}.cls-2{fill:#3c0073;}.cls-3{fill:#090d58;opacity:0.46;mix-blend-mode:multiply;}.cls-4,.cls-5{fill:none;stroke-linecap:round;stroke-linejoin:round;stroke-width:9px;}.cls-4{stroke:#f9eace;}.cls-5{stroke:#fbf5e7;}.cls-6{fill:#a9f4fc;}.cls-7{fill:#2c30d1;}.cls-8{fill:#0ad0e5;}.cls-9{fill:#0084e9;}.cls-10{fill:#73ebff;}</style></defs><title>03</title><g class="cls-1"><g id="Layer_1" data-name="Layer 1"><rect class="cls-2" width="600" height="600"/><g id="_Group_" data-name="&lt;Group&gt;"><path id="_Path_" data-name="&lt;Path&gt;" class="cls-3" d="M537.59-.39,450.21,50.06c-12.86,7.43-12.93,19.58-.15,27s33.76,7.43,46.62,0l3.07-1.77c-2.24,3.57-.93,7.73,4,10.58,4.7,2.73,11.49,3.55,17.48,2.48l27.23-15.72c6.8-3.92,17.88-3.92,24.63,0S579.76,83,573,86.9L498.6,129.83c-6.47,7.19-4.54,16.3,5.8,22.31,12.78,7.43,33.76,7.43,46.62,0l49-28.28V-.39Z"/><path id="_Path_2" data-name="&lt;Path&gt;" class="cls-3" d="M458.22,550.76,374.8,598.92H600V388.75l-6.9,4c4.34-3.9,3.59-9.18-2.26-12.58-6.75-3.92-17.83-3.92-24.63,0L438.76,453.74c-6.8,3.92-6.83,10.34-.08,14.27,5.86,3.4,15,3.85,21.71,1.35L378,516.94c-12.86,7.43-12.93,19.58-.15,27,9.58,5.57,23.77,7,35.7,4.18l20.14-11.63c6.8-3.92,17.88-3.92,24.63,0S465,546.84,458.22,550.76Z"/><path id="_Path_3" data-name="&lt;Path&gt;" class="cls-3" d="M195.32,566.64c-9.58-5.57-23.77-7-35.7-4.18l-20.14,11.63c-6.8,3.92-17.88,3.92-24.63,0-4.45-2.58-5.93-6.25-4.5-9.57l43.27-25.15c12.86-7.48,12.93-19.72.15-27.2s-33.76-7.48-46.62,0L104.08,514c2.24-3.59.93-7.78-4-10.65-4.7-2.75-11.49-3.58-17.48-2.5L55.41,516.64c-6.8,4-17.88,4-24.63,0s-6.72-10.42.08-14.37L105.22,459c6.47-7.24,4.54-16.41-5.8-22.47-12.78-7.48-33.76-7.48-46.62,0L.69,466.86V598.92H186l9.13-5.27C208,586.22,208.1,574.07,195.32,566.64Z"/><path id="_Path_4" data-name="&lt;Path&gt;" class="cls-3" d="M28.8,60.26,133.86-.39H.69V184.75l47.57-27.47c6.8-3.92,6.83-10.34.08-14.27-5.86-3.4-15-3.85-21.71-1.35L109,94.09c12.86-7.43,12.93-19.58.15-27-9.58-5.57-23.77-7-35.7-4.18L53.35,74.53c-6.8,3.92-17.88,3.92-24.63,0S22,64.19,28.8,60.26Z"/></g><path class="cls-3" d="M559.59,265c-19.25-11.27-50.86-11.27-70.24,0L436.3,295.77a6.9,6.9,0,0,0-9.75-8.84l-235.66,137a6.91,6.91,0,1,0,6.94,11.95l115.34-67c-6.82,10.35-3.15,22.53,11.14,30.83,19.41,11.28,51.26,11.28,70.8,0L568.33,298.89C578.07,288,575.18,274.16,559.59,265Z"/><g id="Path"><line id="_Path_5" data-name="&lt;Path&gt;" class="cls-4" x1="110.93" y1="405.64" x2="368.43" y2="255.99"/><line id="_Path_6" data-name="&lt;Path&gt;" class="cls-4" x1="315.18" y1="570.84" x2="334.08" y2="559.86"/><line id="_Path_7" data-name="&lt;Path&gt;" class="cls-4" x1="292.41" y1="584.07" x2="295.99" y2="581.99"/><line id="_Path_8" data-name="&lt;Path&gt;" class="cls-5" x1="97.83" y1="639.41" x2="266.71" y2="541.27"/><line id="_Path_9" data-name="&lt;Path&gt;" class="cls-4" x1="54.34" y1="388.89" x2="143.76" y2="336.93"/><line id="_Path_10" data-name="&lt;Path&gt;" class="cls-4" x1="21.87" y1="407.76" x2="32.37" y2="401.66"/><line id="_Path_11" data-name="&lt;Path&gt;" class="cls-4" x1="186.73" y1="531.7" x2="361.92" y2="429.89"/><line id="_Path_12" data-name="&lt;Path&gt;" class="cls-4" x1="120.85" y1="569.99" x2="157.23" y2="548.84"/><line id="_Path_13" data-name="&lt;Path&gt;" class="cls-4" x1="91.13" y1="587.26" x2="99.98" y2="582.12"/><line id="_Path_14" data-name="&lt;Path&gt;" class="cls-5" x1="117.96" y1="442.11" x2="302.93" y2="334.62"/><line id="_Path_15" data-name="&lt;Path&gt;" class="cls-5" x1="66.58" y1="471.97" x2="97.52" y2="453.99"/><line id="_Path_16" data-name="&lt;Path&gt;" class="cls-5" x1="32.14" y1="491.98" x2="45.52" y2="484.21"/></g><g id="_Group_2" data-name="&lt;Group&gt;"><g id="_Group_3" data-name="&lt;Group&gt;"><g id="_Group_4" data-name="&lt;Group&gt;" class="cls-1"><g id="_Group_5" data-name="&lt;Group&gt;"><polygon id="_Path_17" data-name="&lt;Path&gt;" class="cls-6" points="504.98 189.03 453.41 159.61 507.86 137.28 559.43 166.69 504.98 189.03"/></g><g id="_Group_6" data-name="&lt;Group&gt;"><polygon id="_Path_18" data-name="&lt;Path&gt;" class="cls-7" points="432.28 346.68 380.71 317.26 389.83 249.61 441.4 279.02 432.28 346.68"/></g><g id="_Group_7" data-name="&lt;Group&gt;"><polygon id="_Path_19" data-name="&lt;Path&gt;" class="cls-8" points="456.3 217.13 404.73 187.72 428.9 117 480.47 146.41 456.3 217.13"/></g><g id="_Group_8" data-name="&lt;Group&gt;"><polygon id="_Path_20" data-name="&lt;Path&gt;" class="cls-6" points="401.89 257.65 350.32 228.24 404.73 187.72 456.3 217.13 401.89 257.65"/></g></g><g id="_Group_9" data-name="&lt;Group&gt;" class="cls-1"><g id="_Group_10" data-name="&lt;Group&gt;"><path id="_Path_21" data-name="&lt;Path&gt;" class="cls-7" d="M214,474.84l-49.77-28.93c-12.93-37.84,4.81-73.25,5.75-75.12l49.77,28.93C218.78,401.58,201,437,214,474.84Z"/></g><g id="_Group_11" data-name="&lt;Group&gt;"><path id="_Path_22" data-name="&lt;Path&gt;" class="cls-7" d="M177,452.45l-49.77-28.93c1.27-33,28.1-77.32,29.51-79.65l49.77,28.93C205.11,375.13,178.28,419.41,177,452.45Z"/></g><g id="_Group_12" data-name="&lt;Group&gt;"><path id="_Path_23" data-name="&lt;Path&gt;" class="cls-7" d="M139.78,454,90,425.1c5.07-48.28,41.55-92.69,43.47-95L183.25,359C181.33,361.34,144.84,405.75,139.78,454Z"/></g><path id="_Path_24" data-name="&lt;Path&gt;" class="cls-9" d="M559.43,166.69,505,189l-24.51-42.61L456.3,217.13l-36,26.84c-30.26-26.47-87.51-26-149.13,9.53-58.34,33.68-120.55,98.83-167.35,202.39,26.32-45.18,76.82-94.31,79.47-96.9-1.92,2.34-38.4,46.75-43.47,95,31-50.77,65-79.71,66.75-81.24-1.41,2.33-28.24,46.61-29.51,79.65,15.26-24.56,41.33-51.32,42.7-52.73C218.78,401.58,201,437,214,474.84,245.89,384,293,320.72,340.84,293.1c34.37-19.84,69.11-21.28,98.85-1.34l-7.41,54.92,48.6-57.51,48.77,1.3-9.48-56.92Z"/><path id="_Path_25" data-name="&lt;Path&gt;" class="cls-10" d="M360.14,207.59c-31.94-18.56-83.63-14.85-138.78,17C163,258.26,100.8,323.42,54,427l49.77,28.93c46.8-103.56,109-168.71,167.35-202.39,55.15-31.84,106.85-35.56,138.78-17Z"/></g><g id="_Group_13" data-name="&lt;Group&gt;"><g id="_Group_14" data-name="&lt;Group&gt;"><polygon id="_Path_26" data-name="&lt;Path&gt;" class="cls-6" points="480.77 188.45 494.42 212.18 524.75 199.75 502.88 236.98 508.16 268.68 481 267.96 453.93 299.99 459.01 262.31 437.01 250.4 467.31 227.84 480.77 188.45"/></g></g><g id="_Group_15" data-name="&lt;Group&gt;"><polygon id="_Path_27" data-name="&lt;Path&gt;" class="cls-8" points="481.33 205.25 494.42 212.18 480.77 188.45 477.38 198.38 481.33 205.25"/><polygon id="_Path_28" data-name="&lt;Path&gt;" class="cls-8" points="524.75 199.75 502.14 209.01 489.79 230.05 495.07 261.75 467.91 261.02 457.53 273.31 453.93 299.99 481 267.96 508.16 268.68 502.88 236.98 524.75 199.75"/></g></g><g id="_Group_16" data-name="&lt;Group&gt;"><path class="cls-6" d="M171.67,355.83a417,417,0,0,1,48.22-50.72,310.92,310.92,0,0,1,57.4-40.2Q285,260.69,293,257c5.33-2.42,10.72-4.7,16.21-6.74s11.06-3.86,16.71-5.39A174.52,174.52,0,0,1,343,241.09a142.56,142.56,0,0,1,35-1.53,100.42,100.42,0,0,1,33.78,8.69l-.14.3a99.77,99.77,0,0,0-33.72-8,141.25,141.25,0,0,0-34.63,2.16,172.77,172.77,0,0,0-16.91,4c-5.57,1.6-11,3.51-16.46,5.57s-10.71,4.43-16,6.9-10.37,5.19-15.41,8.05c-20.23,11.38-38.86,25.35-56.52,40.38S187.91,339.1,171.92,356Z"/></g><g id="_Group_17" data-name="&lt;Group&gt;"><path class="cls-6" d="M405.24,254.59a94.81,94.81,0,0,0-16.41-3.11,107.52,107.52,0,0,0-16.68-.15,154.94,154.94,0,0,0-32.74,6.25q-8,2.33-15.88,5.2c-2.64.93-5.22,1.92-7.81,2.9l-7.48,3.65c-2.51,1.17-4.93,2.56-7.38,3.88s-4.91,2.62-7.27,4.1l-7.15,4.31-7,4.59A304.66,304.66,0,0,0,253,306.49c-2.14,1.77-4.18,3.67-6.28,5.5l-3.12,2.77-3,2.85c-2,1.91-4.12,3.74-6.09,5.7l-6,5.84c-7.94,7.82-15.55,16-23.05,24.23-3.71,4.17-7.45,8.31-11.08,12.56s-7.28,8.48-11,12.68l-.26-.2q4.95-6.78,10.07-13.43c3.41-4.44,7-8.75,10.5-13.11,7.17-8.61,14.7-16.92,22.45-25l6-5.93c2-2,4.07-3.86,6.1-5.8l3.09-2.86,3.18-2.76c2.14-1.82,4.21-3.71,6.4-5.48A307.59,307.59,0,0,1,278,284l7.1-4.53,7.28-4.25c2.4-1.46,4.91-2.72,7.39-4s4.94-2.66,7.52-3.81l7.64-3.59c2.65-1,5.3-1.93,8-2.82,5.3-1.83,10.65-3.51,16.06-5a156.23,156.23,0,0,1,33.13-5.66,108.34,108.34,0,0,1,16.81.48,95.3,95.3,0,0,1,16.43,3.45Z"/></g><g id="_Group_18" data-name="&lt;Group&gt;"><path class="cls-6" d="M401,259.69a94.18,94.18,0,0,0-31.57-1.85c-1.32.09-2.62.32-3.93.53l-3.91.63-3.87.88c-1.29.3-2.58.55-3.84,1-2.53.76-5.09,1.42-7.56,2.37l-3.73,1.32L338.92,266a168.06,168.06,0,0,0-27.88,15c-2.19,1.5-4.42,2.89-6.57,4.47L298,290.17c-2.15,1.54-4.36,3-6.47,4.62l-6.3,4.82a278,278,0,0,0-44.29,45.17c-13.14,16.58-24.28,34.68-34.26,53.45l-.3-.14a265.41,265.41,0,0,1,32-55.31,242.35,242.35,0,0,1,45.27-45.23l6.44-4.77c2.15-1.58,4.39-3,6.58-4.55l6.58-4.53c2.16-1.54,4.46-2.93,6.68-4.4a169.93,169.93,0,0,1,28.41-14.76l3.74-1.46,3.81-1.26c2.52-.9,5.12-1.53,7.7-2.24,1.28-.38,2.6-.61,3.91-.89l3.93-.81,4-.56c1.32-.19,2.64-.4,4-.46a94.84,94.84,0,0,1,31.75,2.51Z"/></g><g id="_Group_19" data-name="&lt;Group&gt;"><path class="cls-6" d="M391.23,268.22c-18.68.24-37,6-53.16,14.92a136.35,136.35,0,0,0-11.88,7.24c-3.88,2.55-7.58,5.36-11.24,8.21a208.59,208.59,0,0,0-20.48,18.82c-12.79,13.48-23.78,28.52-34.08,44-5.16,7.73-10,15.67-14.72,23.7-2.36,4-4.64,8.08-6.87,12.17s-4.46,8.19-6.68,12.3l-.3-.14c1.77-4.33,3.7-8.58,5.65-12.84s4.06-8.43,6.21-12.59c4.28-8.33,9-16.46,14-24.38a264,264,0,0,1,34.95-44,211,211,0,0,1,21.05-18.68c3.75-2.82,7.55-5.59,11.51-8.1a138.1,138.1,0,0,1,12.15-7.11c16.61-8.67,35.19-14,53.93-13.81Z"/></g></g></g></g></svg>