<?xml version="1.0" encoding="UTF-8"?>
<svg width="270px" height="508px" viewBox="0 0 270 508" version="1.1" xmlns="http://www.w3.org/2000/svg" xmlns:xlink="http://www.w3.org/1999/xlink">
    <!-- Generator: Sketch 52.1 (67048) - http://www.bohemiancoding.com/sketch -->
    <title>03</title>
    <desc>Created with Sketch.</desc>
    <defs>
        <path d="M0,0 L266,0 C268.209139,-4.05812251e-16 270,1.790861 270,4 L270,504 C270,506.209139 268.209139,508 266,508 L0,508 L0,0 Z" id="path-1"></path>
        <linearGradient x1="0%" y1="50.0022376%" x2="100%" y2="50.0022376%" id="linearGradient-3">
            <stop stop-color="#B0DFFE" offset="0%"></stop>
            <stop stop-color="#C8FFE4" offset="100%"></stop>
        </linearGradient>
        <linearGradient x1="0%" y1="50.0047497%" x2="100%" y2="50.0047497%" id="linearGradient-4">
            <stop stop-color="#5B98CB" offset="0%"></stop>
            <stop stop-color="#66A9C0" offset="29%"></stop>
            <stop stop-color="#7DD0A6" offset="100%"></stop>
        </linearGradient>
        <linearGradient x1="0%" y1="49.9960169%" x2="100%" y2="49.9960169%" id="linearGradient-5">
            <stop stop-color="#7DC0FD" offset="0%"></stop>
            <stop stop-color="#83CBF2" offset="21%"></stop>
            <stop stop-color="#99F2CB" offset="100%"></stop>
        </linearGradient>
        <linearGradient x1="32.1439125%" y1="103.570058%" x2="67.8560875%" y2="-3.57005758%" id="linearGradient-6">
            <stop stop-color="#8465F8" offset="0%"></stop>
            <stop stop-color="#828CFA" offset="47%"></stop>
            <stop stop-color="#80BCFD" offset="100%"></stop>
        </linearGradient>
        <linearGradient x1="6.27941485e-05%" y1="50.0612162%" x2="100%" y2="50.0612162%" id="linearGradient-7">
            <stop stop-color="#B0A0FC" offset="0%"></stop>
            <stop stop-color="#C0C7FD" offset="56%"></stop>
            <stop stop-color="#CDE8FE" offset="100%"></stop>
        </linearGradient>
        <linearGradient x1="0.0359843292%" y1="50.006398%" x2="100%" y2="50.006398%" id="linearGradient-8">
            <stop stop-color="#A18EFC" offset="0%"></stop>
            <stop stop-color="#9DB5FD" offset="61%"></stop>
            <stop stop-color="#9AD0FD" offset="100%"></stop>
        </linearGradient>
        <linearGradient x1="39.5819866%" y1="81.250933%" x2="60.4180134%" y2="18.749067%" id="linearGradient-9">
            <stop stop-color="#8465F8" offset="0%"></stop>
            <stop stop-color="#828CFA" offset="47%"></stop>
            <stop stop-color="#80BCFD" offset="100%"></stop>
        </linearGradient>
        <linearGradient x1="47.7760883%" y1="58.3341626%" x2="54.7335147%" y2="41.6658374%" id="linearGradient-10">
            <stop stop-color="#8465F8" offset="0%"></stop>
            <stop stop-color="#828CFA" offset="47%"></stop>
            <stop stop-color="#80BCFD" offset="100%"></stop>
        </linearGradient>
        <linearGradient x1="0.0156856594%" y1="49.9516908%" x2="99.9294145%" y2="49.9516908%" id="linearGradient-11">
            <stop stop-color="#BCAEFC" offset="0%"></stop>
            <stop stop-color="#BAD5FE" offset="80%"></stop>
            <stop stop-color="#B9DFFE" offset="100%"></stop>
        </linearGradient>
        <linearGradient x1="0.0316742733%" y1="49.9488229%" x2="100%" y2="49.9488229%" id="linearGradient-12">
            <stop stop-color="#BCAEFC" offset="0%"></stop>
            <stop stop-color="#BAD5FE" offset="80%"></stop>
            <stop stop-color="#B9DFFE" offset="100%"></stop>
        </linearGradient>
        <linearGradient x1="0.0187190416%" y1="49.989773%" x2="100%" y2="49.989773%" id="linearGradient-13">
            <stop stop-color="#BCAEFC" offset="0%"></stop>
            <stop stop-color="#BAD5FE" offset="80%"></stop>
            <stop stop-color="#B9DFFE" offset="100%"></stop>
        </linearGradient>
        <linearGradient x1="27.6703967%" y1="15.9529412%" x2="70.7019329%" y2="84.9411765%" id="linearGradient-14">
            <stop stop-color="#D55281" offset="0%"></stop>
            <stop stop-color="#D96E82" offset="27%"></stop>
            <stop stop-color="#E09C84" offset="76%"></stop>
            <stop stop-color="#E3AE85" offset="100%"></stop>
        </linearGradient>
        <linearGradient x1="0%" y1="50.0070592%" x2="100%" y2="50.0070592%" id="linearGradient-15">
            <stop stop-color="#7DC0FD" offset="0%"></stop>
            <stop stop-color="#83CBF2" offset="21%"></stop>
            <stop stop-color="#99F2CB" offset="100%"></stop>
        </linearGradient>
        <linearGradient x1="7.22341754e-05%" y1="50.0377472%" x2="99.9405329%" y2="50.0377472%" id="linearGradient-16">
            <stop stop-color="#AEDEFE" offset="0%"></stop>
            <stop stop-color="#C0FFE4" offset="100%"></stop>
        </linearGradient>
        <linearGradient x1="0.00738615673%" y1="50.0070592%" x2="100%" y2="50.0070592%" id="linearGradient-17">
            <stop stop-color="#5B98CB" offset="0%"></stop>
            <stop stop-color="#66A9C0" offset="29%"></stop>
            <stop stop-color="#7DD0A6" offset="100%"></stop>
        </linearGradient>
        <linearGradient x1="39.6826956%" y1="80.9718322%" x2="60.3222162%" y2="19.0281678%" id="linearGradient-18">
            <stop stop-color="#7DC0FD" offset="0%"></stop>
            <stop stop-color="#83CBF2" offset="21%"></stop>
            <stop stop-color="#99F2CB" offset="100%"></stop>
        </linearGradient>
        <linearGradient x1="47.4789423%" y1="59.180992%" x2="55.3522258%" y2="40.8080587%" id="linearGradient-19">
            <stop stop-color="#7DC0FD" offset="0%"></stop>
            <stop stop-color="#83CBF2" offset="21%"></stop>
            <stop stop-color="#99F2CB" offset="100%"></stop>
        </linearGradient>
        <linearGradient x1="-0.0120329703%" y1="50%" x2="100%" y2="50%" id="linearGradient-20">
            <stop stop-color="#BAE7FE" offset="0%"></stop>
            <stop stop-color="#C6FFE7" offset="100%"></stop>
        </linearGradient>
        <linearGradient x1="23.1455064%" y1="12.7749322%" x2="74.7503566%" y2="88.3097318%" id="linearGradient-21">
            <stop stop-color="#9F6CFB" offset="0%"></stop>
            <stop stop-color="#BE8AC5" offset="41%"></stop>
            <stop stop-color="#D9A497" offset="80%"></stop>
            <stop stop-color="#E3AE85" offset="100%"></stop>
        </linearGradient>
        <linearGradient x1="0%" y1="50%" x2="100%" y2="50%" id="linearGradient-22">
            <stop stop-color="#8465F8" offset="0%"></stop>
            <stop stop-color="#828CFA" offset="47%"></stop>
            <stop stop-color="#80BCFD" offset="100%"></stop>
        </linearGradient>
        <linearGradient x1="-0.0463289066%" y1="50%" x2="99.9854053%" y2="50%" id="linearGradient-23">
            <stop stop-color="#B0A0FC" offset="0%"></stop>
            <stop stop-color="#C0C7FD" offset="56%"></stop>
            <stop stop-color="#CDE8FE" offset="100%"></stop>
        </linearGradient>
        <linearGradient x1="-0.0123693846%" y1="50%" x2="99.959629%" y2="50%" id="linearGradient-24">
            <stop stop-color="#A18EFC" offset="0%"></stop>
            <stop stop-color="#9DB5FD" offset="61%"></stop>
            <stop stop-color="#9AD0FD" offset="100%"></stop>
        </linearGradient>
        <linearGradient x1="39.5547423%" y1="81.339814%" x2="60.4452577%" y2="18.6496196%" id="linearGradient-25">
            <stop stop-color="#8465F8" offset="0%"></stop>
            <stop stop-color="#828CFA" offset="47%"></stop>
            <stop stop-color="#80BCFD" offset="100%"></stop>
        </linearGradient>
        <linearGradient x1="46.3415179%" y1="62.1362799%" x2="57.8024554%" y2="37.8637201%" id="linearGradient-26">
            <stop stop-color="#8465F8" offset="0%"></stop>
            <stop stop-color="#828CFA" offset="47%"></stop>
            <stop stop-color="#80BCFD" offset="100%"></stop>
        </linearGradient>
        <linearGradient x1="28.7662503%" y1="79.0246769%" x2="94.2645934%" y2="20.9459459%" id="linearGradient-27">
            <stop stop-color="#BCAEFC" offset="0%"></stop>
            <stop stop-color="#BAD5FE" offset="80%"></stop>
            <stop stop-color="#B9DFFE" offset="100%"></stop>
        </linearGradient>
        <linearGradient x1="29.0530206%" y1="78.9365452%" x2="94.4940097%" y2="20.8578143%" id="linearGradient-28">
            <stop stop-color="#BCAEFC" offset="0%"></stop>
            <stop stop-color="#BAD5FE" offset="80%"></stop>
            <stop stop-color="#B9DFFE" offset="100%"></stop>
        </linearGradient>
        <linearGradient x1="7.22012251%" y1="84.2506057%" x2="141.053043%" y2="15.7840083%" id="linearGradient-29">
            <stop stop-color="#BCAEFC" offset="0%"></stop>
            <stop stop-color="#BAD5FE" offset="80%"></stop>
            <stop stop-color="#B9DFFE" offset="100%"></stop>
        </linearGradient>
        <linearGradient x1="6.89249281%" y1="84.2159917%" x2="141.198012%" y2="15.7840083%" id="linearGradient-30">
            <stop stop-color="#BCAEFC" offset="0%"></stop>
            <stop stop-color="#BAD5FE" offset="80%"></stop>
            <stop stop-color="#B9DFFE" offset="100%"></stop>
        </linearGradient>
        <linearGradient x1="23.205469%" y1="12.7249357%" x2="74.7816179%" y2="88.3033419%" id="linearGradient-31">
            <stop stop-color="#D55281" offset="0%"></stop>
            <stop stop-color="#D96E82" offset="27%"></stop>
            <stop stop-color="#E09C84" offset="76%"></stop>
            <stop stop-color="#E3AE85" offset="100%"></stop>
        </linearGradient>
        <linearGradient x1="0%" y1="50%" x2="100%" y2="50%" id="linearGradient-32">
            <stop stop-color="#7DC0FD" offset="0%"></stop>
            <stop stop-color="#83CBF2" offset="21%"></stop>
            <stop stop-color="#99F2CB" offset="100%"></stop>
        </linearGradient>
        <linearGradient x1="-0.0213940612%" y1="50%" x2="99.9553409%" y2="50%" id="linearGradient-33">
            <stop stop-color="#AEDEFE" offset="0%"></stop>
            <stop stop-color="#C0FFE4" offset="100%"></stop>
        </linearGradient>
        <linearGradient x1="0.0082163915%" y1="49.991354%" x2="100%" y2="49.991354%" id="linearGradient-34">
            <stop stop-color="#5B98CB" offset="0%"></stop>
            <stop stop-color="#66A9C0" offset="29%"></stop>
            <stop stop-color="#7DD0A6" offset="100%"></stop>
        </linearGradient>
        <linearGradient x1="39.7846191%" y1="80.6642066%" x2="60.2214651%" y2="19.3357934%" id="linearGradient-35">
            <stop stop-color="#7DC0FD" offset="0%"></stop>
            <stop stop-color="#83CBF2" offset="21%"></stop>
            <stop stop-color="#99F2CB" offset="100%"></stop>
        </linearGradient>
        <linearGradient x1="47.3488671%" y1="59.5288794%" x2="55.6133483%" y2="40.4578121%" id="linearGradient-36">
            <stop stop-color="#7DC0FD" offset="0%"></stop>
            <stop stop-color="#83CBF2" offset="21%"></stop>
            <stop stop-color="#99F2CB" offset="100%"></stop>
        </linearGradient>
        <linearGradient x1="18.9422699%" y1="82.1043165%" x2="116.258673%" y2="17.8507194%" id="linearGradient-37">
            <stop stop-color="#BAE7FE" offset="0%"></stop>
            <stop stop-color="#C6FFE7" offset="100%"></stop>
        </linearGradient>
        <linearGradient x1="18.9422699%" y1="82.1813285%" x2="116.140856%" y2="17.9982047%" id="linearGradient-38">
            <stop stop-color="#BAE7FE" offset="0%"></stop>
            <stop stop-color="#C6FFE7" offset="100%"></stop>
        </linearGradient>
        <linearGradient x1="40.3820555%" y1="69.7727273%" x2="62.8507387%" y2="31.8939394%" id="linearGradient-39">
            <stop stop-color="#BAE7FE" offset="0%"></stop>
            <stop stop-color="#C6FFE7" offset="100%"></stop>
        </linearGradient>
        <linearGradient x1="21.866164%" y1="14.0456989%" x2="81.1027333%" y2="87.1975806%" id="linearGradient-40">
            <stop stop-color="#9F6CFB" offset="0%"></stop>
            <stop stop-color="#BE8AC5" offset="41%"></stop>
            <stop stop-color="#D9A497" offset="80%"></stop>
            <stop stop-color="#E3AE85" offset="100%"></stop>
        </linearGradient>
        <linearGradient x1="0.0106044539%" y1="50%" x2="100%" y2="50%" id="linearGradient-41">
            <stop stop-color="#8465F8" offset="0%"></stop>
            <stop stop-color="#828CFA" offset="47%"></stop>
            <stop stop-color="#80BCFD" offset="100%"></stop>
        </linearGradient>
        <linearGradient x1="0.00298606079%" y1="50.0173671%" x2="100%" y2="50.0173671%" id="linearGradient-42">
            <stop stop-color="#B0A0FC" offset="0%"></stop>
            <stop stop-color="#C0C7FD" offset="56%"></stop>
            <stop stop-color="#CDE8FE" offset="100%"></stop>
        </linearGradient>
        <linearGradient x1="-0.00329391568%" y1="50.0328731%" x2="100%" y2="50.0328731%" id="linearGradient-43">
            <stop stop-color="#A18EFC" offset="0%"></stop>
            <stop stop-color="#9DB5FD" offset="61%"></stop>
            <stop stop-color="#9AD0FD" offset="100%"></stop>
        </linearGradient>
        <linearGradient x1="39.6015472%" y1="81.2041116%" x2="60.3984528%" y2="18.8050661%" id="linearGradient-44">
            <stop stop-color="#8465F8" offset="0%"></stop>
            <stop stop-color="#828CFA" offset="47%"></stop>
            <stop stop-color="#80BCFD" offset="100%"></stop>
        </linearGradient>
        <linearGradient x1="48.0731683%" y1="57.357775%" x2="54.0370772%" y2="42.642225%" id="linearGradient-45">
            <stop stop-color="#8465F8" offset="0%"></stop>
            <stop stop-color="#828CFA" offset="47%"></stop>
            <stop stop-color="#80BCFD" offset="100%"></stop>
        </linearGradient>
        <linearGradient x1="-0.0519480519%" y1="50.0302115%" x2="100%" y2="50.0302115%" id="linearGradient-46">
            <stop stop-color="#BCAEFC" offset="0%"></stop>
            <stop stop-color="#BAD5FE" offset="80%"></stop>
            <stop stop-color="#B9DFFE" offset="100%"></stop>
        </linearGradient>
        <linearGradient x1="-0.0519480519%" y1="49.9093656%" x2="100%" y2="49.9093656%" id="linearGradient-47">
            <stop stop-color="#BCAEFC" offset="0%"></stop>
            <stop stop-color="#BAD5FE" offset="80%"></stop>
            <stop stop-color="#B9DFFE" offset="100%"></stop>
        </linearGradient>
        <linearGradient x1="-0.0108259107%" y1="49.8659217%" x2="100.007215%" y2="49.8659217%" id="linearGradient-48">
            <stop stop-color="#BCAEFC" offset="0%"></stop>
            <stop stop-color="#BAD5FE" offset="80%"></stop>
            <stop stop-color="#B9DFFE" offset="100%"></stop>
        </linearGradient>
        <linearGradient x1="29.9758745%" y1="9.71428571%" x2="77.0205066%" y2="106.214286%" id="linearGradient-49">
            <stop stop-color="#D55281" offset="0%"></stop>
            <stop stop-color="#D96E82" offset="27%"></stop>
            <stop stop-color="#E09C84" offset="76%"></stop>
            <stop stop-color="#E3AE85" offset="100%"></stop>
        </linearGradient>
        <linearGradient x1="-0.0645532719%" y1="50.0587084%" x2="99.9383269%" y2="50.0587084%" id="linearGradient-50">
            <stop stop-color="#AEDEFE" offset="0%"></stop>
            <stop stop-color="#C0FFE4" offset="100%"></stop>
        </linearGradient>
        <linearGradient x1="0.0565050088%" y1="49.9817185%" x2="100.058293%" y2="49.9817185%" id="linearGradient-51">
            <stop stop-color="#5B98CB" offset="0%"></stop>
            <stop stop-color="#66A9C0" offset="29%"></stop>
            <stop stop-color="#7DD0A6" offset="100%"></stop>
        </linearGradient>
        <linearGradient x1="39.6754693%" y1="80.9723294%" x2="60.3181674%" y2="19.0276706%" id="linearGradient-52">
            <stop stop-color="#7DC0FD" offset="0%"></stop>
            <stop stop-color="#83CBF2" offset="21%"></stop>
            <stop stop-color="#99F2CB" offset="100%"></stop>
        </linearGradient>
        <linearGradient x1="47.4755272%" y1="59.1914894%" x2="55.3489351%" y2="40.822695%" id="linearGradient-53">
            <stop stop-color="#7DC0FD" offset="0%"></stop>
            <stop stop-color="#83CBF2" offset="21%"></stop>
            <stop stop-color="#99F2CB" offset="100%"></stop>
        </linearGradient>
        <linearGradient x1="-0.019490138%" y1="50%" x2="100%" y2="50%" id="linearGradient-54">
            <stop stop-color="#BAE7FE" offset="0%"></stop>
            <stop stop-color="#C6FFE7" offset="100%"></stop>
        </linearGradient>
        <linearGradient x1="-0.019496978%" y1="50.03003%" x2="100%" y2="50.03003%" id="linearGradient-55">
            <stop stop-color="#BAE7FE" offset="0%"></stop>
            <stop stop-color="#C6FFE7" offset="100%"></stop>
        </linearGradient>
        <linearGradient x1="0.211480363%" y1="50%" x2="100%" y2="50%" id="linearGradient-56">
            <stop stop-color="#BAE7FE" offset="0%"></stop>
            <stop stop-color="#C6FFE7" offset="100%"></stop>
        </linearGradient>
        <linearGradient x1="-1.4531371%" y1="42.5354165%" x2="93.6166231%" y2="55.484281%" id="linearGradient-57">
            <stop stop-color="#446B90" offset="0%"></stop>
            <stop stop-color="#445E81" offset="27%"></stop>
            <stop stop-color="#433D5A" offset="100%"></stop>
        </linearGradient>
        <linearGradient x1="0.0119698038%" y1="50.031795%" x2="100.05597%" y2="50.031795%" id="linearGradient-58">
            <stop stop-color="#8465F8" offset="0%"></stop>
            <stop stop-color="#828CFA" offset="47%"></stop>
            <stop stop-color="#80BCFD" offset="100%"></stop>
        </linearGradient>
        <linearGradient x1="0.00273142146%" y1="49.9926562%" x2="100%" y2="49.9926562%" id="linearGradient-59">
            <stop stop-color="#8465F8" offset="0%"></stop>
            <stop stop-color="#828CFA" offset="47%"></stop>
            <stop stop-color="#80BCFD" offset="100%"></stop>
        </linearGradient>
        <linearGradient x1="49.89952%" y1="100%" x2="49.89952%" y2="-0.202353285%" id="linearGradient-60">
            <stop stop-color="#99F2CB" offset="0%"></stop>
            <stop stop-color="#83CBF2" offset="68%"></stop>
            <stop stop-color="#7DC0FD" offset="86%"></stop>
        </linearGradient>
        <linearGradient x1="17.5783509%" y1="-4.51505017%" x2="74.6901557%" y2="95.1505017%" id="linearGradient-61">
            <stop stop-color="#7DC0FD" offset="36%"></stop>
            <stop stop-color="#83CBF2" offset="50%"></stop>
            <stop stop-color="#99F2CB" offset="100%"></stop>
        </linearGradient>
        <linearGradient x1="0%" y1="50%" x2="99.7311828%" y2="50%" id="linearGradient-62">
            <stop stop-color="#7DC0FD" offset="0%"></stop>
            <stop stop-color="#83CBF2" offset="21%"></stop>
            <stop stop-color="#99F2CB" offset="100%"></stop>
        </linearGradient>
        <linearGradient x1="-0.0198935491%" y1="50.001442%" x2="99.984834%" y2="50.001442%" id="linearGradient-63">
            <stop stop-color="#433D5A" offset="0%"></stop>
            <stop stop-color="#445E81" offset="73%"></stop>
            <stop stop-color="#446B90" offset="100%"></stop>
        </linearGradient>
        <linearGradient x1="49.2541457%" y1="-0.640976809%" x2="50.9832821%" y2="101.051778%" id="linearGradient-64">
            <stop stop-color="#354550" offset="0%"></stop>
            <stop stop-color="#27262F" offset="100%"></stop>
        </linearGradient>
        <linearGradient x1="0%" y1="50.0123082%" x2="100%" y2="50.0123082%" id="linearGradient-65">
            <stop stop-color="#27262F" offset="0%"></stop>
            <stop stop-color="#354550" offset="100%"></stop>
        </linearGradient>
        <linearGradient x1="0.629968805%" y1="50.0215276%" x2="100%" y2="50.0215276%" id="linearGradient-66">
            <stop stop-color="#4E496A" offset="0%"></stop>
            <stop stop-color="#536B91" offset="51%"></stop>
            <stop stop-color="#588FB9" offset="100%"></stop>
        </linearGradient>
        <linearGradient x1="12.9897116%" y1="-14.2503109%" x2="87.003461%" y2="114.188972%" id="linearGradient-67">
            <stop stop-color="#D55281" offset="0%"></stop>
            <stop stop-color="#D96E82" offset="27%"></stop>
            <stop stop-color="#E09C84" offset="76%"></stop>
            <stop stop-color="#E3AE85" offset="100%"></stop>
        </linearGradient>
        <linearGradient x1="49.8855835%" y1="99.9774215%" x2="49.8855835%" y2="-0.0225784601%" id="linearGradient-68">
            <stop stop-color="#E3AE85" offset="0%"></stop>
            <stop stop-color="#E09C84" offset="24%"></stop>
            <stop stop-color="#D96E82" offset="73%"></stop>
            <stop stop-color="#D55281" offset="100%"></stop>
        </linearGradient>
        <linearGradient x1="50.0438212%" y1="100.024643%" x2="50.0438212%" y2="0%" id="linearGradient-69">
            <stop stop-color="#E3AE85" offset="0%"></stop>
            <stop stop-color="#E09C84" offset="24%"></stop>
            <stop stop-color="#D96E82" offset="73%"></stop>
            <stop stop-color="#D55281" offset="100%"></stop>
        </linearGradient>
        <linearGradient x1="66.54376%" y1="91.1693009%" x2="24.0464733%" y2="13.6731898%" id="linearGradient-70">
            <stop stop-color="#433D5A" offset="0%"></stop>
            <stop stop-color="#445E81" offset="73%"></stop>
            <stop stop-color="#446B90" offset="100%"></stop>
        </linearGradient>
        <linearGradient x1="0%" y1="50%" x2="100%" y2="50%" id="linearGradient-71">
            <stop stop-color="#433D5A" offset="0%"></stop>
            <stop stop-color="#445E81" offset="73%"></stop>
            <stop stop-color="#446B90" offset="100%"></stop>
        </linearGradient>
        <linearGradient x1="10.4935804%" y1="19.1606185%" x2="87.9659625%" y2="82.3905955%" id="linearGradient-72">
            <stop stop-color="#80BCFD" offset="0%"></stop>
            <stop stop-color="#828CFA" offset="53%"></stop>
            <stop stop-color="#8465F8" offset="100%"></stop>
        </linearGradient>
        <linearGradient x1="-0.0393730367%" y1="49.9558292%" x2="99.7105126%" y2="49.9558292%" id="linearGradient-73">
            <stop stop-color="#D55281" offset="0%"></stop>
            <stop stop-color="#D96E82" offset="27%"></stop>
            <stop stop-color="#E09C84" offset="76%"></stop>
            <stop stop-color="#E3AE85" offset="100%"></stop>
        </linearGradient>
        <linearGradient x1="29.7044301%" y1="64.3231492%" x2="70.031991%" y2="35.913597%" id="linearGradient-74">
            <stop stop-color="#8465F8" offset="0%"></stop>
            <stop stop-color="#828CFA" offset="47%"></stop>
            <stop stop-color="#80BCFD" offset="100%"></stop>
        </linearGradient>
        <linearGradient x1="0%" y1="49.9723308%" x2="100%" y2="49.9723308%" id="linearGradient-75">
            <stop stop-color="#99F2CB" offset="0%"></stop>
            <stop stop-color="#83CBF2" offset="79%"></stop>
            <stop stop-color="#7DC0FD" offset="100%"></stop>
        </linearGradient>
        <linearGradient x1="0%" y1="49.9887867%" x2="100.007222%" y2="49.9887867%" id="linearGradient-76">
            <stop stop-color="#80BCFD" offset="0%"></stop>
            <stop stop-color="#828CFA" offset="53%"></stop>
            <stop stop-color="#8465F8" offset="100%"></stop>
        </linearGradient>
        <linearGradient x1="0%" y1="49.8253094%" x2="100.045045%" y2="49.8253094%" id="linearGradient-77">
            <stop stop-color="#7DC0FD" offset="0%"></stop>
            <stop stop-color="#83CBF2" offset="21%"></stop>
            <stop stop-color="#99F2CB" offset="100%"></stop>
        </linearGradient>
        <linearGradient x1="18.1804626%" y1="100%" x2="83.088971%" y2="-2.18538056%" id="linearGradient-78">
            <stop stop-color="#7DC0FD" offset="0%"></stop>
            <stop stop-color="#83CBF2" offset="21%"></stop>
            <stop stop-color="#99F2CB" offset="100%"></stop>
        </linearGradient>
        <linearGradient x1="49.9702026%" y1="100%" x2="49.9702026%" y2="0%" id="linearGradient-79">
            <stop stop-color="#7DC0FD" offset="0%"></stop>
            <stop stop-color="#83CBF2" offset="21%"></stop>
            <stop stop-color="#99F2CB" offset="100%"></stop>
        </linearGradient>
        <linearGradient x1="28.1948004%" y1="23.9643825%" x2="55.8769681%" y2="74.6418893%" id="linearGradient-80">
            <stop stop-color="#80BCFD" offset="0%"></stop>
            <stop stop-color="#828CFA" offset="53%"></stop>
            <stop stop-color="#8465F8" offset="100%"></stop>
        </linearGradient>
        <linearGradient x1="49.9822001%" y1="100.104348%" x2="49.9822001%" y2="0.104347826%" id="linearGradient-81">
            <stop stop-color="#7DC0FD" offset="0%"></stop>
            <stop stop-color="#83CBF2" offset="21%"></stop>
            <stop stop-color="#99F2CB" offset="100%"></stop>
        </linearGradient>
        <linearGradient x1="0.205575162%" y1="51.3394078%" x2="100%" y2="51.3394078%" id="linearGradient-82">
            <stop stop-color="#7DC0FD" offset="0%"></stop>
            <stop stop-color="#83CBF2" offset="21%"></stop>
            <stop stop-color="#99F2CB" offset="100%"></stop>
        </linearGradient>
        <linearGradient x1="50.0545448%" y1="-4.20369897%" x2="49.9408867%" y2="103.903074%" id="linearGradient-83">
            <stop stop-color="#D55281" offset="0%"></stop>
            <stop stop-color="#D96E82" offset="27%"></stop>
            <stop stop-color="#E09C84" offset="76%"></stop>
            <stop stop-color="#E3AE85" offset="100%"></stop>
        </linearGradient>
        <linearGradient x1="0%" y1="50.0628931%" x2="100%" y2="50.0628931%" id="linearGradient-84">
            <stop stop-color="#7DC0FD" offset="0%"></stop>
            <stop stop-color="#83CBF2" offset="21%"></stop>
            <stop stop-color="#99F2CB" offset="100%"></stop>
        </linearGradient>
        <linearGradient x1="68.1166617%" y1="-3.78380325%" x2="30.9941006%" y2="103.728071%" id="linearGradient-85">
            <stop stop-color="#80BCFD" offset="0%"></stop>
            <stop stop-color="#828CFA" offset="53%"></stop>
            <stop stop-color="#8465F8" offset="100%"></stop>
        </linearGradient>
        <linearGradient x1="119.894663%" y1="0.547355818%" x2="-16.8878335%" y2="99.6246216%" id="linearGradient-86">
            <stop stop-color="#7DC0FD" offset="0%"></stop>
            <stop stop-color="#83CBF2" offset="21%"></stop>
            <stop stop-color="#99F2CB" offset="100%"></stop>
        </linearGradient>
        <linearGradient x1="3.80952381%" y1="52.3224044%" x2="96%" y2="47.8142077%" id="linearGradient-87">
            <stop stop-color="#80BCFD" offset="0%"></stop>
            <stop stop-color="#828CFA" offset="53%"></stop>
            <stop stop-color="#8465F8" offset="100%"></stop>
        </linearGradient>
        <linearGradient x1="-0.0756555063%" y1="49.9486314%" x2="100.39597%" y2="49.9486314%" id="linearGradient-88">
            <stop stop-color="#80BCFD" offset="0%"></stop>
            <stop stop-color="#828CFA" offset="53%"></stop>
            <stop stop-color="#8465F8" offset="100%"></stop>
        </linearGradient>
        <linearGradient x1="20.2614623%" y1="306.643742%" x2="-51.1359376%" y2="384.37605%" id="linearGradient-89">
            <stop stop-color="#7DC0FD" offset="0%"></stop>
            <stop stop-color="#83CBF2" offset="21%"></stop>
            <stop stop-color="#99F2CB" offset="100%"></stop>
        </linearGradient>
        <linearGradient x1="50.3039238%" y1="-2.09678167%" x2="50.1785871%" y2="106.015216%" id="linearGradient-90">
            <stop stop-color="#D55281" offset="0%"></stop>
            <stop stop-color="#D96E82" offset="27%"></stop>
            <stop stop-color="#E09C84" offset="76%"></stop>
            <stop stop-color="#E3AE85" offset="100%"></stop>
        </linearGradient>
        <linearGradient x1="36.3104265%" y1="201.817094%" x2="7.57227488%" y2="253.150427%" id="linearGradient-91">
            <stop stop-color="#7DC0FD" offset="0%"></stop>
            <stop stop-color="#83CBF2" offset="21%"></stop>
            <stop stop-color="#99F2CB" offset="100%"></stop>
        </linearGradient>
        <linearGradient x1="71.8180363%" y1="-2.05297519%" x2="34.6878414%" y2="105.543049%" id="linearGradient-92">
            <stop stop-color="#80BCFD" offset="0%"></stop>
            <stop stop-color="#828CFA" offset="53%"></stop>
            <stop stop-color="#8465F8" offset="100%"></stop>
        </linearGradient>
        <linearGradient x1="121.494817%" y1="1.21166268%" x2="-14.1702388%" y2="100.202147%" id="linearGradient-93">
            <stop stop-color="#7DC0FD" offset="0%"></stop>
            <stop stop-color="#83CBF2" offset="21%"></stop>
            <stop stop-color="#99F2CB" offset="100%"></stop>
        </linearGradient>
        <linearGradient x1="37.1626794%" y1="182.531469%" x2="0.976076555%" y2="243.173427%" id="linearGradient-94">
            <stop stop-color="#80BCFD" offset="0%"></stop>
            <stop stop-color="#828CFA" offset="53%"></stop>
            <stop stop-color="#8465F8" offset="100%"></stop>
        </linearGradient>
        <linearGradient x1="37.1112629%" y1="197.235115%" x2="20.0373043%" y2="231.965143%" id="linearGradient-95">
            <stop stop-color="#80BCFD" offset="0%"></stop>
            <stop stop-color="#828CFA" offset="53%"></stop>
            <stop stop-color="#8465F8" offset="100%"></stop>
        </linearGradient>
    </defs>
    <g id="Page-1" stroke="none" stroke-width="1" fill="none" fill-rule="evenodd">
        <g id="Final" transform="translate(-798.000000, -130.000000)">
            <g id="Block" transform="translate(298.000000, 130.000000)">
                <g id="03" transform="translate(500.000000, 0.000000)">
                    <mask id="mask-2" fill="white">
                        <use xlink:href="#path-1"></use>
                    </mask>
                    <use id="Mask" fill="#D8D8D8" fill-rule="nonzero" xlink:href="#path-1"></use>
                    <g mask="url(#mask-2)">
                        <g transform="translate(-2.000000, -8.000000)">
                            <rect id="Rectangle-path" fill="#500099" fill-rule="nonzero" x="0" y="0" width="276" height="519"></rect>
                            <g id="04" stroke-width="1" fill="none" fill-rule="evenodd" transform="translate(11.000000, 109.000000)">
                                <polygon id="Shape" fill="#D4D1FD" fill-rule="nonzero" points="136.244925 331 250 265.076751 113.74861 186 0 251.923249"></polygon>
                                <polygon id="Shape" fill="url(#linearGradient-3)" fill-rule="nonzero" points="136.244925 316 250 250.076751 113.74861 171 0 236.929738"></polygon>
                                <polygon id="Shape" fill="url(#linearGradient-4)" fill-rule="nonzero" points="136 315.622875 136 318 249 252.370666 249 250"></polygon>
                                <polygon id="Shape" fill="url(#linearGradient-5)" fill-rule="nonzero" points="136 317 0 238.368119 0 236 136 314.625428"></polygon>
                                <polygon id="Shape" fill="url(#linearGradient-6)" fill-rule="nonzero" points="138.140071 287 201 250.572361 175.853428 236 113 272.427639"></polygon>
                                <path d="M137.514306,285.661135 L198,251.410148 C196.998864,247.331794 196.998864,243.078355 198,239 L136.941105,273.410828 C136.941105,273.410828 132.433664,283.321045 137.156056,286 L137.514306,285.661135 Z" id="Shape" fill="url(#linearGradient-7)" fill-rule="nonzero"></path>
                                <path d="M200,251.338964 L137.985702,287.290211 C133.78993,284.183877 137.985702,275.086756 137.985702,275.086756 L200,239.109405 L200,238 L136.095656,273.801152 C136.095656,273.801152 130.724288,285.260653 137.180322,289 L200,252.572361 L200,251.338964 Z" id="Shape" fill="url(#linearGradient-8)" fill-rule="nonzero"></path>
                                <polygon id="Shape" fill="url(#linearGradient-9)" fill-rule="nonzero" points="50 223.253247 137.498384 274 200 237.746753 112.501616 187"></polygon>
                                <path d="M136,288 C130.97452,284.119017 136,273.556274 136,273.556274 L49.2335467,223 C49.2335467,223 44.2080666,233.549806 49.2335467,237.443726 L136,288 Z" id="Shape" fill="url(#linearGradient-10)" fill-rule="nonzero"></path>
                                <path d="M131,282 C130.743129,281.052063 130.743129,280.059049 131,279.111111 L112.298028,269 C112.298028,269 111.627466,270.884058 112.298028,271.888889 L131,282 Z" id="Shape" fill="url(#linearGradient-11)" fill-rule="nonzero"></path>
                                <path d="M131,276 C130.743129,275.052063 130.743129,274.059049 131,273.111111 L112.298028,263 C112.298028,263 111.627466,264.884058 112.298028,265.888889 L131,276 Z" id="Shape" fill="url(#linearGradient-11)" fill-rule="nonzero"></path>
                                <path d="M104,267 C103.751816,266.042136 103.751816,265.038724 104,264.08086 L54.2879479,236 C54.2879479,236 53.6400651,237.903787 54.2879479,238.91914 L104,267 Z" id="Shape" fill="url(#linearGradient-12)" fill-rule="nonzero"></path>
                                <path d="M104,262 C103.751784,261.04292 103.751784,260.040328 104,259.083248 L54.2879853,231 C54.2879853,231 53.6400184,232.902229 54.2879853,233.916752 L104,262 Z" id="Shape" fill="url(#linearGradient-13)" fill-rule="nonzero"></path>
                                <path d="M158,277.931765 C154.948118,276.983529 155.82706,270.688471 152.915565,269 L146,273.068235 C148.911495,274.756706 148.050865,281.051765 151.084435,282 C151.084435,282 151.426246,277.913412 152.555443,277.332235 C152.573754,277.332235 156.449644,278.243765 158,277.931765 Z" id="Shape" fill="url(#linearGradient-14)" fill-rule="nonzero"></path>
                                <polygon id="Shape" fill="url(#linearGradient-15)" fill-rule="nonzero" points="135.781104 266 190 234.502047 165.039944 220 121 257.446845"></polygon>
                                <path d="M135.479105,264.655896 L187,234.601993 C186.432316,230.420929 186.432316,226.181064 187,222 L134.913929,252.216216 C134.913929,252.216216 130.469594,262.279632 135.12587,265 L135.479105,264.655896 Z" id="Shape" fill="url(#linearGradient-16)" fill-rule="nonzero"></path>
                                <path d="M189,234.274601 L135.909085,265.298461 C131.766968,262.207116 135.909085,253.15389 135.909085,253.15389 L189,222.104052 L189,221 L134.068857,251.874488 C134.068857,251.874488 128.766177,263.278695 135.139652,267 L189,235.495553 L189,234.274601 Z" id="Shape" fill="url(#linearGradient-17)" fill-rule="nonzero"></path>
                                <polygon id="Shape" fill="url(#linearGradient-18)" fill-rule="nonzero" points="58 208.374011 134.950194 253 189 221.625989 112.05624 177"></polygon>
                                <path d="M135,267 C129.967599,263.123946 135,252.57462 135,252.57462 L58.2366228,208 C58.2366228,208 53.2042215,218.536406 58.2366228,222.42538 L135,267 Z" id="Shape" fill="url(#linearGradient-19)" fill-rule="nonzero"></path>
                                <path d="M119,255 C117.263056,252.161314 119,246.198123 119,246.198123 L72.8341857,219 C72.8341857,219 70.9572679,224.573439 72.8341857,227.801877 L119,255 Z" id="Shape" fill="url(#linearGradient-20)" fill-rule="nonzero"></path>
                                <path d="M161,264.818017 C155.53067,263.147635 157.090585,251.999096 151.852354,249 L143,254.181983 C148.238231,257.162097 146.684736,268.304309 152.147646,270 C152.147646,270 150.722539,263.805664 152.789586,262.77433 C152.757489,262.755348 158.207561,265.374812 161,264.818017 Z" id="Shape" fill="url(#linearGradient-21)" fill-rule="nonzero"></path>
                                <polygon id="Shape" fill="url(#linearGradient-22)" fill-rule="nonzero" points="135.534436 245 180 219.193475 150.375759 202 118 234.847041"></polygon>
                                <path d="M134.967407,242.599801 L177,218.787984 C176.314732,213.881661 176.314732,208.906323 177,204 L134.310647,227.999007 C134.310647,227.999007 128.944924,239.804866 134.566784,243 L134.967407,242.599801 Z" id="Shape" fill="url(#linearGradient-23)" fill-rule="nonzero"></path>
                                <path d="M178.980622,218.738392 L135.644799,243.970713 C130.72277,240.303642 135.644799,229.569954 135.644799,229.569954 L178.980622,204.305008 L178.980622,203 L133.455078,228.062671 C133.455078,228.062671 127.150746,241.582549 134.746949,246 L179,220.2 L178.980622,218.738392 Z" id="Shape" fill="url(#linearGradient-24)" fill-rule="nonzero"></path>
                                <polygon id="Shape" fill="url(#linearGradient-25)" fill-rule="nonzero" points="73 193.485418 134.699177 229 179 203.514582 117.294358 168"></polygon>
                                <polygon id="Shape" fill="#BEC1C3" fill-rule="nonzero" points="89 195.968488 131.497803 221 162 203.038058 119.508612 178"></polygon>
                                <path d="M135,247 C129.047143,242.379988 135,229.853898 135,229.853898 L73.6457143,194 C73.6457143,194 67.6928571,206.52609 73.6457143,211.146102 L135,247 Z" id="Shape" fill="url(#linearGradient-26)" fill-rule="nonzero"></path>
                                <path d="M92,221 C85.6268162,216.411281 92,203.970035 92,203.970035 L82.8325261,199 C82.8325261,199 76.4593423,211.441246 82.8325261,216.029965 L92,221 Z" id="Shape" fill="url(#linearGradient-27)" fill-rule="nonzero"></path>
                                <path d="M126,241 C119.626816,236.411281 126,223.970035 126,223.970035 L116.832526,219 C116.832526,219 110.459342,231.441246 116.832526,236.029965 L126,241 Z" id="Shape" fill="url(#linearGradient-28)" fill-rule="nonzero"></path>
                                <path d="M80,215 C74.5692689,210.330564 80,197.670474 80,197.670474 L77.4136583,196 C77.4136583,196 71.9829271,208.66009 77.4136583,213.329526 L80,215 Z" id="Shape" fill="url(#linearGradient-29)" fill-rule="nonzero"></path>
                                <path d="M130,244 C124.550092,239.330564 130,226.670474 130,226.670474 L127.422182,225 C127.422182,225 121.972273,237.66009 127.422182,242.329526 L130,244 Z" id="Shape" fill="url(#linearGradient-30)" fill-rule="nonzero"></path>
                                <path d="M161,239.817481 C155.834789,238.143959 157.306874,226.996144 152.361185,224 L144,229.182519 C148.945689,232.165167 147.480061,243.35347 152.638815,245 C152.638815,245 151.29586,238.80527 153.219901,237.766067 C153.252184,237.766067 158.365742,240.377571 161,239.817481 Z" id="Shape" fill="url(#linearGradient-31)" fill-rule="nonzero"></path>
                                <polygon id="Shape" fill="url(#linearGradient-32)" fill-rule="nonzero" points="132.628908 222 176 197.196818 154.669743 185 120 214.807333"></polygon>
                                <path d="M131.145535,220.707575 L173,196.767731 C172.505775,193.195233 172.505775,189.572498 173,186 L130.667385,210.076309 C130.667385,210.076309 126.796338,218.673598 130.850785,221 L131.145535,220.707575 Z" id="Shape" fill="url(#linearGradient-33)" fill-rule="nonzero"></path>
                                <path d="M175,197.16462 L132.357402,221.560436 C128.803852,218.962822 132.357402,211.323534 132.357402,211.323534 L175,186.927719 L175,186 L130.77733,210.274252 C130.77733,210.274252 126.224143,219.871347 131.693127,223 L174.993551,198.201107 L175,197.16462 Z" id="Shape" fill="url(#linearGradient-34)" fill-rule="nonzero"></path>
                                <polygon id="Shape" fill="url(#linearGradient-35)" fill-rule="nonzero" points="70 174.336004 132.699684 211 176 185.663996 113.306766 149"></polygon>
                                <path d="M131,222 C126.720037,218.716529 131,209.824328 131,209.824328 L68.9022059,174 C68.9022059,174 64.6222427,182.898589 68.9022059,186.175672 L131,222 Z" id="Shape" fill="url(#linearGradient-36)" fill-rule="nonzero"></path>
                                <path d="M77,192 C73.0531483,188.764388 77,180.001799 77,180.001799 L73.7541563,178 C73.7541563,178 69.8073046,186.768885 73.7541563,189.998201 L77,192 Z" id="Shape" fill="url(#linearGradient-37)" fill-rule="nonzero"></path>
                                <path d="M125,218 C121.053148,214.770197 125,206.023339 125,206.023339 L121.754156,204 C121.754156,204 117.807305,212.753142 121.754156,215.976661 L125,218 Z" id="Shape" fill="url(#linearGradient-38)" fill-rule="nonzero"></path>
                                <path d="M106.728585,206 C105.318548,204.177652 107,198.015152 107,198.015152 L90.9997275,189 C90.9997275,189 88.9541817,195.606818 90.7150722,197.422727 L106.728585,206 Z" id="Shape" fill="url(#linearGradient-39)" fill-rule="nonzero"></path>
                                <path d="M137,210.610215 C142.783223,211.46371 134.714892,224.723118 143.5,226 C143.5,226 142.06032,219.669355 144.553723,216.719086 C144.553723,216.719086 146.900094,221.752688 150,221.033602 C147.702639,216.423387 150.82705,208.311828 144.27804,206 L137,210.610215 Z" id="Shape" fill="url(#linearGradient-40)" fill-rule="nonzero"></path>
                                <polygon id="Shape" fill="url(#linearGradient-41)" fill-rule="nonzero" points="139.265854 205 190 175.923191 172.670308 166 129 199.143586"></polygon>
                                <path d="M138.737226,204.76867 L188,176.642758 C187.601789,173.775284 187.601789,170.867474 188,168 L138.34068,196.235151 C138.34068,196.235151 135.226815,203.136506 138.490197,205 L138.737226,204.76867 Z" id="Shape" fill="url(#linearGradient-42)" fill-rule="nonzero"></path>
                                <path d="M190,176.102564 L139.731906,204.826923 C136.836308,202.711538 139.731906,196.49359 139.731906,196.49359 L190,167.75 L190,167 L138.449292,195.653846 C138.449292,195.653846 134.737486,203.448718 139.194244,206 L190,176.942308 L190,176.102564 Z" id="Shape" fill="url(#linearGradient-43)" fill-rule="nonzero"></path>
                                <polygon id="Shape" fill="url(#linearGradient-44)" fill-rule="nonzero" points="68 155.121696 139.3008 196 190 166.884728 118.6992 126"></polygon>
                                <path d="M139,206 C135.475614,203.311378 139,196.025664 139,196.025664 L67.5663938,155 C67.5663938,155 64.0420077,162.285714 67.5663938,164.974336 L139,206 Z" id="Shape" fill="url(#linearGradient-45)" fill-rule="nonzero"></path>
                                <path d="M73,168 C69.1849351,165.228399 73,157.717825 73,157.717825 L71.6955844,157 C71.6955844,157 67.8805195,164.510574 71.6955844,167.282175 L73,168 Z" id="Shape" fill="url(#linearGradient-46)" fill-rule="nonzero"></path>
                                <path d="M74,169 C70.1849351,166.228399 74,158.717825 74,158.717825 L72.6955844,158 C72.6955844,158 68.8805195,165.510574 72.6955844,168.282175 L74,169 Z" id="Shape" fill="url(#linearGradient-46)" fill-rule="nonzero"></path>
                                <path d="M77,171 C73.1849351,168.228399 77,160.717825 77,160.717825 L75.6955844,160 C75.6955844,160 71.8805195,167.510574 75.6955844,170.282175 L77,171 Z" id="Shape" fill="url(#linearGradient-46)" fill-rule="nonzero"></path>
                                <path d="M80,172 C76.1849351,169.228399 80,161.717825 80,161.717825 L78.6955844,161 C78.6955844,161 74.8805195,168.510574 78.6955844,171.282175 L80,172 Z" id="Shape" fill="url(#linearGradient-47)" fill-rule="nonzero"></path>
                                <path d="M133,203 C129.840781,200.227701 133,192.715235 133,192.715235 L130.404097,191 C130.404097,191 127.244878,198.512465 130.404097,201.284765 L133,203 Z" id="Shape" fill="#A6A6A6" fill-rule="nonzero"></path>
                                <path d="M118.648692,192.98025 L118.577939,192.98025 L85.63309,174.231118 L85.6009299,174.231118 C84.1730196,172.677468 85.7295704,167.331858 85.7938907,167.101444 C85.8063739,167.060753 85.8357452,167.027762 85.8741729,167.011269 C85.9126005,166.994775 85.9561774,166.996455 85.9932836,167.015862 L118.931701,186.107324 C118.984506,186.140002 119.010533,186.203936 118.996021,186.265322 C118.996021,186.317988 117.709616,191.327851 118.758036,192.769586 C118.789072,192.812891 118.794148,192.870218 118.771222,192.918528 C118.748297,192.966837 118.701135,192.998196 118.648692,193 L118.648692,192.98025 Z M85.7874587,173.97437 L118.307794,192.506255 C117.664591,190.755107 118.532915,187.009231 118.70658,186.311405 L86.0190117,167.331858 C85.7552985,168.240349 84.6296936,172.664301 85.7874587,173.97437 Z" id="Shape" fill="url(#linearGradient-48)" fill-rule="nonzero"></path>
                                <path d="M153,200.428571 C149.337756,198.731429 150.896864,194.642857 146.810012,194 L142,196.693571 C145.821472,197.188571 142.544029,202.247857 148.35585,203 L152.250302,202.537143 L153,200.428571 Z" id="Shape" fill="url(#linearGradient-49)" fill-rule="nonzero"></path>
                                <polygon id="Shape" fill="url(#linearGradient-32)" fill-rule="nonzero" points="137.569559 189 180 164.350402 160.466554 153 126 182.304316"></polygon>
                                <path d="M137.922065,186.748141 L178,163.686888 C177.557137,160.473028 177.557137,157.213861 178,154 L137.488195,177.183953 C137.488195,177.183953 134.030186,184.933464 137.656562,187 L137.922065,186.748141 Z" id="Shape" fill="url(#linearGradient-50)" fill-rule="nonzero"></path>
                                <path d="M180,163.385375 L138.088,187.650823 C134.809014,185.235466 138.088,178.153931 138.088,178.153931 L180,153.862157 L180,153 L136.63213,177.153565 C136.63213,177.153565 132.448144,186.071298 137.478109,189 L180,164.359415 L180,163.385375 Z" id="Shape" fill="url(#linearGradient-51)" fill-rule="nonzero"></path>
                                <polygon id="Shape" fill="url(#linearGradient-52)" fill-rule="nonzero" points="78 143.358395 137.914858 178 180 153.648109 120.085142 119"></polygon>
                                <path d="M139,189 C135.045191,185.972482 139,177.751206 139,177.751206 L78.7576927,143 C78.7576927,143 74.8028841,151.214752 78.7576927,154.248794 L139,189 Z" id="Shape" fill="url(#linearGradient-53)" fill-rule="nonzero"></path>
                                <path d="M125,181 C123.630564,178.787751 125,174.15381 125,174.15381 L88.6547907,153 C88.6547907,153 87.1815117,157.332866 88.6547907,159.84619 L125,181 Z" id="Shape" fill="url(#linearGradient-54)" fill-rule="nonzero"></path>
                                <path d="M80.5759407,153.910511 C79.2800741,151.677477 80.5759407,147 80.5759407,147 L87,151.089489 C87,151.089489 85.6058686,155.463063 87,158 L80.5759407,153.910511 Z" id="Shape" fill="url(#linearGradient-55)" fill-rule="nonzero"></path>
                                <path d="M128.764955,180.93864 C127.043807,178.696517 128.764955,174 128.764955,174 L131,175.06136 C131,175.06136 129.148338,179.452736 131,182 L128.764955,180.93864 Z" id="Shape" fill="url(#linearGradient-56)" fill-rule="nonzero"></path>
                                <path d="M155,181.806452 C150.988707,177.129032 154.485037,176.348387 150.216262,174 L143,178.077419 C147.587239,179.206452 144.538114,184.43871 149.599661,185 C149.599661,185 148.881423,181.606452 150.277244,179.948387 C150.290796,179.948387 152.72332,182.258065 155,181.806452 Z" id="Shape" fill="#D55281" fill-rule="nonzero"></path>
                                <path d="M139,31 C140.701125,24.8528451 142.855704,18.8367827 145.446481,13 L148,13.3712012 L144.66129,28.70767 C142.998309,29.9273602 141.051735,30.7155534 139,31 Z" id="Shape" fill="#DBAF8C" fill-rule="nonzero"></path>
                                <polygon id="Shape" fill="#2E3338" fill-rule="nonzero" points="127.683333 54 128 54 127.925 55.9189189 127 56 127 55"></polygon>
                                <ellipse id="Oval" fill="#CD9F80" fill-rule="nonzero" transform="translate(131.500000, 57.000000) rotate(-12.740000) translate(-131.500000, -57.000000) " cx="131.5" cy="57" rx="5.5" ry="3"></ellipse>
                                <path d="M127.548601,51 C127.572217,52.7078952 127.387921,54.4121241 127,56.073037 C128.078916,57.8329425 132.705455,58.935232 133.406446,56.9122802 C133.309818,55.8535082 133.497449,54.7877746 133.948952,53.8308799 C134.66823,52.5219111 127.548601,51 127.548601,51 Z" id="Shape" fill="#CD9F80" fill-rule="nonzero"></path>
                                <path d="M128,51 C128,51 128,51.4360465 128,52.1627907 C129.212862,54.3242899 131.612591,55.7769229 134.339014,56 C134.319436,55.1924527 134.528194,54.393289 134.946502,53.6744186 C135.712467,52.4127907 128,51 128,51 Z" id="Shape" fill="#BB896E" fill-rule="nonzero"></path>
                                <path d="M147,35.6628385 C146.897866,38.2749095 140.457039,48.372794 139.774017,62.3760433 C138.401591,66.4343098 130.613871,49.6342332 132.216099,42.6262377 C133.677892,36.2553326 135.171603,29.9799912 137.322801,25.0871361 C139.199513,20.7867752 146.808499,22.5833705 147,35.6628385 Z" id="Shape" fill="url(#linearGradient-57)" fill-rule="nonzero"></path>
                                <path d="M118,151 L118,152.44563 C118,153.103273 119.666854,154.104549 120.974589,154.412634 C121.013458,154.42264 121.055473,154.415114 121.086712,154.39255 C121.11795,154.369986 121.134334,154.33533 121.130433,154.300065 L121.130433,153.956432 C121.723758,154.160104 122.289575,154.420391 122.817614,154.732569 C122.885373,154.774042 122.959907,155.088052 123.027665,155.129525 C123.983057,155.721996 124.972328,156.249295 125.792203,156.723272 C126.991525,157.422388 129.2411,156.604778 129.857701,156.36779 C129.945018,156.332798 130.000722,156.256258 129.999993,156.172274 L129.999993,155.923436 L127.60135,156.018232 L123.461318,154.015679 L118.589497,151.610245 L118.528515,151.195516 L118.033879,151.005925" id="Shape" fill="#3A3F46" fill-rule="nonzero"></path>
                                <path d="M118.427472,150 C118.380276,150.360503 119.77593,151.087835 121.124387,151.106809 C122.472845,151.125783 124.13819,151.600129 123.585322,150.689384 C125.539827,152.47307 127.655876,154.094054 129.909589,155.534045 C130.024208,155.60994 129.997238,156.166507 129.997238,156.292999 C129.998381,156.372915 129.947697,156.445483 129.869135,156.476413 C129.32301,156.685126 127.17222,157.418782 125.999062,156.672477 C124.650604,155.812328 122.439133,154.243822 121.124387,153.965538 C119.809641,153.687255 118.016192,152.555147 118.002708,151.827816 L118.002708,150.758955 C117.976531,150.45032 118.141785,150.155049 118.427472,150 Z" id="Shape" fill="#2E3338" fill-rule="nonzero"></path>
                                <path d="M119.196533,91.7311717 C114.061091,95.741375 119.196533,113.409517 121.791353,122.727913 C121.669404,123.044338 120.98513,124.419818 120.98513,124.419818 C120.788655,126.815608 119.982431,129.405127 119.840157,132.853515 C119.603032,138.665404 118.661309,149.520721 118.661309,149.520721 C119.006833,151.096388 124.684274,151.819646 124.535224,149.60467 L128.695067,121.57845 C129.315361,111.402285 128.988886,101.193751 127.719469,91.0724909 C125.049853,89.4268657 121.553133,89.6971038 119.196533,91.7311717 Z" id="Shape" fill="url(#linearGradient-58)" fill-rule="nonzero"></path>
                                <path d="M137.006465,141.005821 L137.213333,142.414443 C137.310302,143.054726 138.997571,143.875452 140.277568,144.044254 C140.314279,144.048469 140.351027,144.036709 140.37655,144.01258 C140.402072,143.98845 140.413326,143.954828 140.40686,143.922018 L140.342214,143.590235 C140.930997,143.72737 141.501179,143.922576 142.042412,144.172311 C142.113523,144.207235 142.216957,144.504094 142.288068,144.539018 C143.270692,145.039603 144.27271,145.441235 145.106647,145.825405 C146.328462,146.40748 148.338962,145.371386 148.888456,145.086169 C148.966203,145.04347 149.009147,144.963863 148.998355,144.882442 L148.959567,144.637971 L146.696946,144.963933 L142.533724,143.415613 L137.601211,141.535509 L137.491312,141.133877 L137,141" id="Shape" fill="#3A3F46" fill-rule="nonzero"></path>
                                <path d="M137.403573,140 C137.403573,140.358587 138.93716,140.931068 140.276447,140.811539 C141.615733,140.69201 143.419953,140.981396 142.74684,140.138402 C144.919467,141.759943 147.270397,143.174481 149.762481,144.359662 C149.887388,144.422572 149.977599,144.869233 149.998417,144.988762 C150.009094,145.068271 149.965061,145.145614 149.887388,145.183783 C149.353061,145.448005 147.26433,146.397946 145.952801,145.812883 C144.440032,145.108291 142.011274,143.787181 140.637291,143.65507 C139.263308,143.522959 137.285605,142.591892 137.167637,141.874718 L137.014972,140.81783 C136.949388,140.498982 137.102938,140.17583 137.403573,140 Z" id="Shape" fill="#2E3338" fill-rule="nonzero"></path>
                                <path d="M129.241314,81.9313542 C124.872563,86.4909384 133.168712,104.592488 136.648361,113.672574 C136.571604,114.004772 136.085477,115.457326 136.085477,115.457326 C136.16863,117.880419 135.701692,120.56406 135.957548,124.035858 C136.386108,129.89818 136.718722,140.867237 136.718722,140.867237 C137.217642,142.410982 142.622612,142.515201 142.238827,140.313573 L143,111.790117 C142.44078,101.522624 140.989519,91.325757 138.663231,81.3190672 C138.663231,81.3190672 133.015198,77.9775433 129.241314,81.9313542 Z" id="Shape" fill="url(#linearGradient-59)" fill-rule="nonzero"></path>
                                <path d="M139.733079,85.0009324 C139.082053,84.9567896 137.408915,86.4891747 133.802229,87.6494993 C132.758291,87.9839703 131.848007,88.6254357 131.198124,89.4845777 C129.772376,88.8981093 125.143579,87.3720304 122.083755,90.7142695 C121.029092,91.8619818 120.814254,93.7916519 121.139767,96.1627498 C123.008212,97.2158705 126.426101,97.0834421 129.492435,96.793361 C132.558769,96.5032799 137.233138,95.3429553 139.427097,93.7916519 C139.739589,90.7710245 139.811202,88.4882121 140,86.9432148 L139.733079,85.0009324 Z" id="Shape" fill="#43728F" fill-rule="nonzero" opacity="0.35" style="mix-blend-mode: multiply;"></path>
                                <path d="M133.105764,59.2267946 C133.105764,59.2267946 130.826429,60.1502492 130.074932,61.9196656 C129.323435,63.689082 134.472123,65 134.472123,65 C134.472123,65 135.987539,61.2416045 135.99996,59.8338207 C136.012382,58.4260368 133.105764,59.2267946 133.105764,59.2267946 Z" id="Shape" fill="url(#linearGradient-60)" fill-rule="nonzero"></path>
                                <path d="M127.538933,54 C127.465801,54.4489143 127.506604,54.9093542 127.657485,55.3377926 C128.263416,56.9230769 130.33807,59.0702341 134,59.4046823 C132.976383,60.0534571 132.122283,60.9438299 131.510415,62 C128.895691,61.277592 125.714554,56.4147157 127.538933,54 Z" id="Shape" fill="url(#linearGradient-61)" fill-rule="nonzero"></path>
                                <path d="M134,58.8666667 C135.121781,58.9668102 136.174225,59.3644002 137,60 C137,60 136.387097,55.0466667 134,54 C134.25,54.2666667 135.66129,55.9133333 134,58.8666667 Z" id="Shape" fill="url(#linearGradient-62)" fill-rule="nonzero"></path>
                                <path d="M141.930654,59.3646277 C141.930654,56.1376588 140.306828,53.104308 138.017821,51.7038034 L136.713543,51.3875605 L132.070315,51.8070664 C132.070315,51.8070664 138.826473,55.5245347 135.774464,63.4241546 C135.774464,63.4241546 125.848911,58.809589 128.085747,52.8203347 C126.796487,53.2376507 125.535319,53.7356068 124.309863,54.3111943 C123.878728,53.6615614 123.322519,53.1023328 122.672995,52.6654402 C120.91222,50.6840813 110.823633,41.2936017 107.562939,39.2347955 C103.871833,36.8855621 100.043778,52.8526044 106.408653,56.4926253 C112.349638,59.8873967 116.125521,62.8045766 118.258015,67.1158071 C116.112479,86.8906727 115.212527,129.396308 117.129815,137.528269 C121.623051,142.046026 123.507733,141.497441 128.072704,139.574168 C132.637676,137.650894 133.681098,139.574168 138.643874,137.541177 C143.606651,135.508187 146,129.983616 146,129.983616 C146,129.983616 141.930654,64.8117513 141.930654,59.3646277 Z" id="Shape" fill="url(#linearGradient-63)" fill-rule="nonzero"></path>
                                <ellipse id="Oval" fill="url(#linearGradient-64)" fill-rule="nonzero" transform="translate(106.000000, 48.000000) rotate(-86.740000) translate(-106.000000, -48.000000) " cx="106" cy="48" rx="7" ry="2"></ellipse>
                                <path d="M108.751432,47 C99.7799614,41.534 96,38.036 96,38.036 L98.7145145,35 L108.42569,41.444 C109.058385,43.2427259 109.170387,45.153077 108.751432,47 Z" id="Shape" fill="#DBAF8C" fill-rule="nonzero"></path>
                                <path d="M139,137.57389 C135.960486,117.841717 136.300912,91.9707885 136.50152,76.4521211 C136.580547,70.4689423 136.404255,62.696644 135.522796,60 C135.512959,61.3703697 135.263506,62.726761 134.787234,63.9995897 C134.174646,63.6784261 133.578099,63.3235823 133,62.9364897 C133.176292,64.7450562 133.303951,70.7152704 133.231003,76.4002626 C133.024316,92.1587757 132.738602,118.898334 135.893617,139 C136.428165,138.836767 136.953797,138.641997 137.468085,138.416591 C138.00071,138.183676 138.513287,137.901709 139,137.57389 Z" id="Shape" fill="url(#linearGradient-65)" fill-rule="nonzero"></path>
                                <path d="M139,137.735211 C135.378829,117.901834 135.697096,91.1839318 135.888056,75.2707311 C135.958782,69.283906 136.015363,64.8406097 135.81733,63 C135.737174,63.2368036 135.64523,63.4779127 135.541499,63.7233273 L135.102997,63.5231206 C135.244449,65.5122707 135.194941,69.723069 135.102997,75.2513562 C134.912037,91.235598 134.59377,118.089124 138.250304,138 L138.632225,137.870834 L139,137.735211 Z" id="Shape" fill="url(#linearGradient-66)" fill-rule="nonzero"></path>
                                <path d="M94.9486974,32.8846163 C95.3394853,30.8974522 93.3855459,30.5448909 92.8820307,28.9102882 C92.3785156,27.2756855 90.7477277,28.1474736 91.0333034,29.153876 C91.3188792,30.1602785 94.234758,33 94.234758,33 L94.9486974,32.8846163 Z" id="Shape" fill="#DBAF8C" fill-rule="nonzero"></path>
                                <polygon id="Rectangle-path" fill="url(#linearGradient-67)" fill-rule="nonzero" transform="translate(95.000000, 35.000000) rotate(-51.530000) translate(-95.000000, -35.000000) " points="87 29 103 29 103 41 87 41"></polygon>
                                <path d="M92.1669232,33.5172309 C91.7902698,33.8726602 91.2344721,34.0485339 90.6779826,33.9883835 C89.8180858,33.8095139 88.9874662,33.5400952 88.2051605,33.1863023 C87.3655816,32.7151497 86.5456804,32.4066569 87.2934303,31.0324619 C88.0411802,29.6582668 90.2647524,28.2840718 91.2617523,29.4226905 C91.9903454,30.1510583 92.5772336,30.974873 92.9999429,31.8625879 C93.0047767,32.4894299 92.7027177,33.0894155 92.1669232,33.5172309 Z" id="Shape" fill="#DBAF8C" fill-rule="nonzero"></path>
                                <path d="M145.570501,12.9180483 C145.547085,12.0913848 145.399729,11.2733943 145.133641,10.4929782 C144.773874,9.4092957 145.197885,9.00621866 145.724686,8.19345676 C146.251488,7.38069486 146.784714,7.71108588 146.784714,7.71108588 C146.784714,7.71108588 147.073812,6.89832398 147.754799,7.01065692 C148.435787,7.12298987 150.587963,7.67143896 150.909184,8.45116175 C151.230404,9.23088455 150.658632,11.8806205 149.836308,12.4158539 C149.013983,12.9510874 148.120991,13.4532817 148.0182,13.8034962 C147.91541,14.1537107 145.692564,13.9290448 145.692564,13.9290448 L145.570501,12.9180483 Z" id="Shape" fill="#DBAF8C" fill-rule="nonzero"></path>
                                <path d="M129,80.3612554 C127.82151,76.838564 128.610984,55.7940844 126.28833,54 C125.46125,54.108439 124.672842,54.4603631 124,55.0214495 C125.87643,57.3066155 125.144165,78.0760894 126.339817,81.5987808 L128.628146,83 L129,80.3612554 Z" id="Shape" fill="url(#linearGradient-68)" fill-rule="nonzero"></path>
                                <path d="M140,73.5268605 C138.699387,70.2656481 139.429448,51.9541646 134.619632,50 C133.331288,50.134549 133,50.59586 133,50.59586 C136.766871,52.5820601 135.993865,71.4958107 137.294479,74.7570232 L139.699387,76 L140,73.5268605 Z" id="Shape" fill="url(#linearGradient-69)" fill-rule="nonzero"></path>
                                <path d="M135.077412,40.1341253 C135.998052,41.8121389 136.5167,43.6759684 136.59354,45.5825213 C136.483862,45.9580533 137.135475,46.6836574 136.974185,48.2557997 C136.858056,49.4014904 136.625798,51.7183317 136.503217,52.9085771 C136.461094,53.3461893 136.128818,53.7026201 135.690314,53.7805751 C133.361284,54.1879318 129.645157,54.4170699 126.922578,50.7763193 C126.922578,50.7763193 125.632256,49.2678265 124.987095,49.0768781 C124.341934,48.8859296 122,45.8944038 122,43.4693584 C122,40.9233789 123.438709,37.0025706 128.780641,37.0025706 C131.279324,36.9374344 133.644397,38.1136496 135.077412,40.1341253 Z" id="Shape" fill="#DBAF8C" fill-rule="nonzero"></path>
                                <path d="M137.58579,46.5512036 C137.507486,44.6329792 136.978948,42.7577397 136.040755,41.0694536 C135.775589,40.6790011 135.464471,40.3200806 135.113735,40 C135.245227,40.1729057 135.310973,40.2753683 135.310973,40.2753683 C136.249166,41.9636544 136.777703,43.8388939 136.856008,45.7571183 C136.744239,46.1349493 137.408276,46.8649954 137.24391,48.4467621 L136.763963,53.1280229 C136.721036,53.5683141 136.382426,53.9269269 135.935562,54.0053591 C133.838259,54.3639783 130.629846,54.5881152 128,52.084185 C130.741615,55.4014123 134.370803,55.1772753 136.665344,54.7802326 C137.112208,54.7018004 137.450819,54.3431877 137.493746,53.9028965 L137.973693,49.2216356 C138.138058,47.6782924 137.474022,46.9482463 137.58579,46.5512036 Z" id="Shape" fill="#D0A281" fill-rule="nonzero"></path>
                                <path d="M127.506233,43.0266948 C128.86831,44.0832982 126.95176,48.3805815 127.216943,49.4693984 C126.819168,49.6497941 126.566039,48.2323993 125.921162,48.2710555 C125.276285,48.3097118 125.818705,49.1923622 125.818705,49.1923622 L126.855329,51.4859647 L126.728765,53 C126.517824,50.4229186 121.690287,50.2038666 122.015739,43.7289495 C122.112169,42.1440444 123.010175,39.6120619 123.456165,40.0501657 C123.902154,40.4882696 127.132566,41.5126595 127.506233,43.0266948 Z" id="Shape" fill="#695E58" fill-rule="nonzero"></path>
                                <path d="M125.601004,50.8634064 C125.04266,50.317032 122.966123,47.376054 122,46 C122.508156,51.1264755 126.667503,51.5244519 126.868256,54 L127,52.4148398 L126.084065,50.391231 L125.601004,50.8634064 Z" id="Shape" fill="#4F4641" fill-rule="nonzero"></path>
                                <path d="M127.014153,47.5673115 C125.835584,46.2793781 124.345695,47.3799758 125.309305,48.9176903 C125.516851,49.2455279 125.969007,49.4406693 126.132079,49.74509 C126.221028,49.9168144 126.309976,50.0573163 126.398925,50.1900124 C126.680686,50.4355459 126.950354,50.6960738 127.206875,50.9705782 C127.500981,51.0580419 127.815913,50.9464615 128,50.6895745 L127.014153,47.5673115 Z" id="Shape" fill="#C3967A" fill-rule="nonzero" opacity="0.4" style="mix-blend-mode: multiply;"></path>
                                <path d="M127.992947,47.8559526 C127.287655,46.4023834 125.630219,46.9174832 126.074553,48.5192317 C126.173294,48.8649836 126.532993,49.1613423 126.589416,49.4718134 C126.899744,51.0241688 127.463978,51.165292 128,50.8830456" id="Shape" fill="#DBAF8C" fill-rule="nonzero"></path>
                                <path d="M127.343332,42.6160449 C131.053395,43.7796748 136.125946,41.9423645 136.458572,41.783131 C137.430864,41.5381563 137.027875,39.5906074 135.774129,39.0577875 C134.520384,38.5249675 132.089653,37 129.153587,37 C126.383833,37 123.844359,37.8635358 123,40.9073464 C124.036259,41.3727984 127.343332,42.6160449 127.343332,42.6160449 Z" id="Shape" fill="#695E58" fill-rule="nonzero"></path>
                                <path d="M155.903585,16.4422545 C158.019714,18.8072753 161.033397,19.6902987 162.63851,18.418251 L169,13.5214847 L161.288904,5 L154.986378,9.8535413 C153.368161,11.125589 153.787456,14.0772337 155.903585,16.4422545 Z" id="Shape" fill="url(#linearGradient-70)" fill-rule="nonzero"></path>
                                <ellipse id="Oval" fill="#2E3338" fill-rule="nonzero" transform="translate(165.500000, 10.000000) rotate(-40.130000) translate(-165.500000, -10.000000) " cx="165.5" cy="10" rx="3.5" ry="6"></ellipse>
                                <polygon id="Shape" fill="url(#linearGradient-71)" fill-rule="nonzero" points="158 0 171.65726 5.2870494 174 20 160.336196 14.7129506"></polygon>
                                <circle id="Oval" fill="url(#linearGradient-72)" fill-rule="nonzero" transform="translate(166.000000, 10.000000) rotate(-39.220000) translate(-166.000000, -10.000000) " cx="166" cy="10" r="1"></circle>
                                <path d="M169.555967,20.9937342 C169.454892,20.9943371 169.356734,20.9677772 169.278544,20.9186681 C165.884192,18.7542614 166.292167,15.3575191 166.585909,12.8740814 C166.773578,11.3414813 166.928608,10.0215686 166.177934,9.60244936 C165.98416,9.49362243 165.942149,9.28497123 166.0841,9.13641384 C166.22605,8.98785646 166.498209,8.95564855 166.691983,9.06447545 C167.842472,9.69002651 167.671123,11.1350495 167.458976,12.9366365 C167.165234,15.4013077 166.798056,18.4727634 169.84155,20.4119717 C169.983405,20.50105 170.036562,20.6490306 169.974192,20.7812273 C169.911823,20.913424 169.747487,21.0010939 169.564127,20.9999897 L169.555967,20.9937342 Z" id="Shape" fill="url(#linearGradient-73)" fill-rule="nonzero"></path>
                                <path d="M169.673962,23.7535715 L168.171563,22.0987151 C168.044724,21.961582 167.984219,21.7845786 168.003528,21.6071414 C168.022837,21.4297042 168.120356,21.2665744 168.274358,21.1540975 C168.427034,21.0401708 168.624099,20.9858252 168.821647,21.0031687 C169.019194,21.0205121 169.200813,21.1081039 169.326038,21.2464285 L170.828437,22.9012849 C170.955276,23.038418 171.015781,23.2154214 170.996472,23.3928586 C170.977163,23.5702958 170.879644,23.7334256 170.725642,23.8459025 C170.572966,23.9598292 170.375901,24.0141748 170.178353,23.9968313 C169.980806,23.9794879 169.799187,23.8918961 169.673962,23.7535715 Z" id="Shape" fill="url(#linearGradient-74)" fill-rule="nonzero"></path>
                                <path d="M178.739336,96.1537343 C170.966825,92.2064206 166,99.6543081 166,99.6543081 C166,99.6543081 179.364929,106.382077 179.516588,111.842973 C179.668246,117.303868 182,101.661304 182,101.661304 L178.739336,96.1537343 Z" id="Shape" fill="url(#linearGradient-75)" fill-rule="nonzero"></path>
                                <path d="M171,126 C171,126 182.5189,111.867459 178.572313,97 C178.572313,97 191.034544,105.636914 189.930783,117.811841 L171,126 Z" id="Shape" fill="url(#linearGradient-76)" fill-rule="nonzero"></path>
                                <path d="M156,57.5507417 C156,57.5507417 164.709009,55.456201 170,59.4365019 L169.848649,69 C169.848649,69 161.814414,65.7942077 156.201802,68.1850822 L156,57.5507417 Z" id="Shape" fill="url(#linearGradient-77)" fill-rule="nonzero"></path>
                                <path d="M85.269626,123 C85.269626,123 81.8936374,113.564808 89,107.140166 L78.5363008,106 C71.4175037,112.405426 74.8059268,121.859834 74.8059268,121.859834 L85.269626,123 Z" id="Shape" fill="url(#linearGradient-78)" fill-rule="nonzero"></path>
                                <path d="M81.442789,80.5094208 C81.442789,80.5094208 78.476758,67.5753664 77,62.974529 L96.5169845,62 C96.1728248,63.3258897 96.9237187,71.4867411 98,73.7672715 L82.8131704,81 L81.442789,80.5094208 Z" id="Shape" fill="url(#linearGradient-79)" fill-rule="nonzero"></path>
                                <path d="M82.596851,84 C82.596851,84 81.0084218,84 80,81.4332172 C80,81.4332172 91.8044672,68.3821138 92.1537898,67 L98,74.0948509 L82.596851,84 Z" id="Shape" fill="url(#linearGradient-80)" fill-rule="nonzero"></path>
                                <path d="M104.896404,100 C104.333655,95.7609536 103.363409,91.5901565 102,87.5492174 C102,87.5492174 107.927376,84.4893913 109.836953,81 C109.836953,81 117.391954,84.9321739 120,97.7398261 L104.896404,100 Z" id="Shape" fill="url(#linearGradient-81)" fill-rule="nonzero"></path>
                                <path d="M90.8786284,87.9922771 L91,88.5030408 L88.1518132,89 L88.0304416,88.4892363 C87.951738,88.166937 88.027085,87.8311719 88.239762,87.5564516 C88.4524389,87.2817313 88.7848551,87.0907783 89.1632432,87.0259675 C89.5410736,86.9588313 89.9346899,87.0231042 90.2567436,87.2045233 C90.5787973,87.3859424 90.8026509,87.6695021 90.8786284,87.9922771 Z" id="Shape" fill="url(#linearGradient-82)" fill-rule="nonzero"></path>
                                <polygon id="Rectangle-path" fill="url(#linearGradient-83)" fill-rule="nonzero" transform="translate(92.500000, 99.500000) rotate(-101.534621) translate(-92.500000, -99.500000) " points="82 98 103 98 103 101 82 101"></polygon>
                                <polygon id="Shape" fill="url(#linearGradient-84)" fill-rule="nonzero" points="96.9746479 112 97 116.930818 96.5690141 117 94 112.45283"></polygon>
                                <polygon id="Rectangle-path" fill="url(#linearGradient-85)" fill-rule="nonzero" transform="translate(90.000000, 88.500000) rotate(-101.520000) translate(-90.000000, -88.500000) " points="89 87 91 87 91 90 89 90"></polygon>
                                <polygon id="Rectangle-path" fill="url(#linearGradient-86)" fill-rule="nonzero" transform="translate(90.500000, 90.500000) rotate(-101.520000) translate(-90.500000, -90.500000) " points="90 89 90.53 89 90.53 92 90 92"></polygon>
                                <polygon id="Shape" fill="url(#linearGradient-87)" fill-rule="nonzero" points="96.0171429 108.04918 97 111.513661 96.9314286 111.584699 94.0819048 112 93.9828571 111.95082 93 108.486339 93.0685714 108.415301 95.9180952 108"></polygon>
                                <path d="M88.6706562,89 L88.2249018,89.0881945 C88.0729452,89.1187944 87.9750748,89.2610701 88.0055624,89.4070517 L89.6046178,96.9375075 C89.6080466,96.9574583 89.6197721,96.9752211 89.6371105,96.9867305 C89.654449,96.9982399 89.6759161,97.0025106 89.6965989,96.9985652 L89.7390517,96.9985652 C89.9146417,96.964479 90.028488,96.8007395 89.9937685,96.6322187 L88.5432978,89.7530456 L88.819241,89.698772 L88.6706562,89 Z" id="Shape" fill="url(#linearGradient-88)" fill-rule="nonzero"></path>
                                <path d="M196.607422,95.8487504 L196,95.5668428 L197.526992,93 L198.134414,93.2819076 C198.918816,93.666689 199.222925,94.5243913 198.8262,95.2330048 C198.391507,95.9255334 197.415425,96.1964116 196.607422,95.8487504 Z" id="Shape" fill="url(#linearGradient-89)" fill-rule="nonzero"></path>
                                <polygon id="Rectangle-path" fill="url(#linearGradient-90)" fill-rule="nonzero" transform="translate(186.000000, 88.500000) rotate(27.610000) translate(-186.000000, -88.500000) " points="175 87 197 87 197 90 175 90"></polygon>
                                <polygon id="Shape" fill="url(#linearGradient-91)" fill-rule="nonzero" points="171.927725 83 168 79.3418803 168.154028 79 173 80.634188"></polygon>
                                <polygon id="Rectangle-path" fill="url(#linearGradient-92)" fill-rule="nonzero" transform="translate(196.000000, 93.500000) rotate(27.610000) translate(-196.000000, -93.500000) " points="195 92 197 92 197 95 195 95"></polygon>
                                <polygon id="Rectangle-path" fill="url(#linearGradient-93)" fill-rule="nonzero" transform="translate(195.500000, 93.500000) rotate(27.610000) translate(-195.500000, -93.500000) " points="195 92 195.58 92 195.58 95 195 95"></polygon>
                                <polygon id="Shape" fill="url(#linearGradient-94)" fill-rule="nonzero" points="175.755981 84 172.029904 82.1762238 172 82.0867133 173.148325 80.027972 173.244019 80 176.970096 81.8237762 177 81.9132867 175.851675 83.972028"></polygon>
                                <path d="M196.772531,91 L196.969633,90.6414816 C197.037456,90.5201058 196.987866,90.3700939 196.858764,90.3060933 L190.138818,87.0100368 C190.121058,86.9999388 190.099593,86.9973196 190.079673,87.0028199 C190.059753,87.0083201 190.043216,87.0214325 190.034108,87.0389495 L190.034108,87.0736449 C189.957139,87.2142684 190.014759,87.3868555 190.163456,87.4610761 L196.273617,90.4622223 L196.150428,90.687742 L196.772531,91 Z" id="Shape" fill="url(#linearGradient-95)" fill-rule="nonzero"></path>
                            </g>
                        </g>
                    </g>
                </g>
            </g>
        </g>
    </g>
</svg>