<svg width="64" height="64" viewBox="0 0 64 64" fill="none" xmlns="http://www.w3.org/2000/svg">
<circle opacity="0.2" cx="32" cy="32" r="32" fill="#392CD1"/>
<path d="M42.375 22H19.625C18.8958 22 18.276 22.2552 17.7656 22.7656C17.2552 23.276 17 23.8958 17 24.625V40.375C17 41.1042 17.2552 41.724 17.7656 42.2344C18.276 42.7448 18.8958 43 19.625 43H42.375C43.1042 43 43.724 42.7448 44.2344 42.2344C44.7448 41.724 45 41.1042 45 40.375V24.625C45 23.8958 44.7448 23.276 44.2344 22.7656C43.724 22.2552 43.1042 22 42.375 22ZM42.375 24.625V26.8672C41.099 27.9245 38.638 29.8568 34.9922 32.6641L34.5 33.1016C33.7708 33.7214 33.1875 34.1589 32.75 34.4141C32.0573 34.888 31.474 35.125 31 35.125C30.526 35.125 29.9427 34.888 29.25 34.4141C28.8125 34.1589 28.2292 33.7214 27.5 33.1016L27.0078 32.6641C23.362 29.8203 20.901 27.888 19.625 26.8672V24.625H42.375ZM19.625 40.375V30.2031L25.9141 35.2344C26.862 36 27.6094 36.5469 28.1562 36.875C29.1771 37.4583 30.125 37.75 31 37.75C31.875 37.75 32.8047 37.4583 33.7891 36.875C34.3724 36.5469 35.1198 36 36.0312 35.2344L42.375 30.2031V40.375H19.625Z" fill="#392CD1"/>
</svg>
