<svg width="14" height="10" viewBox="0 0 14 10" fill="none" xmlns="http://www.w3.org/2000/svg">
<path d="M9.25 0.625L8.625 1.21875C8.54167 1.30208 8.5 1.39583 8.5 1.5C8.5 1.60417 8.54167 1.6875 8.625 1.75L11.1562 4.1875H0.375C0.270833 4.1875 0.177083 4.22917 0.09375 4.3125C0.03125 4.375 0 4.45833 0 4.5625V5.4375C0 5.54167 0.03125 5.63542 0.09375 5.71875C0.177083 5.78125 0.270833 5.8125 0.375 5.8125H11.1562L8.625 8.25C8.54167 8.3125 8.5 8.39583 8.5 8.5C8.5 8.60417 8.54167 8.69792 8.625 8.78125L9.25 9.375C9.3125 9.45833 9.39583 9.5 9.5 9.5C9.60417 9.5 9.6875 9.45833 9.75 9.375L13.875 5.25C13.9583 5.1875 14 5.10417 14 5C14 4.89583 13.9583 4.8125 13.875 4.75L9.75 0.625C9.6875 0.541667 9.60417 0.5 9.5 0.5C9.39583 0.5 9.3125 0.541667 9.25 0.625Z" fill="#392CD1"/>
</svg>
