<svg width="32" height="32" viewBox="0 0 32 32" fill="none" xmlns="http://www.w3.org/2000/svg">
<circle opacity="0.2" cx="16" cy="16" r="16" fill="#373737" fill-opacity="0.7"/>
<path d="M15.625 13.8906V19.7969C15.625 19.888 15.5885 19.9701 15.5156 20.043C15.4609 20.0977 15.388 20.125 15.2969 20.125H14.6406C14.5495 20.125 14.4674 20.0977 14.3945 20.043C14.3398 19.9701 14.3125 19.888 14.3125 19.7969V13.8906C14.3125 13.7995 14.3398 13.7266 14.3945 13.6719C14.4674 13.599 14.5495 13.5625 14.6406 13.5625H15.2969C15.388 13.5625 15.4609 13.599 15.5156 13.6719C15.5885 13.7266 15.625 13.7995 15.625 13.8906ZM18.3594 13.5625H17.7031C17.612 13.5625 17.5299 13.599 17.457 13.6719C17.4023 13.7266 17.375 13.7995 17.375 13.8906V19.7969C17.375 19.888 17.4023 19.9701 17.457 20.043C17.5299 20.0977 17.612 20.125 17.7031 20.125H18.3594C18.4505 20.125 18.5234 20.0977 18.5781 20.043C18.651 19.9701 18.6875 19.888 18.6875 19.7969V13.8906C18.6875 13.7995 18.651 13.7266 18.5781 13.6719C18.5234 13.599 18.4505 13.5625 18.3594 13.5625ZM21.9688 10.9375C22.151 10.9375 22.306 11.0013 22.4336 11.1289C22.5612 11.2565 22.625 11.4115 22.625 11.5938V11.9219C22.625 12.013 22.5885 12.0951 22.5156 12.168C22.4609 12.2227 22.388 12.25 22.2969 12.25H21.75V21.4375C21.75 21.8021 21.6224 22.112 21.3672 22.3672C21.112 22.6224 20.8021 22.75 20.4375 22.75H12.5625C12.1979 22.75 11.888 22.6224 11.6328 22.3672C11.3776 22.112 11.25 21.8021 11.25 21.4375V12.25H10.7031C10.612 12.25 10.5299 12.2227 10.457 12.168C10.4023 12.0951 10.375 12.013 10.375 11.9219V11.5938C10.375 11.4115 10.4388 11.2565 10.5664 11.1289C10.694 11.0013 10.849 10.9375 11.0312 10.9375H13.0547L13.9844 9.37891C14.112 9.17839 14.276 9.02344 14.4766 8.91406C14.6771 8.80469 14.8958 8.75 15.1328 8.75H17.8672C18.1042 8.75 18.3229 8.80469 18.5234 8.91406C18.724 9.02344 18.888 9.17839 19.0156 9.37891L19.9453 10.9375H21.9688ZM14.5859 10.9375H18.4141L17.9219 10.1445C17.8854 10.0898 17.8398 10.0625 17.7852 10.0625H15.2148C15.1602 10.0625 15.1146 10.0898 15.0781 10.1445L14.5859 10.9375ZM20.4375 12.25H12.5625V21.2734C12.5625 21.3099 12.5807 21.3464 12.6172 21.3828C12.6536 21.4193 12.6901 21.4375 12.7266 21.4375H20.2734C20.3099 21.4375 20.3464 21.4193 20.3828 21.3828C20.4193 21.3464 20.4375 21.3099 20.4375 21.2734V12.25Z" fill="#373737"/>
</svg>
