<svg width="64" height="64" viewBox="0 0 64 64" fill="none" xmlns="http://www.w3.org/2000/svg">
<circle opacity="0.2" cx="32" cy="32" r="32" fill="#392CD1"/>
<path fill-rule="evenodd" clip-rule="evenodd" d="M42.3181 22.8148C39.8623 20.3561 36.5963 19.0014 33.1168 19C25.9471 19 20.112 24.835 20.1091 32.0066C20.1081 34.2991 20.707 36.5371 21.8454 38.5097L20 45.25L26.8956 43.4411C28.7956 44.4776 30.9347 45.0238 33.1115 45.0244H33.117C40.2859 45.0244 46.1217 39.189 46.1244 32.017C46.1258 28.5413 44.7741 25.2733 42.3181 22.8148ZM33.1168 42.8277H33.1123C31.1724 42.8269 29.2699 42.3055 27.6097 41.3207L27.2151 41.0863L23.1231 42.1597L24.2153 38.1702L23.9582 37.7611C22.8759 36.0397 22.3044 34.0502 22.3054 32.0074C22.3076 26.0465 27.1577 21.1969 33.1212 21.1969C36.0089 21.1979 38.7235 22.3239 40.7646 24.3674C42.8058 26.411 43.9293 29.1273 43.9283 32.0162C43.9257 37.9776 39.0759 42.8277 33.1168 42.8277ZM39.0471 34.7305C38.7222 34.5677 37.1242 33.7816 36.8262 33.673C36.5285 33.5645 36.3116 33.5106 36.0951 33.8358C35.8783 34.161 35.2556 34.8932 35.0659 35.11C34.8762 35.3269 34.6868 35.3542 34.3617 35.1914C34.0366 35.0288 32.9895 34.6854 31.7479 33.5782C30.7818 32.7164 30.1296 31.652 29.9399 31.3268C29.7505 31.0012 29.9383 30.8423 30.0825 30.6635C30.4343 30.2266 30.7866 29.7685 30.8949 29.5517C31.0034 29.3348 30.9491 29.145 30.8677 28.9823C30.7866 28.8197 30.1366 27.2199 29.8659 26.569C29.6018 25.9355 29.3341 26.021 29.1345 26.0111C28.9451 26.0017 28.7283 25.9997 28.5115 25.9997C28.2949 25.9997 27.9428 26.081 27.6448 26.4065C27.3469 26.7319 26.5074 27.5181 26.5074 29.1179C26.5074 30.7176 27.672 32.2631 27.8345 32.48C27.9969 32.697 30.1264 35.9798 33.3866 37.3875C34.1621 37.7227 34.7674 37.9225 35.2395 38.0723C36.0182 38.3196 36.7265 38.2847 37.2866 38.2011C37.9112 38.1077 39.2094 37.4147 39.4805 36.6556C39.7513 35.8964 39.7513 35.2457 39.6699 35.11C39.5888 34.9745 39.372 34.8932 39.0471 34.7305Z" fill="#392CD1"/>
</svg>
