<svg xmlns="http://www.w3.org/2000/svg" xmlns:xlink="http://www.w3.org/1999/xlink" viewBox="100 0 390 670"><defs><style>.cls-1{isolation:isolate;}.cls-2{fill:#d4d1fd;}.cls-3{fill:url(#Degradado_sin_nombre_100);}.cls-4{fill:url(#Degradado_sin_nombre_94);}.cls-5{fill:url(#Degradado_sin_nombre_79);}.cls-6{fill:url(#Degradado_sin_nombre_83);}.cls-7{fill:url(#Degradado_sin_nombre_98);}.cls-8{fill:url(#Degradado_sin_nombre_97);}.cls-9{fill:url(#Degradado_sin_nombre_83-2);}.cls-10{fill:url(#Degradado_sin_nombre_83-3);}.cls-11{fill:url(#Degradado_sin_nombre_96);}.cls-12{fill:url(#Degradado_sin_nombre_96-2);}.cls-13{fill:url(#Degradado_sin_nombre_96-3);}.cls-14{fill:url(#Degradado_sin_nombre_96-4);}.cls-15{fill:url(#Degradado_sin_nombre_81);}.cls-16{fill:url(#Degradado_sin_nombre_79-2);}.cls-17{fill:url(#Degradado_sin_nombre_95);}.cls-18{fill:url(#Degradado_sin_nombre_94-2);}.cls-19{fill:url(#Degradado_sin_nombre_79-3);}.cls-20{fill:url(#Degradado_sin_nombre_79-4);}.cls-21{fill:url(#Degradado_sin_nombre_93);}.cls-22{fill:url(#Degradado_sin_nombre_99);}.cls-23{fill:url(#Degradado_sin_nombre_83-4);}.cls-24{fill:url(#Degradado_sin_nombre_98-2);}.cls-25{fill:url(#Degradado_sin_nombre_97-2);}.cls-26{fill:url(#Degradado_sin_nombre_83-5);}.cls-27{fill:#bec1c3;}.cls-28{fill:url(#Degradado_sin_nombre_83-6);}.cls-29{fill:url(#Degradado_sin_nombre_96-5);}.cls-30{fill:url(#Degradado_sin_nombre_96-6);}.cls-31{fill:url(#Degradado_sin_nombre_96-7);}.cls-32{fill:url(#Degradado_sin_nombre_96-8);}.cls-33{fill:url(#Degradado_sin_nombre_81-2);}.cls-34{fill:url(#Degradado_sin_nombre_79-5);}.cls-35{fill:url(#Degradado_sin_nombre_95-2);}.cls-36{fill:url(#Degradado_sin_nombre_94-3);}.cls-37{fill:url(#Degradado_sin_nombre_79-6);}.cls-38{fill:url(#Degradado_sin_nombre_79-7);}.cls-39{fill:url(#Degradado_sin_nombre_93-2);}.cls-40{fill:url(#Degradado_sin_nombre_93-3);}.cls-41{fill:url(#Degradado_sin_nombre_93-4);}.cls-42{fill:url(#Degradado_sin_nombre_99-2);}.cls-43{fill:url(#Degradado_sin_nombre_83-7);}.cls-44{fill:url(#Degradado_sin_nombre_98-3);}.cls-45{fill:url(#Degradado_sin_nombre_97-3);}.cls-46{fill:url(#Degradado_sin_nombre_83-8);}.cls-47{fill:url(#Degradado_sin_nombre_83-9);}.cls-48{fill:url(#Degradado_sin_nombre_96-9);}.cls-49{fill:url(#Degradado_sin_nombre_96-10);}.cls-50{fill:url(#Degradado_sin_nombre_96-11);}.cls-51{fill:url(#Degradado_sin_nombre_96-12);}.cls-52{fill:#a6a6a6;}.cls-53{fill:url(#Degradado_sin_nombre_96-13);}.cls-54{fill:url(#Degradado_sin_nombre_81-3);}.cls-55{fill:url(#Degradado_sin_nombre_79-8);}.cls-56{fill:url(#Degradado_sin_nombre_95-3);}.cls-57{fill:url(#Degradado_sin_nombre_94-4);}.cls-58{fill:url(#Degradado_sin_nombre_79-9);}.cls-59{fill:url(#Degradado_sin_nombre_79-10);}.cls-60{fill:url(#Degradado_sin_nombre_93-5);}.cls-61{fill:url(#Degradado_sin_nombre_93-6);}.cls-62{fill:url(#Degradado_sin_nombre_93-7);}.cls-63{fill:#d55281;}.cls-64{fill:#dbaf8c;}.cls-65{fill:#2e3338;}.cls-66{fill:#cd9f80;}.cls-67{fill:#bb896e;}.cls-68{fill:url(#Degradado_sin_nombre_92);}.cls-69{fill:#3a3f46;}.cls-70{fill:url(#Degradado_sin_nombre_83-10);}.cls-71{fill:url(#Degradado_sin_nombre_83-11);}.cls-72{fill:#43728f;opacity:0.35;}.cls-72,.cls-86{mix-blend-mode:multiply;}.cls-73{fill:url(#Degradado_sin_nombre_90);}.cls-74{fill:url(#Degradado_sin_nombre_89);}.cls-75{fill:url(#Degradado_sin_nombre_79-11);}.cls-76{fill:url(#Degradado_sin_nombre_84);}.cls-77{fill:url(#Degradado_sin_nombre_88);}.cls-78{fill:url(#Degradado_sin_nombre_87);}.cls-79{fill:url(#Degradado_sin_nombre_86);}.cls-80{fill:url(#Degradado_sin_nombre_81-4);}.cls-81{fill:url(#Degradado_sin_nombre_85);}.cls-82{fill:url(#Degradado_sin_nombre_85-2);}.cls-83{fill:#d0a281;}.cls-84{fill:#695e58;}.cls-85{fill:#4f4641;}.cls-86{fill:#c3967a;opacity:0.4;}.cls-87{fill:url(#Degradado_sin_nombre_84-2);}.cls-88{fill:url(#Degradado_sin_nombre_84-3);}.cls-89{fill:url(#Degradado_sin_nombre_80);}.cls-90{fill:url(#Degradado_sin_nombre_81-5);}.cls-91{fill:url(#Degradado_sin_nombre_83-12);}.cls-92{fill:url(#Degradado_sin_nombre_82);}.cls-93{fill:url(#Degradado_sin_nombre_80-2);}.cls-94{fill:url(#Degradado_sin_nombre_79-12);}.cls-95{fill:url(#Degradado_sin_nombre_79-13);}.cls-96{fill:url(#Degradado_sin_nombre_79-14);}.cls-97{fill:url(#Degradado_sin_nombre_80-3);}.cls-98{fill:url(#Degradado_sin_nombre_79-15);}.cls-99{fill:url(#Degradado_sin_nombre_79-16);}.cls-100{fill:url(#Degradado_sin_nombre_81-6);}.cls-101{fill:url(#Degradado_sin_nombre_79-17);}.cls-102{fill:url(#Degradado_sin_nombre_80-4);}.cls-103{fill:url(#Degradado_sin_nombre_79-18);}.cls-104{fill:url(#Degradado_sin_nombre_80-5);}.cls-105{fill:url(#Degradado_sin_nombre_80-6);}.cls-106{fill:url(#Degradado_sin_nombre_79-19);}.cls-107{fill:url(#Degradado_sin_nombre_81-7);}.cls-108{fill:url(#Degradado_sin_nombre_79-20);}.cls-109{fill:url(#Degradado_sin_nombre_80-7);}.cls-110{fill:url(#Degradado_sin_nombre_79-21);}.cls-111{fill:url(#Degradado_sin_nombre_80-8);}.cls-112{fill:url(#Degradado_sin_nombre_80-9);}</style><linearGradient id="Degradado_sin_nombre_100" x1="101" y1="429.9" x2="487.73" y2="429.9" gradientUnits="userSpaceOnUse"><stop offset="0" stop-color="#b0dffe"/><stop offset="1" stop-color="#c8ffe4"/></linearGradient><linearGradient id="Degradado_sin_nombre_94" x1="311.76" y1="492.67" x2="487.73" y2="492.67" gradientUnits="userSpaceOnUse"><stop offset="0" stop-color="#5b98cb"/><stop offset="0.29" stop-color="#66a9c0"/><stop offset="1" stop-color="#7dd0a6"/></linearGradient><linearGradient id="Degradado_sin_nombre_79" x1="101" y1="482.53" x2="311.76" y2="482.53" gradientUnits="userSpaceOnUse"><stop offset="0" stop-color="#7dc0fd"/><stop offset="0.21" stop-color="#83cbf2"/><stop offset="1" stop-color="#99f2cb"/></linearGradient><linearGradient id="Degradado_sin_nombre_83" x1="318.54" y1="500.72" x2="366.88" y2="416.99" gradientUnits="userSpaceOnUse"><stop offset="0" stop-color="#8465f8"/><stop offset="0.47" stop-color="#828cfa"/><stop offset="1" stop-color="#80bcfd"/></linearGradient><linearGradient id="Degradado_sin_nombre_98" x1="309.54" y1="459.82" x2="406.26" y2="459.82" gradientUnits="userSpaceOnUse"><stop offset="0" stop-color="#b0a0fc"/><stop offset="0.56" stop-color="#c0c7fd"/><stop offset="1" stop-color="#cde8fe"/></linearGradient><linearGradient id="Degradado_sin_nombre_97" x1="308.81" y1="460.75" x2="410.39" y2="460.75" gradientUnits="userSpaceOnUse"><stop offset="0" stop-color="#a18efc"/><stop offset="0.61" stop-color="#9db5fd"/><stop offset="1" stop-color="#9ad0fd"/></linearGradient><linearGradient id="Degradado_sin_nombre_83-2" x1="270.19" y1="452.38" x2="318.54" y2="368.64" xlink:href="#Degradado_sin_nombre_83"/><linearGradient id="Degradado_sin_nombre_83-3" x1="241.19" y1="457.96" x2="250.85" y2="441.21" xlink:href="#Degradado_sin_nombre_83"/><linearGradient id="Degradado_sin_nombre_96" x1="273.67" y1="480.21" x2="301.98" y2="480.21" gradientUnits="userSpaceOnUse"><stop offset="0" stop-color="#bcaefc"/><stop offset="0.8" stop-color="#bad5fe"/><stop offset="1" stop-color="#b9dffe"/></linearGradient><linearGradient id="Degradado_sin_nombre_96-2" x1="273.67" y1="471.76" x2="301.98" y2="471.76" xlink:href="#Degradado_sin_nombre_96"/><linearGradient id="Degradado_sin_nombre_96-3" x1="185.34" y1="443.4" x2="262.49" y2="443.4" xlink:href="#Degradado_sin_nombre_96"/><linearGradient id="Degradado_sin_nombre_96-4" x1="185.34" y1="434.95" x2="262.49" y2="434.95" xlink:href="#Degradado_sin_nombre_96"/><linearGradient id="Degradado_sin_nombre_81" x1="332.44" y1="472.98" x2="340.9" y2="487.64" gradientUnits="userSpaceOnUse"><stop offset="0" stop-color="#d55281"/><stop offset="0.27" stop-color="#d96e82"/><stop offset="0.76" stop-color="#e09c84"/><stop offset="1" stop-color="#e3ae85"/></linearGradient><linearGradient id="Degradado_sin_nombre_79-2" x1="288.18" y1="429.77" x2="395.08" y2="429.77" xlink:href="#Degradado_sin_nombre_79"/><linearGradient id="Degradado_sin_nombre_95" x1="306.92" y1="430.73" x2="390.95" y2="430.73" gradientUnits="userSpaceOnUse"><stop offset="0" stop-color="#aedefe"/><stop offset="1" stop-color="#c0ffe4"/></linearGradient><linearGradient id="Degradado_sin_nombre_94-2" x1="306.19" y1="431.66" x2="395.08" y2="431.66" xlink:href="#Degradado_sin_nombre_94"/><linearGradient id="Degradado_sin_nombre_79-3" x1="272.28" y1="422.39" x2="314.3" y2="349.6" xlink:href="#Degradado_sin_nombre_79"/><linearGradient id="Degradado_sin_nombre_79-4" x1="246.44" y1="429.8" x2="256.13" y2="413.02" xlink:href="#Degradado_sin_nombre_79"/><linearGradient id="Degradado_sin_nombre_93" x1="213.01" y1="421.41" x2="286.89" y2="421.41" gradientUnits="userSpaceOnUse"><stop offset="0" stop-color="#bae7fe"/><stop offset="1" stop-color="#c6ffe7"/></linearGradient><linearGradient id="Degradado_sin_nombre_99" x1="328.19" y1="442.5" x2="342.66" y2="467.57" gradientUnits="userSpaceOnUse"><stop offset="0" stop-color="#9f6cfb"/><stop offset="0.41" stop-color="#be8ac5"/><stop offset="0.8" stop-color="#d9a497"/><stop offset="1" stop-color="#e3ae85"/></linearGradient><linearGradient id="Degradado_sin_nombre_83-4" x1="282.86" y1="398.99" x2="378.4" y2="398.99" xlink:href="#Degradado_sin_nombre_83"/><linearGradient id="Degradado_sin_nombre_98-2" x1="304.98" y1="400.12" x2="373.52" y2="400.12" xlink:href="#Degradado_sin_nombre_98"/><linearGradient id="Degradado_sin_nombre_97-2" x1="304.11" y1="401.22" x2="378.4" y2="401.22" xlink:href="#Degradado_sin_nombre_97"/><linearGradient id="Degradado_sin_nombre_83-5" x1="279.3" y1="390.16" x2="313.55" y2="330.83" xlink:href="#Degradado_sin_nombre_83"/><linearGradient id="Degradado_sin_nombre_83-6" x1="256.46" y1="403.33" x2="267.87" y2="383.56" xlink:href="#Degradado_sin_nombre_83"/><linearGradient id="Degradado_sin_nombre_96-5" x1="230.58" y1="388.39" x2="242" y2="368.62" xlink:href="#Degradado_sin_nombre_96"/><linearGradient id="Degradado_sin_nombre_96-6" x1="283.31" y1="418.83" x2="294.72" y2="399.06" xlink:href="#Degradado_sin_nombre_96"/><linearGradient id="Degradado_sin_nombre_96-7" x1="217.64" y1="380.92" x2="229.05" y2="361.14" xlink:href="#Degradado_sin_nombre_96"/><linearGradient id="Degradado_sin_nombre_96-8" x1="295.47" y1="425.85" x2="306.88" y2="406.08" xlink:href="#Degradado_sin_nombre_96"/><linearGradient id="Degradado_sin_nombre_81-2" x1="329.78" y1="404.36" x2="343.36" y2="427.88" xlink:href="#Degradado_sin_nombre_81"/><linearGradient id="Degradado_sin_nombre_79-5" x1="285.81" y1="367.84" x2="372.5" y2="367.84" xlink:href="#Degradado_sin_nombre_79"/><linearGradient id="Degradado_sin_nombre_95-2" x1="301.81" y1="368.66" x2="368.97" y2="368.66" xlink:href="#Degradado_sin_nombre_95"/><linearGradient id="Degradado_sin_nombre_94-3" x1="301.18" y1="369.46" x2="372.5" y2="369.46" xlink:href="#Degradado_sin_nombre_94"/><linearGradient id="Degradado_sin_nombre_79-6" x1="273.53" y1="360.97" x2="307.12" y2="302.8" xlink:href="#Degradado_sin_nombre_79"/><linearGradient id="Degradado_sin_nombre_79-7" x1="252.61" y1="367.96" x2="260.89" y2="353.63" xlink:href="#Degradado_sin_nombre_79"/><linearGradient id="Degradado_sin_nombre_93-2" x1="214.75" y1="346.09" x2="223.01" y2="331.8" xlink:href="#Degradado_sin_nombre_93"/><linearGradient id="Degradado_sin_nombre_93-3" x1="287.93" y1="388.31" x2="296.18" y2="374.01" xlink:href="#Degradado_sin_nombre_93"/><linearGradient id="Degradado_sin_nombre_93-4" x1="251.44" y1="364.84" x2="257.21" y2="354.84" xlink:href="#Degradado_sin_nombre_93"/><linearGradient id="Degradado_sin_nombre_99-2" x1="316.83" y1="377" x2="329.4" y2="398.77" xlink:href="#Degradado_sin_nombre_99"/><linearGradient id="Degradado_sin_nombre_83-7" x1="300.4" y1="340.53" x2="394.69" y2="340.53" xlink:href="#Degradado_sin_nombre_83"/><linearGradient id="Degradado_sin_nombre_98-3" x1="313.38" y1="341.2" x2="391.83" y2="341.2" xlink:href="#Degradado_sin_nombre_98"/><linearGradient id="Degradado_sin_nombre_97-3" x1="312.87" y1="341.84" x2="394.69" y2="341.84" xlink:href="#Degradado_sin_nombre_97"/><linearGradient id="Degradado_sin_nombre_83-8" x1="280.7" y1="336.29" x2="319.95" y2="268.3" xlink:href="#Degradado_sin_nombre_83"/><linearGradient id="Degradado_sin_nombre_83-9" x1="257.75" y1="338.51" x2="264.47" y2="326.87" xlink:href="#Degradado_sin_nombre_83"/><linearGradient id="Degradado_sin_nombre_96-9" x1="208.26" y1="304.13" x2="212.54" y2="304.13" xlink:href="#Degradado_sin_nombre_96"/><linearGradient id="Degradado_sin_nombre_96-10" x1="212.11" y1="306.36" x2="216.39" y2="306.36" xlink:href="#Degradado_sin_nombre_96"/><linearGradient id="Degradado_sin_nombre_96-11" x1="215.98" y1="308.58" x2="220.26" y2="308.58" xlink:href="#Degradado_sin_nombre_96"/><linearGradient id="Degradado_sin_nombre_96-12" x1="219.92" y1="310.71" x2="224.2" y2="310.71" xlink:href="#Degradado_sin_nombre_96"/><linearGradient id="Degradado_sin_nombre_96-13" x1="232.28" y1="331.95" x2="285.15" y2="331.95" xlink:href="#Degradado_sin_nombre_96"/><linearGradient id="Degradado_sin_nombre_81-3" x1="326.18" y1="355.2" x2="333.98" y2="368.71" xlink:href="#Degradado_sin_nombre_81"/><linearGradient id="Degradado_sin_nombre_79-8" x1="296.52" y1="316.62" x2="379.04" y2="316.62" xlink:href="#Degradado_sin_nombre_79"/><linearGradient id="Degradado_sin_nombre_95-3" x1="310.99" y1="317.37" x2="375.85" y2="317.37" xlink:href="#Degradado_sin_nombre_95"/><linearGradient id="Degradado_sin_nombre_94-4" x1="310.42" y1="318.08" x2="379.04" y2="318.08" xlink:href="#Degradado_sin_nombre_94"/><linearGradient id="Degradado_sin_nombre_79-9" x1="284.24" y1="310.93" x2="316.68" y2="254.74" xlink:href="#Degradado_sin_nombre_79"/><linearGradient id="Degradado_sin_nombre_79-10" x1="264.3" y1="316.65" x2="271.78" y2="303.7" xlink:href="#Degradado_sin_nombre_79"/><linearGradient id="Degradado_sin_nombre_93-5" x1="238.5" y1="310.17" x2="295.52" y2="310.17" xlink:href="#Degradado_sin_nombre_93"/><linearGradient id="Degradado_sin_nombre_93-6" x1="224.74" y1="288.97" x2="236.14" y2="288.97" xlink:href="#Degradado_sin_nombre_93"/><linearGradient id="Degradado_sin_nombre_93-7" x1="298.34" y1="329.27" x2="302.01" y2="329.27" xlink:href="#Degradado_sin_nombre_93"/><linearGradient id="Degradado_sin_nombre_92" x1="305.54" y1="115.93" x2="327.88" y2="124.06" gradientUnits="userSpaceOnUse"><stop offset="0" stop-color="#446b90"/><stop offset="0.27" stop-color="#445e81"/><stop offset="1" stop-color="#433d5a"/></linearGradient><linearGradient id="Degradado_sin_nombre_83-10" x1="281.69" y1="240.06" x2="299.41" y2="240.06" xlink:href="#Degradado_sin_nombre_83"/><linearGradient id="Degradado_sin_nombre_83-11" x1="299.16" y1="224.78" x2="322.61" y2="224.78" xlink:href="#Degradado_sin_nombre_83"/><linearGradient id="Degradado_sin_nombre_90" x1="307.98" y1="153.73" x2="307.98" y2="144.42" gradientUnits="userSpaceOnUse"><stop offset="0" stop-color="#99f2cb"/><stop offset="0.68" stop-color="#83cbf2"/><stop offset="0.86" stop-color="#7dc0fd"/></linearGradient><linearGradient id="Degradado_sin_nombre_89" x1="299.4" y1="136.2" x2="305.47" y2="148.12" gradientUnits="userSpaceOnUse"><stop offset="0.36" stop-color="#7dc0fd"/><stop offset="0.5" stop-color="#83cbf2"/><stop offset="1" stop-color="#99f2cb"/></linearGradient><linearGradient id="Degradado_sin_nombre_79-11" x1="308.16" y1="141.99" x2="311.87" y2="141.99" xlink:href="#Degradado_sin_nombre_79"/><linearGradient id="Degradado_sin_nombre_84" x1="259.99" y1="193.47" x2="325.93" y2="193.47" gradientUnits="userSpaceOnUse"><stop offset="0" stop-color="#433d5a"/><stop offset="0.73" stop-color="#445e81"/><stop offset="1" stop-color="#446b90"/></linearGradient><linearGradient id="Degradado_sin_nombre_88" x1="262.42" y1="127.02" x2="269" y2="127.02" gradientTransform="translate(377.44 -145.47) rotate(86.74)" gradientUnits="userSpaceOnUse"><stop offset="0" stop-color="#354550"/><stop offset="1" stop-color="#27262f"/></linearGradient><linearGradient id="Degradado_sin_nombre_87" x1="307.29" y1="207.09" x2="317.16" y2="207.09" gradientUnits="userSpaceOnUse"><stop offset="0" stop-color="#27262f"/><stop offset="1" stop-color="#354550"/></linearGradient><linearGradient id="Degradado_sin_nombre_86" x1="309.5" y1="209.26" x2="315.12" y2="209.26" gradientUnits="userSpaceOnUse"><stop offset="0" stop-color="#4e496a"/><stop offset="0.51" stop-color="#536b91"/><stop offset="1" stop-color="#588fb9"/></linearGradient><linearGradient id="Degradado_sin_nombre_81-4" x1="232.88" y1="107.03" x2="262.54" y2="107.03" gradientTransform="translate(177.41 -153.5) rotate(51.53)" xlink:href="#Degradado_sin_nombre_81"/><linearGradient id="Degradado_sin_nombre_85" x1="296.88" y1="180.71" x2="296.88" y2="136.42" gradientUnits="userSpaceOnUse"><stop offset="0" stop-color="#e3ae85"/><stop offset="0.24" stop-color="#e09c84"/><stop offset="0.73" stop-color="#d96e82"/><stop offset="1" stop-color="#d55281"/></linearGradient><linearGradient id="Degradado_sin_nombre_85-2" x1="313.3" y1="171.43" x2="313.3" y2="130.84" xlink:href="#Degradado_sin_nombre_85"/><linearGradient id="Degradado_sin_nombre_84-2" x1="355.11" y1="82.5" x2="345.38" y2="64.93" xlink:href="#Degradado_sin_nombre_84"/><linearGradient id="Degradado_sin_nombre_84-3" x1="345.57" y1="67.98" x2="370.02" y2="67.98" xlink:href="#Degradado_sin_nombre_84"/><linearGradient id="Degradado_sin_nombre_80" x1="356.94" y1="67.57" x2="359.66" y2="67.57" gradientTransform="translate(123.42 -211.31) rotate(39.22)" gradientUnits="userSpaceOnUse"><stop offset="0" stop-color="#80bcfd"/><stop offset="0.53" stop-color="#828cfa"/><stop offset="1" stop-color="#8465f8"/></linearGradient><linearGradient id="Degradado_sin_nombre_81-5" x1="357.94" y1="77.02" x2="362.83" y2="77.02" xlink:href="#Degradado_sin_nombre_81"/><linearGradient id="Degradado_sin_nombre_83-12" x1="362.07" y1="87.45" x2="363.6" y2="86.25" xlink:href="#Degradado_sin_nombre_83"/><linearGradient id="Degradado_sin_nombre_82" x1="358.32" y1="215.11" x2="383.64" y2="215.11" gradientUnits="userSpaceOnUse"><stop offset="0" stop-color="#99f2cb"/><stop offset="0.79" stop-color="#83cbf2"/><stop offset="1" stop-color="#7dc0fd"/></linearGradient><linearGradient id="Degradado_sin_nombre_80-2" x1="366.68" y1="225.64" x2="396.29" y2="225.64" gradientTransform="matrix(1, 0, 0, 1, 0, 0)" xlink:href="#Degradado_sin_nombre_80"/><linearGradient id="Degradado_sin_nombre_79-12" x1="342.6" y1="151.06" x2="364.81" y2="151.06" xlink:href="#Degradado_sin_nombre_79"/><linearGradient id="Degradado_sin_nombre_79-13" x1="220.35" y1="244.61" x2="236.01" y2="217.49" xlink:href="#Degradado_sin_nombre_79"/><linearGradient id="Degradado_sin_nombre_79-14" x1="236.58" y1="177.74" x2="236.58" y2="149.08" xlink:href="#Degradado_sin_nombre_79"/><linearGradient id="Degradado_sin_nombre_80-3" x1="233.76" y1="162.23" x2="241.32" y2="175.32" gradientTransform="matrix(1, 0, 0, 1, 0, 0)" xlink:href="#Degradado_sin_nombre_80"/><linearGradient id="Degradado_sin_nombre_79-15" x1="272.91" y1="208.03" x2="272.91" y2="179.28" xlink:href="#Degradado_sin_nombre_79"/><linearGradient id="Degradado_sin_nombre_79-16" x1="238.33" y1="189.05" x2="242.03" y2="189.05" xlink:href="#Degradado_sin_nombre_79"/><linearGradient id="Degradado_sin_nombre_81-6" x1="241.8" y1="207.35" x2="245.61" y2="206.61" gradientTransform="translate(495.18 9.52) rotate(101.52)" xlink:href="#Degradado_sin_nombre_81"/><linearGradient id="Degradado_sin_nombre_79-17" x1="246.13" y1="231.14" x2="249.68" y2="231.14" xlink:href="#Degradado_sin_nombre_79"/><linearGradient id="Degradado_sin_nombre_80-4" x1="238.12" y1="191.21" x2="242.86" y2="191.21" gradientTransform="translate(475.87 -6.25) rotate(101.52)" xlink:href="#Degradado_sin_nombre_80"/><linearGradient id="Degradado_sin_nombre_79-18" x1="238.98" y1="192.71" x2="242.61" y2="192.71" gradientTransform="translate(477.72 -4.74) rotate(101.52)" xlink:href="#Degradado_sin_nombre_79"/><linearGradient id="Degradado_sin_nombre_80-5" x1="244.84" y1="224.61" x2="249.68" y2="224.28" gradientTransform="matrix(1, 0, 0, 1, 0, 0)" xlink:href="#Degradado_sin_nombre_80"/><linearGradient id="Degradado_sin_nombre_80-6" x1="237.41" y1="196.78" x2="240.25" y2="196.78" gradientTransform="matrix(1, 0, 0, 1, 0, 0)" xlink:href="#Degradado_sin_nombre_80"/><linearGradient id="Degradado_sin_nombre_79-19" x1="2387.23" y1="1176.57" x2="2391.26" y2="1176.57" gradientTransform="matrix(-0.63, 0.78, -0.78, -0.63, 2826.83, -912.17)" xlink:href="#Degradado_sin_nombre_79"/><linearGradient id="Degradado_sin_nombre_81-7" x1="2391.01" y1="1196.46" x2="2395.15" y2="1195.66" gradientTransform="translate(2038.75 -1916.62) rotate(101.52)" xlink:href="#Degradado_sin_nombre_81"/><linearGradient id="Degradado_sin_nombre_79-20" x1="2395.72" y1="1222.31" x2="2399.57" y2="1222.31" gradientTransform="matrix(-0.63, 0.78, -0.78, -0.63, 2826.83, -912.17)" xlink:href="#Degradado_sin_nombre_79"/><linearGradient id="Degradado_sin_nombre_80-7" x1="2387.01" y1="1178.91" x2="2392.16" y2="1178.91" gradientTransform="translate(2036.76 -1908.51) rotate(101.52)" xlink:href="#Degradado_sin_nombre_80"/><linearGradient id="Degradado_sin_nombre_79-21" x1="2387.95" y1="1180.55" x2="2391.89" y2="1180.55" gradientTransform="translate(2036.88 -1909.34) rotate(101.52)" xlink:href="#Degradado_sin_nombre_79"/><linearGradient id="Degradado_sin_nombre_80-8" x1="2394.32" y1="1215.22" x2="2399.58" y2="1214.85" gradientTransform="matrix(-0.63, 0.78, -0.78, -0.63, 2826.83, -912.17)" xlink:href="#Degradado_sin_nombre_80"/><linearGradient id="Degradado_sin_nombre_80-9" x1="2386.24" y1="1184.97" x2="2389.32" y2="1184.97" gradientTransform="matrix(-0.63, 0.78, -0.78, -0.63, 2826.83, -912.17)" xlink:href="#Degradado_sin_nombre_80"/></defs><title>04</title><g class="cls-1"><g id="Layer_1" data-name="Layer 1"><polygon class="cls-2" points="311.76 565.63 487.73 464.04 276.96 342.18 101 443.77 311.76 565.63"/><polygon class="cls-3" points="311.76 541.62 487.73 440.03 276.96 318.17 101 419.77 311.76 541.62"/><polygon class="cls-4" points="311.76 541.62 311.76 545.3 487.73 443.7 487.73 440.03 311.76 541.62"/><polygon class="cls-5" points="311.76 545.3 101 423.44 101 419.77 311.76 541.62 311.76 545.3"/><polygon class="cls-6" points="313.7 497.93 410.39 442.11 371.71 419.78 275.03 475.6 313.7 497.93"/><path class="cls-7" d="M313.4,496l92.86-53.57a41.43,41.43,0,0,1,0-19.41l-93.74,53.82s-6.92,15.5.33,19.69Z"/><path class="cls-8" d="M410.39,442.11l-95.48,55.09c-6.46-4.76,0-18.7,0-18.7l95.48-55.13v-1.7L312,476.53s-8.27,17.56,1.67,23.29L410.39,444Z"/><polygon class="cls-9" points="178.34 399.35 313.7 477.5 410.39 421.67 275.03 343.52 178.34 399.35"/><path class="cls-10" d="M313.7,499.83c-7.84-6,0-22.33,0-22.33L178.34,399.34s-7.84,16.31,0,22.33Z"/><path class="cls-11" d="M302,490.57a9.35,9.35,0,0,1,0-4.6l-27.89-16.1s-1,3,0,4.6Z"/><path class="cls-12" d="M302,482.12a9.35,9.35,0,0,1,0-4.6l-27.89-16.1s-1,3,0,4.6Z"/><path class="cls-13" d="M262.49,467.85a9.35,9.35,0,0,1,0-4.6L185.76,419s-1,3,0,4.6Z"/><path class="cls-14" d="M262.49,459.4a9.35,9.35,0,0,1,0-4.6l-76.72-44.29s-1,3,0,4.6Z"/><path class="cls-15" d="M346.66,484.19c-5-1.55-3.56-11.84-8.33-14.6L327,476.24c4.77,2.76,3.36,13.05,8.33,14.6,0,0,.56-6.68,2.41-7.63C337.77,483.21,344.12,484.7,346.66,484.19Z"/><polygon class="cls-16" points="311.08 465.18 395.08 416.68 356.41 394.35 288.18 452.01 311.08 465.18"/><path class="cls-17" d="M310.78,463.29,391,417a71.37,71.37,0,0,1,0-19.41L309.9,444.13s-6.92,15.5.33,19.69Z"/><path class="cls-18" d="M395.08,416.68l-82.8,47.77c-6.46-4.76,0-18.7,0-18.7l82.8-47.81v-1.7l-85.67,47.54s-8.27,17.56,1.67,23.29l84-48.51Z"/><polygon class="cls-19" points="191.49 375.75 311.08 444.75 395.08 396.24 275.5 327.24 191.49 375.75"/><path class="cls-20" d="M311.08,467.08c-7.84-6,0-22.33,0-22.33l-119.59-69s-7.84,16.31,0,22.33Z"/><path class="cls-21" d="M286.89,449.12c-2.73-4.37,0-13.55,0-13.55l-72.56-41.87s-2.95,8.58,0,13.55Z"/><path class="cls-22" d="M349.74,463.26c-8.52-2.64-6.09-20.26-14.25-25l-13.79,8.19c8.16,4.71,5.74,22.32,14.25,25,0,0-2.22-9.79,1-11.42C336.9,460,345.39,464.14,349.74,463.26Z"/><polygon class="cls-23" points="309.88 431.94 378.4 392.39 332.75 366.04 282.86 416.38 309.88 431.94"/><path class="cls-24" d="M309.53,429.71l64-36.89a84.23,84.23,0,0,1,0-22.91l-65,37.18s-8.17,18.29.39,23.24Z"/><path class="cls-25" d="M378.4,392.39l-67.09,38.67c-7.62-5.62,0-22.07,0-22.07l67.09-38.72v-2l-70.48,38.41s-9.76,20.72,2,27.49l68.51-39.54Z"/><polygon class="cls-26" points="214.45 352.72 309.88 407.82 378.4 368.28 282.96 313.18 214.45 352.72"/><polygon class="cls-27" points="239.52 355.1 305.77 393.34 353.32 365.9 287.08 327.65 239.52 355.1"/><path class="cls-28" d="M309.88,434.17c-9.26-7.1,0-26.35,0-26.35l-95.44-55.1s-9.26,19.25,0,26.35Z"/><path class="cls-29" d="M243,395.53c-9.26-7.1,0-26.35,0-26.35l-13.32-7.69s-9.26,19.25,0,26.35Z"/><path class="cls-30" d="M295.68,426c-9.26-7.1,0-26.35,0-26.35l-13.32-7.69s-9.26,19.25,0,26.35Z"/><path class="cls-31" d="M225.55,385.47c-9.26-7.1,0-26.35,0-26.35l-4.41-2.54s-9.26,19.25,0,26.35Z"/><path class="cls-32" d="M303.38,430.41c-9.26-7.1,0-26.35,0-26.35L299,401.52s-9.26,19.25,0,26.35Z"/><path class="cls-33" d="M350,423.84c-8-2.48-5.72-19-13.38-23.44l-12.95,7.68c7.66,4.42,5.39,21,13.38,23.44,0,0-2.08-9.18.9-10.72C338,420.8,345.92,424.67,350,423.84Z"/><polygon class="cls-34" points="305.36 396.75 372.5 357.99 339.48 338.93 285.81 385.51 305.36 396.75"/><path class="cls-35" d="M305.1,395.14,369,358.3a60.93,60.93,0,0,1,0-16.57l-64.63,37.05s-5.91,13.23.28,16.81Z"/><path class="cls-36" d="M372.5,358l-66.12,38.13c-5.51-4.06,0-16,0-16L372.5,342v-1.45l-68.57,37.94s-7.06,15,1.42,19.89l67.14-38.76Z"/><polygon class="cls-37" points="208.14 323.22 305.36 379.31 372.5 340.55 275.29 284.46 208.14 323.22"/><path class="cls-38" d="M305.36,398.37c-6.7-5.14,0-19.06,0-19.06l-97.21-56.08s-6.7,13.93,0,19.06Z"/><path class="cls-39" d="M221.63,350.07c-6.7-5.14,0-19.06,0-19.06l-5.51-3.18s-6.7,13.93,0,19.06Z"/><path class="cls-40" d="M294.81,392.28c-6.7-5.14,0-19.06,0-19.06L289.3,370s-6.7,13.93,0,19.06Z"/><path class="cls-41" d="M266.34,372.82c-2.13-2.83.41-12.4.41-12.4l-24.17-14s-3.09,10.26-.43,13.08Z"/><path class="cls-42" d="M312.19,379.68c9.44,1.27-3.73,21,10.61,22.9,0,0-2.35-9.42,1.72-13.81,0,0,3.83,7.49,8.89,6.42-3.75-6.86,1.35-18.93-9.34-22.37Z"/><polygon class="cls-43" points="316.26 370.93 394.69 325.6 367.9 310.13 300.39 361.8 316.26 370.93"/><path class="cls-44" d="M316.05,369.62l75.78-43.77a49.45,49.45,0,0,1,0-13.45l-76.39,43.94s-4.79,10.74.23,13.64Z"/><path class="cls-45" d="M394.69,325.6l-77.6,44.81c-4.47-3.3,0-13,0-13l77.6-44.84v-1.17L315.11,356.1s-5.73,12.16,1.15,16.14l78.43-45.33Z"/><polygon class="cls-46" points="205.96 293.14 316.26 356.77 394.69 311.45 284.39 247.81 205.96 293.14"/><path class="cls-47" d="M316.26,372.24c-5.44-4.17,0-15.47,0-15.47L206,293.14s-5.44,11.3,0,15.47Z"/><path class="cls-48" d="M212.54,312.4c-5.44-4.17,0-15.47,0-15.47l-1.86-1.08s-5.44,11.3,0,15.47Z"/><path class="cls-49" d="M216.39,314.63c-5.44-4.17,0-15.47,0-15.47l-1.86-1.08s-5.44,11.3,0,15.47Z"/><path class="cls-50" d="M220.26,316.85c-5.44-4.17,0-15.47,0-15.47l-1.86-1.08s-5.44,11.3,0,15.47Z"/><path class="cls-51" d="M224.2,319c-5.44-4.17,0-15.47,0-15.47l-1.86-1.08s-5.44,11.3,0,15.47Z"/><path class="cls-52" d="M307.7,367.3c-5.44-4.17,0-15.47,0-15.47l-4.47-2.58s-5.44,11.3,0,15.47Z"/><path class="cls-53" d="M284.6,351.72l-.11,0-51.22-28.48-.05,0c-2.22-2.36.2-10.48.3-10.83a.22.22,0,0,1,.31-.13l51.21,29a.22.22,0,0,1,.1.24c0,.08-2,7.69-.37,9.88a.22.22,0,0,1-.17.35Zm-51.09-28.87L284.07,351c-1-2.66.35-8.35.62-9.41l-50.82-28.83C233.46,314.14,231.71,320.86,233.51,322.85Z"/><path class="cls-54" d="M337.79,363.84c-5.52-2.64-3.17-9-9.33-10l-7.25,4.19c5.76.77.82,8.64,9.58,9.81l5.87-.72Z"/><polygon class="cls-55" points="314.2 343.96 379.04 306.52 349.19 289.28 296.52 333.79 314.2 343.96"/><path class="cls-56" d="M314,342.5l61.89-35.71a55.09,55.09,0,0,1,0-15l-62.56,35.9s-5.34,12,.26,15.2Z"/><path class="cls-57" d="M379,306.52l-63.91,36.87c-5-3.67,0-14.43,0-14.43L379,292.05v-1.31l-66.13,36.7s-6.38,13.55,1.29,18L379,308Z"/><polygon class="cls-58" points="221.89 274.93 314.2 328.19 379.04 290.75 286.73 237.48 221.89 274.93"/><path class="cls-59" d="M314.2,345.42c-6.06-4.64,0-17.24,0-17.24l-92.31-53.26s-6.06,12.59,0,17.24Z"/><path class="cls-60" d="M295.52,331.56c-2.11-3.38,0-10.46,0-10.46l-56-32.32s-2.27,6.62,0,10.46Z"/><path class="cls-61" d="M225.68,291.1c-2.11-3.38,0-10.46,0-10.46l10.46,6.19s-2.27,6.62,0,10.46Z"/><path class="cls-62" d="M299.27,333.7c-2.11-3.38,0-10.46,0-10.46l2.74,1.6s-2.27,6.62,0,10.46Z"/><path class="cls-63" d="M340.1,335.3c-5.92-7.25-.76-8.46-7.06-12.1l-10.65,6.32c6.77,1.75,2.27,9.86,9.74,10.73,0,0-1.06-5.26,1-7.83C333.15,332.42,336.74,336,340.1,335.3Z"/><path class="cls-64" d="M316.49,101.45a200.59,200.59,0,0,1,9.77-27.64l3.87.57-5.06,23.55A18.76,18.76,0,0,1,316.49,101.45Z"/><polygon class="cls-65" points="298.45 135.89 298.83 135.89 298.74 138.02 297.63 138.11 297.63 137 298.45 135.89"/><ellipse class="cls-66" cx="303.58" cy="141.74" rx="8.11" ry="5.11" transform="translate(-23.79 70.46) rotate(-12.74)"/><path class="cls-66" d="M298.68,131.57a32.72,32.72,0,0,1-.9,8.1c1.77,2.81,9.36,4.57,10.51,1.34a9.29,9.29,0,0,1,.89-4.92C310.36,134,298.68,131.57,298.68,131.57Z"/><path class="cls-67" d="M298.68,131.57s0,.75,0,2a11.94,11.94,0,0,0,9.6,6.6,8.38,8.38,0,0,1,.92-4C310.36,134,298.68,131.57,298.68,131.57Z"/><path class="cls-68" d="M329.38,109.1c-.16,4.1-10.25,19.95-11.32,41.93-2.15,6.37-14.35-20-11.84-31,2.29-10,4.63-19.85,8-27.53C317.16,85.75,329.08,88.57,329.38,109.1Z"/><path class="cls-69" d="M283.63,286.42l0,2.44c0,1.11,2.46,2.8,4.39,3.32a.18.18,0,0,0,.23-.19l0-.58a12.79,12.79,0,0,1,2.49,1.31c.1.07.21.6.31.67,1.41,1,2.87,1.89,4.08,2.69,1.77,1.18,5.09-.2,6-.6a.36.36,0,0,0,.21-.33v-.42l-3.54.16-6.11-3.38-7.19-4.06-.09-.7-.73-.32"/><path class="cls-65" d="M284.31,284.68c-.07.57,2,1.72,4,1.75s4.47.78,3.65-.66a69.81,69.81,0,0,0,9.38,7.66c.17.12.13,1,.13,1.2h0a.31.31,0,0,1-.19.29c-.81.33-4,1.49-5.74.31-2-1.36-5.28-3.84-7.23-4.28s-4.61-2.23-4.63-3.38l0-1.69A1.27,1.27,0,0,1,284.31,284.68Z"/><path class="cls-70" d="M284.93,195.48c-7.58,6.21,0,33.57,3.83,48-.18.49-1.19,2.62-1.19,2.62-.29,3.71-1.48,7.72-1.69,13.06-.35,9-1.74,25.81-1.74,25.81.51,2.44,8.89,3.56,8.67.13l6.14-43.4a267.34,267.34,0,0,0-1.44-47.24A10.36,10.36,0,0,0,284.93,195.48Z"/><path class="cls-69" d="M312.45,272.09l.32,2.42c.15,1.1,2.76,2.51,4.74,2.8a.18.18,0,0,0,.2-.21l-.1-.57a12.79,12.79,0,0,1,2.63,1c.11.06.27.57.38.63,1.52.86,3.07,1.55,4.36,2.21,1.89,1,5-.78,5.85-1.27a.36.36,0,0,0,.17-.35l-.06-.42-3.5.56L321,276.23,313.37,273l-.17-.69-.76-.23"/><path class="cls-65" d="M312.92,270.28c0,.57,2.21,1.48,4.14,1.29s4.53.27,3.56-1.07a59.11,59.11,0,0,0,10.11,6.71c.18.1.31.81.34,1h0a.31.31,0,0,1-.16.31c-.77.42-3.78,1.93-5.67,1-2.18-1.12-5.68-3.22-7.66-3.43s-4.83-1.69-5-2.83l-.22-1.68A1.27,1.27,0,0,1,312.92,270.28Z"/><path class="cls-71" d="M301.1,180.16c-6.83,7,6.14,34.79,11.58,48.73-.12.51-.88,2.74-.88,2.74.13,3.72-.6,7.84-.2,13.17.67,9,1.19,25.84,1.19,25.84.78,2.37,9.23,2.53,8.63-.85L322.61,226a267.33,267.33,0,0,0-6.78-46.78S307,174.09,301.1,180.16Z"/><path class="cls-72" d="M316.92,185c-1-.07-3.57,2.36-9.11,4.2a8.12,8.12,0,0,0-4,2.91c-2.19-.93-9.3-3.35-14,1.95-1.62,1.82-1.95,4.88-1.45,8.64,2.87,1.67,8.12,1.46,12.83,1s11.89-2.3,15.26-4.76c.48-4.79.59-8.41.88-10.86Z"/><path class="cls-73" d="M308.16,144.79s-3.67,1.43-4.88,4.17,7.08,4.77,7.08,4.77,2.44-5.82,2.46-8S308.16,144.79,308.16,144.79Z"/><path class="cls-74" d="M298.35,136.74a4,4,0,0,0,.18,2c.92,2.37,4.07,5.58,9.63,6.08a11.37,11.37,0,0,0-3.78,3.88C300.41,147.62,295.58,140.35,298.35,136.74Z"/><path class="cls-75" d="M308.16,144.79a6.48,6.48,0,0,1,3.72,1.7s-.76-7.43-3.72-9C308.47,137.89,310.22,140.36,308.16,144.79Z"/><path class="cls-76" d="M319.7,146c0-5-2.49-9.7-6-11.87l-2-.49-7.12.65s10.36,5.76,5.68,18c0,0-15.22-7.15-11.79-16.43a49.11,49.11,0,0,0-5.79,2.31,9.17,9.17,0,0,0-2.51-2.55C287.47,132.55,272,118,267,114.81c-5.66-3.64-11.53,21.1-1.77,26.74,9.11,5.26,14.9,9.78,18.17,16.46-3.29,30.64-4.67,96.5-1.73,109.1,6.89,7,9.78,6.15,16.78,3.17s8.6,0,16.21-3.15,11.28-11.71,11.28-11.71S319.7,154.44,319.7,146Z"/><ellipse class="cls-77" cx="265.71" cy="127.02" rx="10.82" ry="3.23" transform="translate(123.8 385.09) rotate(-86.74)"/><path class="cls-64" d="M267.52,127c-13.22-9.11-18.79-14.94-18.79-14.94l4-5.06,14.31,10.74A18.76,18.76,0,0,1,267.52,127Z"/><path class="cls-78" d="M317.16,265.81c-5-30.44-4.44-70.35-4.11-94.29.13-9.23-.16-21.22-1.61-25.38a17,17,0,0,1-1.21,6.17,32.46,32.46,0,0,1-2.94-1.64c.29,2.79.5,12,.38,20.77-.34,24.31-.81,65.56,4.38,96.57a24.7,24.7,0,0,0,2.59-.9A16.3,16.3,0,0,0,317.16,265.81Z"/><path class="cls-79" d="M315.12,266.89c-5.12-30.71-4.67-72.08-4.4-96.72.1-9.27.18-16.15-.1-19q-.17.55-.39,1.12l-.62-.31c.2,3.08.13,9.6,0,18.16-.27,24.75-.72,66.33,4.45,97.16l.54-.2Z"/><path class="cls-64" d="M247.64,103.29c.52-3.1-2.08-3.65-2.75-6.2s-2.84-1.19-2.46.38,4.26,6,4.26,6Z"/><rect class="cls-80" x="235.25" y="97.99" width="24.93" height="18.08" transform="translate(9.82 234.4) rotate(-51.53)"/><path class="cls-64" d="M244.46,105a2.62,2.62,0,0,1-2.27.84,16.31,16.31,0,0,1-3.77-1.43c-1.28-.84-2.53-1.39-1.39-3.84s4.53-4.9,6.05-2.87a15.94,15.94,0,0,1,2.65,4.35A4,4,0,0,1,244.46,105Z"/><path class="cls-64" d="M326.2,73.31a12.16,12.16,0,0,0-.68-3.67c-.56-1.64.1-2.25.92-3.48s1.65-.73,1.65-.73.45-1.23,1.51-1.06,4.41,1,4.91,2.18-.39,5.19-1.67,6-2.67,1.57-2.83,2.1-3.62.19-3.62.19Z"/><path class="cls-81" d="M301.26,176.69c-2.06-5.38-.68-37.52-4.74-40.26a8.42,8.42,0,0,0-4,1.56c3.28,3.49,2,35.21,4.09,40.59l4,2.14Z"/><path class="cls-82" d="M319,167.56c-2.12-5.09-.93-33.67-8.77-36.72-2.1.21-2.64.93-2.64.93,6.14,3.1,4.88,32.62,7,37.71l3.92,1.94Z"/><path class="cls-64" d="M311.22,116.47a19.62,19.62,0,0,1,2.35,8.56c-.17.59.84,1.73.59,4.2-.18,1.8-.54,5.44-.73,7.31a1.54,1.54,0,0,1-1.26,1.37c-3.61.64-9.37,1-13.59-4.72,0,0-2-2.37-3-2.67s-4.63-5-4.63-8.81c0-4,2.23-10.16,10.51-10.16A11.54,11.54,0,0,1,311.22,116.47Z"/><path class="cls-83" d="M313.57,125a19.62,19.62,0,0,0-2.35-8.56,9.38,9.38,0,0,0-1.41-1.67c.2.27.3.43.3.43a19.62,19.62,0,0,1,2.35,8.56c-.17.59.84,1.73.59,4.2l-.73,7.31a1.54,1.54,0,0,1-1.26,1.37c-3.19.56-8.07.91-12.07-3,4.17,5.18,9.69,4.83,13.18,4.21a1.54,1.54,0,0,0,1.26-1.37l.73-7.31C314.41,126.76,313.4,125.62,313.57,125Z"/><path class="cls-84" d="M299.83,119.48c2.26,1.64-.92,8.31-.48,10-.66.28-1.08-1.92-2.15-1.86s-.17,1.43-.17,1.43l1.72,3.56-.21,2.35c-.35-4-8.36-4.34-7.82-14.39.16-2.46,1.65-6.39,2.39-5.71S299.21,117.13,299.83,119.48Z"/><path class="cls-85" d="M296.51,130.33c-.89-.81-4.2-5.17-5.74-7.21.81,7.6,7.44,8.19,7.76,11.86l.21-2.35-1.46-3Z"/><path class="cls-86" d="M297.2,127.64c-1.59-1.65-3.6-.24-2.3,1.73.28.42.89.67,1.11,1.06.12.22.24.4.36.57a14.49,14.49,0,0,1,1.09,1,1,1,0,0,0,1.07-.36Z"/><path class="cls-64" d="M298.42,127.73c-1-2.06-3.35-1.33-2.72.94.14.49.65.91.73,1.35.44,2.2,1.24,2.4,2,2"/><path class="cls-84" d="M298.17,120.17c5.8,1.9,13.73-1.1,14.25-1.36,1.52-.4.89-3.58-1.07-4.45S305.59,111,301,111c-4.33,0-8.3,1.41-9.62,6.38C293,118.14,298.17,120.17,298.17,120.17Z"/><path class="cls-87" d="M342.78,80.36c3.23,3.83,7.83,5.26,10.28,3.2l9.71-7.93L351,61.83l-9.62,7.86C338.91,71.75,339.55,76.53,342.78,80.36Z"/><ellipse class="cls-65" cx="356.83" cy="68.76" rx="5.8" ry="9.07" transform="translate(39.7 246.2) rotate(-40.13)"/><polygon class="cls-88" points="345.57 53 366.44 60.92 370.02 82.96 349.14 75.04 345.57 53"/><circle class="cls-89" cx="358.3" cy="67.57" r="1.36" transform="translate(37.98 241.75) rotate(-39.22)"/><path class="cls-90" d="M362.3,86.61a.53.53,0,0,1-.34-.12c-4.16-3.46-3.66-8.89-3.3-12.86.23-2.45.42-4.56-.5-5.23a.53.53,0,0,1,.63-.86c1.41,1,1.2,3.31.94,6.19-.36,3.94-.81,8.85,2.92,11.95a.53.53,0,0,1-.34.94Z"/><path class="cls-91" d="M363.06,88.61l-1.9-2.33a.94.94,0,0,1,.13-1.33h0a.94.94,0,0,1,1.33.13l1.9,2.33a.94.94,0,0,1-.13,1.33h0A.94.94,0,0,1,363.06,88.61Z"/><path class="cls-92" d="M378.48,203.35c-12.3-5.92-20.16,5.25-20.16,5.25s21.15,10.09,21.39,18.28,3.93-15.27,3.93-15.27Z"/><path class="cls-93" d="M366.68,247.94s17.95-21.73,11.8-44.59c0,0,19.42,13.28,17.7,32Z"/><path class="cls-94" d="M342.6,143s13.81-3.11,22.2,2.8L364.56,160s-12.74-4.76-21.64-1.21Z"/><path class="cls-95" d="M234.09,244.61s-5.43-14.73,6-24.76l-16.83-1.78c-11.45,10-6,24.76-6,24.76Z"/><path class="cls-96" d="M226.91,177s-4.74-19.51-7.1-26.45L251,149.08c-.55,2,.65,14.31,2.37,17.75L229.1,177.74Z"/><path class="cls-97" d="M230,181.87s-2.41,0-3.94-3.9c0,0,17.91-19.83,18.44-21.93l8.87,10.78Z"/><path class="cls-98" d="M263.39,208a97.62,97.62,0,0,0-4.52-18.84s9.25-4.63,12.23-9.91c0,0,11.79,5.95,15.86,25.33Z"/><path class="cls-99" d="M241.88,189l.15.74-3.52.72-.15-.74a1.79,1.79,0,0,1,1.4-2.12h0A1.79,1.79,0,0,1,241.88,189Z"/><rect class="cls-100" x="227.95" y="205.19" width="31.5" height="3.59" transform="matrix(-0.2, -0.98, 0.98, -0.2, 89.56, 487.11)"/><polygon class="cls-101" points="249.65 227.16 249.68 235 249.17 235.11 246.13 227.88 249.65 227.16"/><rect class="cls-102" x="239.22" y="189.05" width="2.55" height="4.32" transform="translate(101.16 465.04) rotate(-101.52)"/><rect class="cls-103" x="240.53" y="190.92" width="0.53" height="3.59" transform="translate(100.06 467.15) rotate(-101.52)"/><path class="cls-104" d="M248.6,220.87l1.29,6.34-.09.13-3.74.76-.13-.09-1.29-6.34.09-.13,3.74-.76Z"/><path class="cls-105" d="M238.36,190.89l-.63.13a.4.4,0,0,0-.31.47l2.26,11.1a.11.11,0,0,0,.13.09h.06a.46.46,0,0,0,.36-.54L238.18,192l.39-.08Z"/><path class="cls-106" d="M405.15,200.07l-.72-.38,1.81-3.46.72.38a2,2,0,0,1,.82,2.63h0A2,2,0,0,1,405.15,200.07Z"/><rect class="cls-107" x="371.66" y="187.36" width="34.24" height="3.9" transform="translate(132 -158.62) rotate(27.61)"/><polygon class="cls-108" points="367.69 180.48 361.06 175.13 361.32 174.63 369.5 177.02 367.69 180.48"/><rect class="cls-109" x="402.9" y="195.07" width="2.77" height="4.69" transform="translate(137.52 -164.88) rotate(27.61)"/><rect class="cls-110" x="402.51" y="194.69" width="0.58" height="3.9" transform="translate(137.01 -164.29) rotate(27.61)"/><path class="cls-111" d="M373.71,183.91l-6.23-3.26-.05-.16,1.92-3.68.16-.05,6.23,3.26.05.16-1.92,3.68Z"/><path class="cls-112" d="M406,195.84l.32-.62a.43.43,0,0,0-.18-.58l-10.91-5.7a.12.12,0,0,0-.17.05l0,.06a.5.5,0,0,0,.21.67l9.92,5.19-.2.39Z"/></g></g></svg>